<svg xmlns="http://www.w3.org/2000/svg" xmlns:xlink="http://www.w3.org/1999/xlink" viewBox="0 0 694.65 600"><defs><style>.cls-1{fill:none;}.cls-2{fill:url(#linear-gradient);}.cls-3{isolation:isolate;}.cls-4{fill:#17479d;}.cls-39,.cls-5{fill:#fff;}.cls-6{opacity:0.67;}.cls-7{fill:url(#linear-gradient-2);}.cls-8{fill:url(#linear-gradient-3);}.cls-9{opacity:0.9;}.cls-10{fill:url(#linear-gradient-4);}.cls-11{mix-blend-mode:lighten;}.cls-12{fill:url(#linear-gradient-5);}.cls-13{fill:url(#linear-gradient-6);}.cls-14{fill:url(#linear-gradient-7);}.cls-15{fill:url(#linear-gradient-8);}.cls-16,.cls-238{fill:#121516;}.cls-17{fill:url(#linear-gradient-9);}.cls-18{fill:url(#linear-gradient-10);}.cls-19{fill:url(#linear-gradient-11);}.cls-20{fill:url(#linear-gradient-12);}.cls-21{fill:url(#linear-gradient-13);}.cls-22{fill:url(#linear-gradient-14);}.cls-23{fill:url(#linear-gradient-15);}.cls-24{fill:url(#linear-gradient-16);}.cls-25{fill:url(#linear-gradient-17);}.cls-26{fill:url(#linear-gradient-18);}.cls-27{fill:url(#linear-gradient-19);}.cls-28{fill:url(#linear-gradient-20);}.cls-29{fill:url(#linear-gradient-21);}.cls-30{fill:url(#linear-gradient-22);}.cls-31{fill:url(#linear-gradient-23);}.cls-32{fill:url(#linear-gradient-24);}.cls-33{fill:url(#linear-gradient-25);}.cls-34{fill:url(#linear-gradient-26);}.cls-35{fill:url(#linear-gradient-27);}.cls-36{fill:url(#linear-gradient-28);}.cls-37{opacity:0.51;}.cls-38{fill:#453c9e;}.cls-221,.cls-39{opacity:0.8;}.cls-40{fill:url(#linear-gradient-29);}.cls-41{fill:url(#linear-gradient-30);}.cls-42{fill:url(#linear-gradient-31);}.cls-43{fill:url(#linear-gradient-32);}.cls-44{fill:url(#linear-gradient-33);}.cls-45{fill:url(#linear-gradient-34);}.cls-46{fill:url(#linear-gradient-35);}.cls-47{fill:url(#linear-gradient-36);}.cls-48{fill:url(#linear-gradient-37);}.cls-49{fill:url(#linear-gradient-38);}.cls-50{fill:url(#linear-gradient-39);}.cls-51{fill:url(#linear-gradient-40);}.cls-52{fill:url(#linear-gradient-41);}.cls-53{fill:url(#linear-gradient-42);}.cls-54{fill:url(#linear-gradient-43);}.cls-55{fill:url(#linear-gradient-44);}.cls-56{fill:url(#linear-gradient-45);}.cls-57{fill:url(#linear-gradient-46);}.cls-58{fill:url(#linear-gradient-47);}.cls-59{fill:url(#linear-gradient-48);}.cls-60{fill:url(#linear-gradient-49);}.cls-61{fill:url(#linear-gradient-50);}.cls-62{fill:url(#linear-gradient-51);}.cls-63{fill:url(#linear-gradient-52);}.cls-64{fill:url(#linear-gradient-53);}.cls-65{fill:url(#linear-gradient-54);}.cls-66{fill:url(#linear-gradient-55);}.cls-67{fill:url(#linear-gradient-56);}.cls-68{fill:url(#linear-gradient-57);}.cls-69{fill:url(#linear-gradient-58);}.cls-70{fill:url(#linear-gradient-59);}.cls-71{fill:url(#linear-gradient-60);}.cls-72{fill:url(#linear-gradient-61);}.cls-73{fill:url(#linear-gradient-62);}.cls-74{fill:url(#linear-gradient-63);}.cls-75{fill:url(#linear-gradient-64);}.cls-76{fill:url(#linear-gradient-65);}.cls-77{fill:url(#linear-gradient-66);}.cls-78{fill:url(#linear-gradient-67);}.cls-79{fill:url(#linear-gradient-68);}.cls-80{fill:url(#linear-gradient-69);}.cls-81{fill:url(#linear-gradient-70);}.cls-82{fill:url(#linear-gradient-71);}.cls-83{fill:url(#linear-gradient-72);}.cls-84{fill:url(#linear-gradient-73);}.cls-85{fill:url(#linear-gradient-74);}.cls-86{fill:url(#linear-gradient-75);}.cls-87{fill:url(#linear-gradient-76);}.cls-88{fill:url(#linear-gradient-77);}.cls-89{fill:url(#linear-gradient-78);}.cls-90{fill:url(#linear-gradient-79);}.cls-91{fill:url(#linear-gradient-80);}.cls-92{fill:url(#linear-gradient-81);}.cls-93{fill:url(#linear-gradient-82);}.cls-94{fill:url(#linear-gradient-83);}.cls-95{fill:url(#linear-gradient-84);}.cls-96{fill:url(#linear-gradient-85);}.cls-97{fill:url(#linear-gradient-86);}.cls-98{fill:url(#linear-gradient-87);}.cls-99{fill:url(#linear-gradient-88);}.cls-100{fill:url(#linear-gradient-89);}.cls-101{fill:url(#linear-gradient-90);}.cls-102{fill:url(#linear-gradient-91);}.cls-103{fill:url(#linear-gradient-92);}.cls-104{fill:url(#linear-gradient-93);}.cls-105{fill:url(#linear-gradient-94);}.cls-106{fill:url(#linear-gradient-95);}.cls-107{fill:url(#linear-gradient-96);}.cls-108{fill:url(#linear-gradient-97);}.cls-109{fill:url(#linear-gradient-98);}.cls-110{fill:url(#linear-gradient-99);}.cls-111{fill:url(#linear-gradient-100);}.cls-112{fill:url(#linear-gradient-101);}.cls-113{fill:url(#linear-gradient-102);}.cls-114{fill:url(#linear-gradient-103);}.cls-115{fill:url(#linear-gradient-104);}.cls-116{fill:url(#linear-gradient-105);}.cls-117{fill:url(#linear-gradient-106);}.cls-118{fill:url(#linear-gradient-107);}.cls-119{fill:url(#linear-gradient-108);}.cls-120{fill:url(#linear-gradient-109);}.cls-121{fill:url(#linear-gradient-110);}.cls-122{fill:url(#linear-gradient-111);}.cls-123{fill:url(#linear-gradient-112);}.cls-124{fill:url(#linear-gradient-113);}.cls-125{fill:url(#linear-gradient-114);}.cls-126{fill:url(#linear-gradient-115);}.cls-127{fill:url(#linear-gradient-116);}.cls-128{fill:url(#linear-gradient-117);}.cls-129{fill:url(#linear-gradient-118);}.cls-130{fill:url(#linear-gradient-119);}.cls-131{fill:url(#linear-gradient-120);}.cls-132{fill:url(#linear-gradient-121);}.cls-133{fill:url(#linear-gradient-122);}.cls-134{fill:url(#linear-gradient-123);}.cls-135{fill:url(#linear-gradient-124);}.cls-136{fill:url(#linear-gradient-125);}.cls-137{fill:url(#linear-gradient-126);}.cls-138{fill:url(#linear-gradient-127);}.cls-139{fill:url(#linear-gradient-128);}.cls-140{fill:url(#linear-gradient-129);}.cls-141{fill:url(#linear-gradient-130);}.cls-142{fill:url(#linear-gradient-131);}.cls-143{fill:url(#linear-gradient-132);}.cls-144{fill:url(#linear-gradient-133);}.cls-145{fill:url(#linear-gradient-134);}.cls-146{fill:url(#linear-gradient-135);}.cls-147{fill:url(#linear-gradient-136);}.cls-148{fill:url(#linear-gradient-137);}.cls-149{fill:url(#linear-gradient-138);}.cls-150{fill:url(#linear-gradient-139);}.cls-151{fill:url(#linear-gradient-140);}.cls-152{fill:url(#linear-gradient-141);}.cls-153{fill:url(#linear-gradient-142);}.cls-154{fill:url(#linear-gradient-143);}.cls-155{fill:url(#linear-gradient-144);}.cls-156{fill:url(#linear-gradient-145);}.cls-157{fill:url(#linear-gradient-146);}.cls-158{fill:url(#linear-gradient-147);}.cls-159{fill:url(#linear-gradient-148);}.cls-160{fill:url(#linear-gradient-149);}.cls-161{fill:url(#linear-gradient-150);}.cls-162{fill:url(#linear-gradient-151);}.cls-163{fill:url(#linear-gradient-152);}.cls-164{fill:url(#linear-gradient-153);}.cls-165{fill:url(#linear-gradient-154);}.cls-166{fill:url(#linear-gradient-155);}.cls-167{fill:url(#linear-gradient-156);}.cls-168{fill:url(#linear-gradient-157);}.cls-169{fill:url(#linear-gradient-158);}.cls-170{fill:url(#linear-gradient-159);}.cls-171{fill:url(#linear-gradient-160);}.cls-172{fill:url(#linear-gradient-161);}.cls-173{fill:url(#linear-gradient-162);}.cls-174{fill:url(#linear-gradient-163);}.cls-175{fill:url(#linear-gradient-164);}.cls-176{fill:url(#linear-gradient-165);}.cls-177{fill:url(#linear-gradient-166);}.cls-178{fill:url(#linear-gradient-167);}.cls-179{fill:url(#linear-gradient-168);}.cls-180{fill:url(#linear-gradient-169);}.cls-181{fill:url(#linear-gradient-170);}.cls-182{fill:url(#linear-gradient-171);}.cls-183{fill:url(#linear-gradient-172);}.cls-184{fill:url(#linear-gradient-173);}.cls-185{fill:url(#linear-gradient-174);}.cls-186{fill:url(#linear-gradient-175);}.cls-187{fill:url(#linear-gradient-176);}.cls-188{fill:url(#linear-gradient-177);}.cls-189{fill:url(#linear-gradient-178);}.cls-190{fill:url(#linear-gradient-179);}.cls-191{fill:url(#linear-gradient-180);}.cls-192{fill:url(#linear-gradient-181);}.cls-193{fill:url(#linear-gradient-182);}.cls-194{fill:url(#linear-gradient-183);}.cls-195{fill:url(#linear-gradient-184);}.cls-196{fill:url(#linear-gradient-185);}.cls-197{fill:url(#linear-gradient-186);}.cls-198{fill:url(#linear-gradient-187);}.cls-199{fill:url(#linear-gradient-188);}.cls-200{fill:url(#linear-gradient-189);}.cls-201{fill:url(#linear-gradient-190);}.cls-202{fill:url(#linear-gradient-191);}.cls-203{fill:url(#linear-gradient-192);}.cls-204{fill:url(#linear-gradient-193);}.cls-205{fill:url(#linear-gradient-194);}.cls-206{fill:url(#linear-gradient-195);}.cls-207{fill:url(#linear-gradient-196);}.cls-208{fill:url(#linear-gradient-197);}.cls-209{fill:url(#linear-gradient-198);}.cls-210{fill:url(#linear-gradient-199);}.cls-211{fill:url(#linear-gradient-200);}.cls-212{fill:url(#linear-gradient-201);}.cls-213{fill:url(#linear-gradient-202);}.cls-214{opacity:0.11;}.cls-215{clip-path:url(#clip-path);}.cls-216{fill:url(#Áåçûìÿííûé_ãðàäèåíò_2);}.cls-217{fill:url(#Áåçûìÿííûé_ãðàäèåíò_2-2);}.cls-218{fill:url(#linear-gradient-203);}.cls-219{fill:#adb1f2;}.cls-220{fill:url(#linear-gradient-204);}.cls-222{fill:url(#linear-gradient-205);}.cls-223{fill:url(#linear-gradient-206);}.cls-224{fill:url(#linear-gradient-207);}.cls-225{fill:url(#linear-gradient-208);}.cls-226{fill:url(#linear-gradient-209);}.cls-227{fill:url(#linear-gradient-210);}.cls-228{fill:url(#linear-gradient-211);}.cls-229{fill:url(#linear-gradient-212);}.cls-230{fill:url(#linear-gradient-213);}.cls-231{fill:url(#linear-gradient-214);}.cls-232{fill:url(#linear-gradient-215);}.cls-233{clip-path:url(#clip-path-2);}.cls-234{fill:url(#Áåçûìÿííûé_ãðàäèåíò_2-3);}.cls-235{fill:url(#Áåçûìÿííûé_ãðàäèåíò_2-4);}.cls-236{fill:url(#linear-gradient-217);}.cls-237{fill:url(#linear-gradient-218);}.cls-238{opacity:0.5;}.cls-239{clip-path:url(#clip-path-3);}.cls-240{fill:url(#linear-gradient-219);}.cls-241{clip-path:url(#clip-path-4);}.cls-242{fill:url(#linear-gradient-220);}.cls-243{clip-path:url(#clip-path-5);}.cls-244{fill:url(#linear-gradient-221);}.cls-245{clip-path:url(#clip-path-6);}.cls-246{fill:url(#linear-gradient-222);}</style><linearGradient id="linear-gradient" x1="324.26" y1="436.78" x2="324.26" y2="279.94" gradientUnits="userSpaceOnUse"><stop offset="0" stop-color="#194b99"/><stop offset="0.16" stop-color="#206aa8"/><stop offset="0.45" stop-color="#2c9fc3"/><stop offset="0.6" stop-color="#31b4cd"/></linearGradient><linearGradient id="linear-gradient-2" x1="423.25" y1="200.36" x2="423.25" y2="513.74" gradientUnits="userSpaceOnUse"><stop offset="0.48" stop-color="#17479d"/><stop offset="0.56" stop-color="#1950a1"/><stop offset="0.69" stop-color="#1f68ac"/><stop offset="0.86" stop-color="#2890bf"/><stop offset="1" stop-color="#31b7d1"/></linearGradient><linearGradient id="linear-gradient-3" x1="423.25" y1="224.66" x2="423.25" y2="489.44" xlink:href="#linear-gradient-2"/><linearGradient id="linear-gradient-4" x1="423.25" y1="252.89" x2="423.25" y2="461.21" xlink:href="#linear-gradient-2"/><linearGradient id="linear-gradient-5" x1="181.1" y1="291.87" x2="368.6" y2="291.87" gradientUnits="userSpaceOnUse"><stop offset="0.31" stop-color="#e72429"/><stop offset="0.5" stop-color="#eb4626"/><stop offset="0.7" stop-color="#ee6523"/><stop offset="0.88" stop-color="#f07822"/><stop offset="1" stop-color="#f17f21"/></linearGradient><linearGradient id="linear-gradient-6" x1="175.88" y1="279.38" x2="375.24" y2="279.38" gradientUnits="userSpaceOnUse"><stop offset="0" stop-color="#ddf5ff"/><stop offset="0.3" stop-color="#eefaff"/><stop offset="0.66" stop-color="#fbfeff"/><stop offset="1" stop-color="#fff"/></linearGradient><linearGradient id="linear-gradient-7" x1="194.44" y1="319.57" x2="356.71" y2="225.89" gradientUnits="userSpaceOnUse"><stop offset="0" stop-color="#cce0ed"/><stop offset="0.13" stop-color="#d8e7f1"/><stop offset="0.44" stop-color="#eef4f9"/><stop offset="0.73" stop-color="#fbfcfd"/><stop offset="1" stop-color="#fff"/></linearGradient><linearGradient id="linear-gradient-8" x1="175.85" y1="294.18" x2="375.3" y2="294.18" gradientUnits="userSpaceOnUse"><stop offset="0" stop-color="#e72429"/><stop offset="0.15" stop-color="#ea3c27"/><stop offset="0.37" stop-color="#ed5924"/><stop offset="0.58" stop-color="#ef6e22"/><stop offset="0.8" stop-color="#f17b21"/><stop offset="1" stop-color="#f17f21"/></linearGradient><linearGradient id="linear-gradient-9" x1="277.02" y1="263.19" x2="296.05" y2="296.16" gradientUnits="userSpaceOnUse"><stop offset="0" stop-color="#e72429"/><stop offset="0.2" stop-color="#e72829"/><stop offset="0.42" stop-color="#e93528"/><stop offset="0.63" stop-color="#eb4926"/><stop offset="0.85" stop-color="#ee6623"/><stop offset="1" stop-color="#f17f21"/></linearGradient><linearGradient id="linear-gradient-10" x1="216.92" y1="269.28" x2="356.16" y2="269.28" xlink:href="#linear-gradient-8"/><linearGradient id="linear-gradient-11" x1="229.92" y1="257.38" x2="280.98" y2="257.38" xlink:href="#linear-gradient-6"/><linearGradient id="linear-gradient-12" x1="255.45" y1="260.31" x2="255.45" y2="242.64" xlink:href="#linear-gradient-8"/><linearGradient id="linear-gradient-13" x1="2977.64" y1="248.18" x2="3118.81" y2="248.18" gradientTransform="translate(-2743.73)" gradientUnits="userSpaceOnUse"><stop offset="0" stop-color="#b6c5ce"/><stop offset="0.35" stop-color="#dceef9"/><stop offset="1" stop-color="#b6c5ce"/></linearGradient><linearGradient id="linear-gradient-14" x1="233.92" y1="284.38" x2="258.16" y2="284.38" gradientTransform="matrix(1, 0, 0, 1, 0, 0)" xlink:href="#linear-gradient-13"/><linearGradient id="linear-gradient-15" x1="235.83" y1="248.8" x2="376.99" y2="248.8" gradientUnits="userSpaceOnUse"><stop offset="0" stop-color="#194b99"/><stop offset="0.16" stop-color="#1b549d"/><stop offset="0.43" stop-color="#216ca9"/><stop offset="0.76" stop-color="#2a94bd"/><stop offset="1" stop-color="#31b4cd"/></linearGradient><linearGradient id="linear-gradient-16" x1="479.53" y1="291.87" x2="667.04" y2="291.87" xlink:href="#linear-gradient-5"/><linearGradient id="linear-gradient-17" x1="472.89" y1="279.38" x2="672.26" y2="279.38" xlink:href="#linear-gradient-6"/><linearGradient id="linear-gradient-18" x1="653.7" y1="319.57" x2="491.43" y2="225.89" xlink:href="#linear-gradient-7"/><linearGradient id="linear-gradient-19" x1="472.84" y1="294.18" x2="672.29" y2="294.18" xlink:href="#linear-gradient-8"/><linearGradient id="linear-gradient-20" x1="491.98" y1="279.66" x2="631.22" y2="279.66" xlink:href="#linear-gradient-9"/><linearGradient id="linear-gradient-21" x1="491.98" y1="269.28" x2="631.22" y2="269.28" xlink:href="#linear-gradient-8"/><linearGradient id="linear-gradient-22" x1="567.15" y1="257.38" x2="618.21" y2="257.38" xlink:href="#linear-gradient-6"/><linearGradient id="linear-gradient-23" x1="592.68" y1="260.31" x2="592.68" y2="242.64" xlink:href="#linear-gradient-8"/><linearGradient id="linear-gradient-24" x1="233.18" y1="248.18" x2="374.35" y2="248.18" gradientTransform="matrix(-1, 0, 0, 1, 847.4, 0)" xlink:href="#linear-gradient-13"/><linearGradient id="linear-gradient-25" x1="589.98" y1="284.38" x2="614.22" y2="284.38" gradientTransform="matrix(1, 0, 0, 1, 0, 0)" xlink:href="#linear-gradient-13"/><linearGradient id="linear-gradient-26" x1="471.14" y1="248.8" x2="612.3" y2="248.8" xlink:href="#linear-gradient-15"/><linearGradient id="linear-gradient-27" x1="423.36" y1="236.43" x2="423.36" y2="367.81" xlink:href="#linear-gradient-9"/><linearGradient id="linear-gradient-28" x1="516.19" y1="332.84" x2="418.06" y2="389.5" xlink:href="#linear-gradient"/><linearGradient id="linear-gradient-29" x1="369.54" y1="361.12" x2="390.15" y2="361.12" xlink:href="#linear-gradient-5"/><linearGradient id="linear-gradient-30" x1="360.99" y1="351.87" x2="366.58" y2="351.87" xlink:href="#linear-gradient-5"/><linearGradient id="linear-gradient-31" x1="329" y1="335.09" x2="340.43" y2="335.09" xlink:href="#linear-gradient-5"/><linearGradient id="linear-gradient-32" x1="342.59" y1="342.02" x2="350.85" y2="342.02" xlink:href="#linear-gradient-5"/><linearGradient id="linear-gradient-33" x1="353.01" y1="347.26" x2="358.59" y2="347.26" xlink:href="#linear-gradient-5"/><linearGradient id="linear-gradient-34" x1="419.87" y1="268.68" x2="427.09" y2="268.68" xlink:href="#linear-gradient-5"/><linearGradient id="linear-gradient-35" x1="427.09" y1="272.85" x2="434.32" y2="272.85" xlink:href="#linear-gradient-5"/><linearGradient id="linear-gradient-36" x1="434.32" y1="277.03" x2="441.55" y2="277.03" xlink:href="#linear-gradient-5"/><linearGradient id="linear-gradient-37" x1="441.55" y1="281.2" x2="448.77" y2="281.2" xlink:href="#linear-gradient-5"/><linearGradient id="linear-gradient-38" x1="448.77" y1="285.37" x2="456" y2="285.37" xlink:href="#linear-gradient-5"/><linearGradient id="linear-gradient-39" x1="456" y1="289.54" x2="463.22" y2="289.54" xlink:href="#linear-gradient-5"/><linearGradient id="linear-gradient-40" x1="463.22" y1="293.71" x2="470.45" y2="293.71" xlink:href="#linear-gradient-5"/><linearGradient id="linear-gradient-41" x1="470.45" y1="297.89" x2="477.67" y2="297.89" xlink:href="#linear-gradient-5"/><linearGradient id="linear-gradient-42" x1="477.68" y1="302.06" x2="484.9" y2="302.06" xlink:href="#linear-gradient-5"/><linearGradient id="linear-gradient-43" x1="412.61" y1="272.87" x2="419.84" y2="272.87" xlink:href="#linear-gradient-5"/><linearGradient id="linear-gradient-44" x1="419.84" y1="277.04" x2="427.06" y2="277.04" xlink:href="#linear-gradient-5"/><linearGradient id="linear-gradient-45" x1="427.06" y1="281.21" x2="434.29" y2="281.21" xlink:href="#linear-gradient-5"/><linearGradient id="linear-gradient-46" x1="434.29" y1="285.39" x2="441.52" y2="285.39" xlink:href="#linear-gradient-5"/><linearGradient id="linear-gradient-47" x1="441.52" y1="289.56" x2="448.74" y2="289.56" xlink:href="#linear-gradient-5"/><linearGradient id="linear-gradient-48" x1="448.74" y1="293.73" x2="455.97" y2="293.73" xlink:href="#linear-gradient-5"/><linearGradient id="linear-gradient-49" x1="455.97" y1="297.9" x2="463.19" y2="297.9" xlink:href="#linear-gradient-5"/><linearGradient id="linear-gradient-50" x1="463.19" y1="302.07" x2="470.42" y2="302.07" xlink:href="#linear-gradient-5"/><linearGradient id="linear-gradient-51" x1="470.42" y1="306.25" x2="477.65" y2="306.25" xlink:href="#linear-gradient-5"/><linearGradient id="linear-gradient-52" x1="405.36" y1="277.06" x2="412.58" y2="277.06" xlink:href="#linear-gradient-5"/><linearGradient id="linear-gradient-53" x1="412.58" y1="281.23" x2="419.81" y2="281.23" xlink:href="#linear-gradient-5"/><linearGradient id="linear-gradient-54" x1="419.81" y1="285.4" x2="427.04" y2="285.4" xlink:href="#linear-gradient-5"/><linearGradient id="linear-gradient-55" x1="427.04" y1="289.58" x2="434.26" y2="289.58" xlink:href="#linear-gradient-5"/><linearGradient id="linear-gradient-56" x1="434.26" y1="293.75" x2="441.49" y2="293.75" xlink:href="#linear-gradient-5"/><linearGradient id="linear-gradient-57" x1="441.49" y1="297.92" x2="448.71" y2="297.92" xlink:href="#linear-gradient-5"/><linearGradient id="linear-gradient-58" x1="448.71" y1="302.09" x2="455.94" y2="302.09" xlink:href="#linear-gradient-5"/><linearGradient id="linear-gradient-59" x1="455.94" y1="306.26" x2="463.16" y2="306.26" xlink:href="#linear-gradient-5"/><linearGradient id="linear-gradient-60" x1="463.16" y1="310.43" x2="470.39" y2="310.43" xlink:href="#linear-gradient-5"/><linearGradient id="linear-gradient-61" x1="398.1" y1="281.25" x2="405.33" y2="281.25" xlink:href="#linear-gradient-5"/><linearGradient id="linear-gradient-62" x1="405.33" y1="285.42" x2="412.55" y2="285.42" xlink:href="#linear-gradient-5"/><linearGradient id="linear-gradient-63" x1="412.55" y1="289.59" x2="419.78" y2="289.59" xlink:href="#linear-gradient-5"/><linearGradient id="linear-gradient-64" x1="419.78" y1="293.76" x2="427.01" y2="293.76" xlink:href="#linear-gradient-5"/><linearGradient id="linear-gradient-65" x1="427.01" y1="297.94" x2="434.23" y2="297.94" xlink:href="#linear-gradient-5"/><linearGradient id="linear-gradient-66" x1="434.23" y1="302.11" x2="441.46" y2="302.11" xlink:href="#linear-gradient-5"/><linearGradient id="linear-gradient-67" x1="441.46" y1="306.28" x2="448.68" y2="306.28" xlink:href="#linear-gradient-5"/><linearGradient id="linear-gradient-68" x1="448.68" y1="310.45" x2="455.91" y2="310.45" xlink:href="#linear-gradient-5"/><linearGradient id="linear-gradient-69" x1="455.91" y1="314.62" x2="463.14" y2="314.62" xlink:href="#linear-gradient-5"/><linearGradient id="linear-gradient-70" x1="390.85" y1="285.44" x2="398.07" y2="285.44" xlink:href="#linear-gradient-5"/><linearGradient id="linear-gradient-71" x1="398.07" y1="289.61" x2="405.3" y2="289.61" xlink:href="#linear-gradient-5"/><linearGradient id="linear-gradient-72" x1="405.3" y1="293.78" x2="412.52" y2="293.78" xlink:href="#linear-gradient-5"/><linearGradient id="linear-gradient-73" x1="412.53" y1="297.95" x2="419.75" y2="297.95" xlink:href="#linear-gradient-5"/><linearGradient id="linear-gradient-74" x1="419.75" y1="302.12" x2="426.98" y2="302.12" xlink:href="#linear-gradient-5"/><linearGradient id="linear-gradient-75" x1="426.98" y1="306.3" x2="434.2" y2="306.3" xlink:href="#linear-gradient-5"/><linearGradient id="linear-gradient-76" x1="434.2" y1="310.47" x2="441.43" y2="310.47" xlink:href="#linear-gradient-5"/><linearGradient id="linear-gradient-77" x1="441.43" y1="314.64" x2="448.65" y2="314.64" xlink:href="#linear-gradient-5"/><linearGradient id="linear-gradient-78" x1="448.65" y1="318.81" x2="455.88" y2="318.81" xlink:href="#linear-gradient-5"/><linearGradient id="linear-gradient-79" x1="383.59" y1="289.63" x2="390.82" y2="289.63" xlink:href="#linear-gradient-5"/><linearGradient id="linear-gradient-80" x1="390.82" y1="293.8" x2="398.04" y2="293.8" xlink:href="#linear-gradient-5"/><linearGradient id="linear-gradient-81" x1="398.04" y1="297.97" x2="405.27" y2="297.97" xlink:href="#linear-gradient-5"/><linearGradient id="linear-gradient-82" x1="405.27" y1="302.14" x2="412.5" y2="302.14" xlink:href="#linear-gradient-5"/><linearGradient id="linear-gradient-83" x1="412.5" y1="306.31" x2="419.72" y2="306.31" xlink:href="#linear-gradient-5"/><linearGradient id="linear-gradient-84" x1="419.72" y1="310.49" x2="426.95" y2="310.49" xlink:href="#linear-gradient-5"/><linearGradient id="linear-gradient-85" x1="426.95" y1="314.66" x2="434.17" y2="314.66" xlink:href="#linear-gradient-5"/><linearGradient id="linear-gradient-86" x1="434.17" y1="318.83" x2="441.4" y2="318.83" xlink:href="#linear-gradient-5"/><linearGradient id="linear-gradient-87" x1="441.4" y1="323" x2="448.63" y2="323" xlink:href="#linear-gradient-5"/><linearGradient id="linear-gradient-88" x1="376.34" y1="293.81" x2="383.56" y2="293.81" xlink:href="#linear-gradient-5"/><linearGradient id="linear-gradient-89" x1="383.56" y1="297.99" x2="390.79" y2="297.99" xlink:href="#linear-gradient-5"/><linearGradient id="linear-gradient-90" x1="390.79" y1="302.16" x2="398.01" y2="302.16" xlink:href="#linear-gradient-5"/><linearGradient id="linear-gradient-91" x1="398.01" y1="306.33" x2="405.24" y2="306.33" xlink:href="#linear-gradient-5"/><linearGradient id="linear-gradient-92" x1="405.24" y1="310.5" x2="412.47" y2="310.5" xlink:href="#linear-gradient-5"/><linearGradient id="linear-gradient-93" x1="412.47" y1="314.67" x2="419.69" y2="314.67" xlink:href="#linear-gradient-5"/><linearGradient id="linear-gradient-94" x1="419.69" y1="318.85" x2="426.92" y2="318.85" xlink:href="#linear-gradient-5"/><linearGradient id="linear-gradient-95" x1="426.92" y1="323.02" x2="434.14" y2="323.02" xlink:href="#linear-gradient-5"/><linearGradient id="linear-gradient-96" x1="434.14" y1="327.19" x2="441.37" y2="327.19" xlink:href="#linear-gradient-5"/><linearGradient id="linear-gradient-97" x1="369.08" y1="298" x2="376.31" y2="298" xlink:href="#linear-gradient-5"/><linearGradient id="linear-gradient-98" x1="376.31" y1="302.18" x2="383.53" y2="302.18" xlink:href="#linear-gradient-5"/><linearGradient id="linear-gradient-99" x1="383.53" y1="306.35" x2="390.76" y2="306.35" xlink:href="#linear-gradient-5"/><linearGradient id="linear-gradient-100" x1="390.76" y1="310.52" x2="397.99" y2="310.52" xlink:href="#linear-gradient-5"/><linearGradient id="linear-gradient-101" x1="397.99" y1="314.69" x2="405.21" y2="314.69" xlink:href="#linear-gradient-5"/><linearGradient id="linear-gradient-102" x1="405.21" y1="318.86" x2="412.44" y2="318.86" xlink:href="#linear-gradient-5"/><linearGradient id="linear-gradient-103" x1="412.44" y1="323.03" x2="419.66" y2="323.03" xlink:href="#linear-gradient-5"/><linearGradient id="linear-gradient-104" x1="419.66" y1="327.21" x2="426.89" y2="327.21" xlink:href="#linear-gradient-5"/><linearGradient id="linear-gradient-105" x1="426.89" y1="331.38" x2="434.11" y2="331.38" xlink:href="#linear-gradient-5"/><linearGradient id="linear-gradient-106" x1="361.83" y1="302.19" x2="369.05" y2="302.19" xlink:href="#linear-gradient-5"/><linearGradient id="linear-gradient-107" x1="369.05" y1="306.36" x2="376.28" y2="306.36" xlink:href="#linear-gradient-5"/><linearGradient id="linear-gradient-108" x1="376.28" y1="310.54" x2="383.5" y2="310.54" xlink:href="#linear-gradient-5"/><linearGradient id="linear-gradient-109" x1="383.5" y1="314.71" x2="390.73" y2="314.71" xlink:href="#linear-gradient-5"/><linearGradient id="linear-gradient-110" x1="390.73" y1="318.88" x2="397.96" y2="318.88" xlink:href="#linear-gradient-5"/><linearGradient id="linear-gradient-111" x1="397.96" y1="323.05" x2="405.18" y2="323.05" xlink:href="#linear-gradient-5"/><linearGradient id="linear-gradient-112" x1="405.18" y1="327.22" x2="412.41" y2="327.22" xlink:href="#linear-gradient-5"/><linearGradient id="linear-gradient-113" x1="412.41" y1="331.4" x2="419.63" y2="331.4" xlink:href="#linear-gradient-5"/><linearGradient id="linear-gradient-114" x1="419.63" y1="335.57" x2="426.86" y2="335.57" xlink:href="#linear-gradient-5"/><linearGradient id="linear-gradient-115" x1="423.36" y1="171.96" x2="423.36" y2="303.34" xlink:href="#linear-gradient-9"/><linearGradient id="linear-gradient-116" x1="423.36" y1="285.41" x2="423.36" y2="189.9" xlink:href="#linear-gradient-15"/><linearGradient id="linear-gradient-117" x1="516.19" y1="268.37" x2="418.06" y2="325.02" xlink:href="#linear-gradient"/><linearGradient id="linear-gradient-118" x1="379.85" y1="303.82" x2="379.85" y2="289.47" xlink:href="#linear-gradient-15"/><linearGradient id="linear-gradient-119" x1="363.78" y1="290.24" x2="363.78" y2="284.56" xlink:href="#linear-gradient-15"/><linearGradient id="linear-gradient-120" x1="334.71" y1="275.14" x2="334.71" y2="266.09" xlink:href="#linear-gradient-15"/><linearGradient id="linear-gradient-121" x1="346.72" y1="281.16" x2="346.72" y2="273.93" xlink:href="#linear-gradient-15"/><linearGradient id="linear-gradient-122" x1="355.8" y1="285.63" x2="355.8" y2="279.95" xlink:href="#linear-gradient-15"/><linearGradient id="linear-gradient-123" x1="419.87" y1="204.21" x2="427.09" y2="204.21" xlink:href="#linear-gradient-15"/><linearGradient id="linear-gradient-124" x1="427.09" y1="208.38" x2="434.32" y2="208.38" xlink:href="#linear-gradient-15"/><linearGradient id="linear-gradient-125" x1="434.32" y1="212.56" x2="441.55" y2="212.56" xlink:href="#linear-gradient-15"/><linearGradient id="linear-gradient-126" x1="441.55" y1="216.73" x2="448.77" y2="216.73" xlink:href="#linear-gradient-15"/><linearGradient id="linear-gradient-127" x1="448.77" y1="220.9" x2="456" y2="220.9" xlink:href="#linear-gradient-15"/><linearGradient id="linear-gradient-128" x1="456" y1="225.07" x2="463.22" y2="225.07" xlink:href="#linear-gradient-15"/><linearGradient id="linear-gradient-129" x1="463.22" y1="229.24" x2="470.45" y2="229.24" xlink:href="#linear-gradient-15"/><linearGradient id="linear-gradient-130" x1="470.45" y1="233.41" x2="477.67" y2="233.41" xlink:href="#linear-gradient-15"/><linearGradient id="linear-gradient-131" x1="477.68" y1="237.59" x2="484.9" y2="237.59" xlink:href="#linear-gradient-15"/><linearGradient id="linear-gradient-132" x1="412.61" y1="208.4" x2="419.84" y2="208.4" xlink:href="#linear-gradient-15"/><linearGradient id="linear-gradient-133" x1="419.84" y1="212.57" x2="427.06" y2="212.57" xlink:href="#linear-gradient-15"/><linearGradient id="linear-gradient-134" x1="427.06" y1="216.74" x2="434.29" y2="216.74" xlink:href="#linear-gradient-15"/><linearGradient id="linear-gradient-135" x1="441.52" y1="225.09" x2="448.74" y2="225.09" xlink:href="#linear-gradient-15"/><linearGradient id="linear-gradient-136" x1="448.74" y1="229.26" x2="455.97" y2="229.26" xlink:href="#linear-gradient-15"/><linearGradient id="linear-gradient-137" x1="463.19" y1="237.6" x2="470.42" y2="237.6" xlink:href="#linear-gradient-15"/><linearGradient id="linear-gradient-138" x1="405.36" y1="212.59" x2="412.58" y2="212.59" xlink:href="#linear-gradient-15"/><linearGradient id="linear-gradient-139" x1="419.81" y1="220.93" x2="427.04" y2="220.93" xlink:href="#linear-gradient-15"/><linearGradient id="linear-gradient-140" x1="427.04" y1="225.1" x2="434.26" y2="225.1" xlink:href="#linear-gradient-15"/><linearGradient id="linear-gradient-141" x1="434.26" y1="229.28" x2="441.49" y2="229.28" xlink:href="#linear-gradient-15"/><linearGradient id="linear-gradient-142" x1="441.49" y1="233.45" x2="448.71" y2="233.45" xlink:href="#linear-gradient-15"/><linearGradient id="linear-gradient-143" x1="448.71" y1="237.62" x2="455.94" y2="237.62" xlink:href="#linear-gradient-15"/><linearGradient id="linear-gradient-144" x1="455.94" y1="241.79" x2="463.16" y2="241.79" xlink:href="#linear-gradient-15"/><linearGradient id="linear-gradient-145" x1="463.16" y1="245.96" x2="470.39" y2="245.96" xlink:href="#linear-gradient-15"/><linearGradient id="linear-gradient-146" x1="398.1" y1="216.78" x2="405.33" y2="216.78" xlink:href="#linear-gradient-15"/><linearGradient id="linear-gradient-147" x1="405.33" y1="220.95" x2="412.55" y2="220.95" xlink:href="#linear-gradient-15"/><linearGradient id="linear-gradient-148" x1="412.55" y1="225.12" x2="419.78" y2="225.12" xlink:href="#linear-gradient-15"/><linearGradient id="linear-gradient-149" x1="419.78" y1="229.29" x2="427.01" y2="229.29" xlink:href="#linear-gradient-15"/><linearGradient id="linear-gradient-150" x1="427.01" y1="233.47" x2="434.23" y2="233.47" xlink:href="#linear-gradient-15"/><linearGradient id="linear-gradient-151" x1="441.46" y1="241.81" x2="448.68" y2="241.81" xlink:href="#linear-gradient-15"/><linearGradient id="linear-gradient-152" x1="448.68" y1="245.98" x2="455.91" y2="245.98" xlink:href="#linear-gradient-15"/><linearGradient id="linear-gradient-153" x1="455.91" y1="250.15" x2="463.14" y2="250.15" xlink:href="#linear-gradient-15"/><linearGradient id="linear-gradient-154" x1="398.07" y1="225.14" x2="405.3" y2="225.14" xlink:href="#linear-gradient-15"/><linearGradient id="linear-gradient-155" x1="405.3" y1="229.31" x2="412.52" y2="229.31" xlink:href="#linear-gradient-15"/><linearGradient id="linear-gradient-156" x1="412.53" y1="233.48" x2="419.75" y2="233.48" xlink:href="#linear-gradient-15"/><linearGradient id="linear-gradient-157" x1="434.2" y1="246" x2="441.43" y2="246" xlink:href="#linear-gradient-15"/><linearGradient id="linear-gradient-158" x1="441.43" y1="250.17" x2="448.65" y2="250.17" xlink:href="#linear-gradient-15"/><linearGradient id="linear-gradient-159" x1="448.65" y1="254.34" x2="455.88" y2="254.34" xlink:href="#linear-gradient-15"/><linearGradient id="linear-gradient-160" x1="383.59" y1="225.16" x2="390.82" y2="225.16" xlink:href="#linear-gradient-15"/><linearGradient id="linear-gradient-161" x1="390.82" y1="229.33" x2="398.04" y2="229.33" xlink:href="#linear-gradient-15"/><linearGradient id="linear-gradient-162" x1="398.04" y1="233.5" x2="405.27" y2="233.5" xlink:href="#linear-gradient-15"/><linearGradient id="linear-gradient-163" x1="412.5" y1="241.84" x2="419.72" y2="241.84" xlink:href="#linear-gradient-15"/><linearGradient id="linear-gradient-164" x1="419.72" y1="246.01" x2="426.95" y2="246.01" xlink:href="#linear-gradient-15"/><linearGradient id="linear-gradient-165" x1="426.95" y1="250.19" x2="434.17" y2="250.19" xlink:href="#linear-gradient-15"/><linearGradient id="linear-gradient-166" x1="441.4" y1="258.53" x2="448.63" y2="258.53" xlink:href="#linear-gradient-15"/><linearGradient id="linear-gradient-167" x1="376.34" y1="229.34" x2="383.56" y2="229.34" xlink:href="#linear-gradient-15"/><linearGradient id="linear-gradient-168" x1="383.56" y1="233.52" x2="390.79" y2="233.52" xlink:href="#linear-gradient-15"/><linearGradient id="linear-gradient-169" x1="390.79" y1="237.69" x2="398.01" y2="237.69" xlink:href="#linear-gradient-15"/><linearGradient id="linear-gradient-170" x1="398.01" y1="241.86" x2="405.24" y2="241.86" xlink:href="#linear-gradient-15"/><linearGradient id="linear-gradient-171" x1="405.24" y1="246.03" x2="412.47" y2="246.03" xlink:href="#linear-gradient-15"/><linearGradient id="linear-gradient-172" x1="412.47" y1="250.2" x2="419.69" y2="250.2" xlink:href="#linear-gradient-15"/><linearGradient id="linear-gradient-173" x1="419.69" y1="254.38" x2="426.92" y2="254.38" xlink:href="#linear-gradient-15"/><linearGradient id="linear-gradient-174" x1="426.92" y1="258.55" x2="434.14" y2="258.55" xlink:href="#linear-gradient-15"/><linearGradient id="linear-gradient-175" x1="434.14" y1="262.72" x2="441.37" y2="262.72" xlink:href="#linear-gradient-15"/><linearGradient id="linear-gradient-176" x1="369.08" y1="233.53" x2="376.31" y2="233.53" xlink:href="#linear-gradient-15"/><linearGradient id="linear-gradient-177" x1="376.31" y1="237.7" x2="383.53" y2="237.7" xlink:href="#linear-gradient-15"/><linearGradient id="linear-gradient-178" x1="383.53" y1="241.88" x2="390.76" y2="241.88" xlink:href="#linear-gradient-15"/><linearGradient id="linear-gradient-179" x1="390.76" y1="246.05" x2="397.99" y2="246.05" xlink:href="#linear-gradient-15"/><linearGradient id="linear-gradient-180" x1="397.99" y1="250.22" x2="405.21" y2="250.22" xlink:href="#linear-gradient-15"/><linearGradient id="linear-gradient-181" x1="405.21" y1="254.39" x2="412.44" y2="254.39" xlink:href="#linear-gradient-15"/><linearGradient id="linear-gradient-182" x1="412.44" y1="258.56" x2="419.66" y2="258.56" xlink:href="#linear-gradient-15"/><linearGradient id="linear-gradient-183" x1="419.66" y1="262.74" x2="426.89" y2="262.74" xlink:href="#linear-gradient-15"/><linearGradient id="linear-gradient-184" x1="426.89" y1="266.91" x2="434.11" y2="266.91" xlink:href="#linear-gradient-15"/><linearGradient id="linear-gradient-185" x1="361.83" y1="237.72" x2="369.05" y2="237.72" xlink:href="#linear-gradient-15"/><linearGradient id="linear-gradient-186" x1="369.05" y1="241.89" x2="376.28" y2="241.89" xlink:href="#linear-gradient-15"/><linearGradient id="linear-gradient-187" x1="383.5" y1="250.24" x2="390.73" y2="250.24" xlink:href="#linear-gradient-15"/><linearGradient id="linear-gradient-188" x1="390.73" y1="254.41" x2="397.96" y2="254.41" xlink:href="#linear-gradient-15"/><linearGradient id="linear-gradient-189" x1="397.96" y1="258.58" x2="405.18" y2="258.58" xlink:href="#linear-gradient-15"/><linearGradient id="linear-gradient-190" x1="405.18" y1="262.75" x2="412.41" y2="262.75" xlink:href="#linear-gradient-15"/><linearGradient id="linear-gradient-191" x1="419.63" y1="271.1" x2="426.86" y2="271.1" xlink:href="#linear-gradient-15"/><linearGradient id="linear-gradient-192" x1="474.67" y1="448.73" x2="665.46" y2="448.73" xlink:href="#linear-gradient-5"/><linearGradient id="linear-gradient-193" x1="450.1" y1="357.76" x2="593.75" y2="357.76" gradientTransform="matrix(1, 0, 0, 1, 0, 0)" xlink:href="#linear-gradient-13"/><linearGradient id="linear-gradient-194" x1="450.1" y1="394.6" x2="474.77" y2="394.6" gradientTransform="matrix(1, 0, 0, 1, 0, 0)" xlink:href="#linear-gradient-13"/><linearGradient id="linear-gradient-195" x1="455.85" y1="357.36" x2="590.5" y2="357.36" xlink:href="#linear-gradient-9"/><linearGradient id="linear-gradient-196" x1="488.8" y1="480.01" x2="654.52" y2="384.34" gradientTransform="matrix(1, 0, 0, 1, 0, 0)" xlink:href="#linear-gradient-13"/><linearGradient id="linear-gradient-197" x1="584.99" y1="421.06" x2="693.33" y2="358.51" xlink:href="#linear-gradient-7"/><linearGradient id="linear-gradient-198" x1="469.31" y1="451.08" x2="672.29" y2="451.08" xlink:href="#linear-gradient-8"/><linearGradient id="linear-gradient-199" x1="498.24" y1="458.19" x2="621.15" y2="387.23" xlink:href="#linear-gradient-9"/><linearGradient id="linear-gradient-200" x1="559.7" y1="381.67" x2="559.7" y2="442.59" xlink:href="#linear-gradient-8"/><linearGradient id="linear-gradient-201" x1="623.86" y1="440.78" x2="571.89" y2="440.78" xlink:href="#linear-gradient-7"/><linearGradient id="linear-gradient-202" x1="597.87" y1="425.78" x2="597.87" y2="443.75" xlink:href="#linear-gradient-8"/><clipPath id="clip-path" transform="translate(-0.7 -1)"><polygon id="SVGID" class="cls-1" points="576.42 279.94 456.55 349.15 471.42 436.78 591.2 367.62 576.42 279.94"/></clipPath><linearGradient id="Áåçûìÿííûé_ãðàäèåíò_2" x1="2738.65" y1="384.26" x2="2941.65" y2="384.26" gradientTransform="translate(-2278.69)" gradientUnits="userSpaceOnUse"><stop offset="0" stop-color="#c0bff6"/><stop offset="0.29" stop-color="#c5c4f7"/><stop offset="0.64" stop-color="#d3d2f9"/><stop offset="1" stop-color="#e9e9fd"/></linearGradient><linearGradient id="Áåçûìÿííûé_ãðàäèåíò_2-2" x1="2725.29" y1="369.36" x2="2777.25" y2="369.36" xlink:href="#Áåçûìÿííûé_ãðàäèåíò_2"/><linearGradient id="linear-gradient-203" x1="446.61" y1="363.34" x2="498.55" y2="363.34" xlink:href="#linear-gradient-8"/><linearGradient id="linear-gradient-204" x1="434.89" y1="379.88" x2="576.59" y2="379.88" xlink:href="#linear-gradient-8"/><linearGradient id="linear-gradient-205" x1="182.45" y1="448.66" x2="373.69" y2="448.66" xlink:href="#linear-gradient-5"/><linearGradient id="linear-gradient-206" x1="254.38" y1="357.76" x2="398.04" y2="357.76" gradientTransform="matrix(1, 0, 0, 1, 0, 0)" xlink:href="#linear-gradient-13"/><linearGradient id="linear-gradient-207" x1="373.37" y1="394.6" x2="398.04" y2="394.6" gradientTransform="matrix(1, 0, 0, 1, 0, 0)" xlink:href="#linear-gradient-13"/><linearGradient id="linear-gradient-208" x1="396.85" y1="399.7" x2="250.18" y2="315.03" xlink:href="#linear-gradient-9"/><linearGradient id="linear-gradient-209" x1="359.34" y1="480.01" x2="193.62" y2="384.34" gradientTransform="matrix(1, 0, 0, 1, 0, 0)" xlink:href="#linear-gradient-13"/><linearGradient id="linear-gradient-210" x1="288.23" y1="435.54" x2="123.09" y2="340.2" xlink:href="#linear-gradient-7"/><linearGradient id="linear-gradient-211" x1="175.85" y1="451.08" x2="378.82" y2="451.08" xlink:href="#linear-gradient-8"/><linearGradient id="linear-gradient-212" x1="349.89" y1="458.19" x2="226.98" y2="387.23" xlink:href="#linear-gradient-9"/><linearGradient id="linear-gradient-213" x1="288.44" y1="381.67" x2="288.44" y2="442.59" xlink:href="#linear-gradient-8"/><linearGradient id="linear-gradient-214" x1="224.28" y1="440.78" x2="276.24" y2="440.78" xlink:href="#linear-gradient-7"/><linearGradient id="linear-gradient-215" x1="224.29" y1="434.76" x2="276.23" y2="434.76" xlink:href="#linear-gradient-8"/><clipPath id="clip-path-2" transform="translate(-0.7 -1)"><polygon id="SVGID-2" data-name="SVGID" class="cls-2" points="271.72 279.94 391.59 349.15 376.72 436.78 256.93 367.62 271.72 279.94"/></clipPath><linearGradient id="Áåçûìÿííûé_ãðàäèåíò_2-3" x1="-5.81" y1="384.26" x2="197.19" y2="384.26" gradientTransform="matrix(-1, 0, 0, 1, 382.37, 0)" xlink:href="#Áåçûìÿííûé_ãðàäèåíò_2"/><linearGradient id="Áåçûìÿííûé_ãðàäèåíò_2-4" x1="-19.17" y1="369.36" x2="32.79" y2="369.36" gradientTransform="matrix(-1, 0, 0, 1, 382.37, 0)" xlink:href="#Áåçûìÿííûé_ãðàäèåíò_2"/><linearGradient id="linear-gradient-217" x1="349.59" y1="363.34" x2="401.53" y2="363.34" xlink:href="#linear-gradient-8"/><linearGradient id="linear-gradient-218" x1="271.54" y1="379.88" x2="413.25" y2="379.88" xlink:href="#linear-gradient-8"/><clipPath id="clip-path-3" transform="translate(-0.7 -1)"><ellipse id="Mask" class="cls-1" cx="394.46" cy="83.34" rx="66.66" ry="32.62" transform="translate(-8.57 93.7) rotate(-13.4)"/></clipPath><linearGradient id="linear-gradient-219" x1="152.43" y1="92.83" x2="133.47" y2="124.91" gradientTransform="matrix(-1, 0, 0, 1, 551.66, -1)" xlink:href="#linear-gradient-15"/><clipPath id="clip-path-4" transform="translate(-0.7 -1)"><polygon id="Mask-2" data-name="Mask" class="cls-1" points="474.52 52.09 459.79 110.89 353.02 127.69 314.88 96.45 376.26 34.36 474.52 52.09"/></clipPath><linearGradient id="linear-gradient-220" x1="444.61" y1="269.42" x2="290.44" y2="298.07" gradientTransform="translate(184.58 -140.53) scale(0.53 0.74)" xlink:href="#linear-gradient-15"/><clipPath id="clip-path-5" transform="translate(-0.7 -1)"><path id="Mask-3" data-name="Mask" class="cls-1" d="M466.23,165.16s-6.38,26.88-50.15,34.71c-45.1,8.06-56.8-17.77-56.8-17.77-1-5.37-2.46-16.26-3.6-21.07,6.57,5.46,31.09,21.89,70.11,8.45,18.17-6.25,30-20.62,37.25-29.25C464.58,151.8,466.23,165.16,466.23,165.16Z"/></clipPath><linearGradient id="linear-gradient-221" x1="186.93" y1="-301.07" x2="261.49" y2="-393.59" gradientTransform="translate(754.6 -110.44) rotate(-163.45)" gradientUnits="userSpaceOnUse"><stop offset="0" stop-color="#e72429"/><stop offset="0.23" stop-color="#e72829"/><stop offset="0.43" stop-color="#e93328"/><stop offset="0.63" stop-color="#eb4526"/><stop offset="0.82" stop-color="#ed5f24"/><stop offset="1" stop-color="#f17f21"/></linearGradient><clipPath id="clip-path-6" transform="translate(-0.7 -1)"><polygon id="Mask-4" data-name="Mask" class="cls-1" points="387.65 216.65 344.21 184.68 353.39 158.57 452.24 112.81 479.55 144.86 472.56 186.3 387.65 216.65"/></clipPath><linearGradient id="linear-gradient-222" x1="578.6" y1="-571.89" x2="584.45" y2="-539.32" gradientTransform="matrix(0.76, -0.65, -0.65, -0.76, -388.17, 128.84)" xlink:href="#linear-gradient-5"/></defs><title>feature-img</title><g class="cls-3"><g id="Layer_1" data-name="Layer 1"><path id="Ribbon" class="cls-4" d="M628.85,596.11C471.15,496.26,326.82,508,152,570c171-143.81,264.29-348,263.24-568.77L543.4,1C625.35,183,653.23,347.09,628.85,596.11Z" transform="translate(-0.7 -1)"/><path id="Ribbon-2" data-name="Ribbon" class="cls-5" d="M653.26,601C547.44,500,227.1,508,.7,570c221.55-143.81,342.35-348,341-568.77L543.4,1C649.56,183,684.84,352,653.26,601Z" transform="translate(-0.7 -1)"/><g id="Illustration"><g class="cls-6"><polygon class="cls-7" points="423.25 513.75 151.84 357.05 423.24 200.35 694.65 357.05 423.25 513.75"/></g><polygon class="cls-8" points="423.25 489.44 193.94 357.05 423.24 224.66 652.56 357.05 423.25 489.44"/><g class="cls-9"><polygon class="cls-10" points="423.25 461.21 242.84 357.05 423.24 252.89 603.65 357.05 423.25 461.21"/></g><g class="cls-11"><path class="cls-12" d="M251.74,346.94a11,11,0,0,1-5.52-1.48l-63.53-36.67a3.21,3.21,0,0,1,0-5.54l115-66.36a.66.66,0,0,1,.64,0l.53.31L367,276.57a3.2,3.2,0,0,1,0,5.53L257.26,345.46A11,11,0,0,1,251.74,346.94ZM298,238.18,183.33,304.36a1.92,1.92,0,0,0,0,3.32l63.53,36.68a10,10,0,0,0,9.76,0L366.37,281a1.91,1.91,0,0,0,1-1.66,1.88,1.88,0,0,0-1-1.66Z" transform="translate(-0.7 -1)"/></g><path class="cls-13" d="M375.24,258.75l-6.66,3.49-66.87-38.61a4.84,4.84,0,0,0-4.37.18L182,290.4c-1.1-.62-6.13-3-6.13-3l2.44,6.36h0a1.48,1.48,0,0,0,.68.76l70.43,40.66a4.88,4.88,0,0,0,4.36-.18l118-68.14a2.17,2.17,0,0,0,1-1.05h0Z" transform="translate(-0.7 -1)"/><path class="cls-14" d="M374.21,259.85,253.26,329.68a5,5,0,0,1-4.47.19L176.61,288.2c-1.15-.67-1-1.82.32-2.59l121-69.83a5,5,0,0,1,4.48-.19l72.17,41.68C375.68,257.93,375.54,259.08,374.21,259.85Z" transform="translate(-0.7 -1)"/><path class="cls-15" d="M374.21,259.15,253.26,329a5,5,0,0,1-4.47.19L176.61,287.5a1.47,1.47,0,0,1-.7-.78,1.22,1.22,0,0,0,.7,1.48l72.18,41.67a5,5,0,0,0,4.47-.19l121-69.83c.89-.52,1.24-1.2,1-1.8A2.17,2.17,0,0,1,374.21,259.15Z" transform="translate(-0.7 -1)"/><path class="cls-16" d="M216.78,314.58v-1.33c0-.13.07-.18.17-.13l4.68,2.7a.43.43,0,0,1,.17.33v1.32c0,.13-.08.19-.17.13L217,314.9A.38.38,0,0,1,216.78,314.58Z" transform="translate(-0.7 -1)"/><path class="cls-16" d="M223.77,318.61v-1.32c0-.13.08-.19.17-.13l4.68,2.7a.39.39,0,0,1,.17.33v1.32c0,.13-.07.19-.17.13l-4.68-2.7A.41.41,0,0,1,223.77,318.61Z" transform="translate(-0.7 -1)"/><path class="cls-17" d="M217.3,297.67l100.51-58a2.16,2.16,0,0,1,2.17,0l35.79,20.71a.76.76,0,0,1,0,1.33l-100.46,58a2.21,2.21,0,0,1-2.17,0L217.3,299A.78.78,0,0,1,217.3,297.67Z" transform="translate(-0.7 -1)"/><path class="cls-18" d="M217.3,299l.36.2,100.15-57.82a2.16,2.16,0,0,1,2.17,0l35.43,20.5.36-.21a.76.76,0,0,0,0-1.33L320,239.64a2.16,2.16,0,0,0-2.17,0l-100.51,58A.78.78,0,0,0,217.3,299Z" transform="translate(-0.7 -1)"/><polygon class="cls-16" points="321.98 243.88 229.39 297.34 224.8 295.5 318.1 241.64 321.98 243.88"/><polygon class="cls-4" points="331.49 249.38 249.6 296.66 245.72 294.42 327.61 247.14 331.49 249.38"/><polygon class="cls-16" points="337.69 252.96 241.27 308.63 237.39 306.38 333.81 250.72 337.69 252.96"/><polygon class="cls-16" points="343.89 256.54 247.47 312.2 243.59 309.96 340.01 254.29 343.89 256.54"/><polygon class="cls-4" points="350.09 260.12 253.67 315.78 249.79 313.54 346.21 257.87 350.09 260.12"/><polygon class="cls-16" points="229.39 297.34 225.51 299.58 221.63 297.34 225.51 295.1 229.39 297.34"/><polygon class="cls-16" points="254.31 293.94 235.03 305.07 231.15 302.83 250.57 291.62 254.31 293.94"/><path class="cls-19" d="M253.09,271.66,280.19,256a1.17,1.17,0,0,0,0-2.22l-18.54-10.7a4.24,4.24,0,0,0-3.83,0l-27.1,15.65a1.17,1.17,0,0,0,0,2.21l18.53,10.7A4.26,4.26,0,0,0,253.09,271.66Z" transform="translate(-0.7 -1)"/><path class="cls-20" d="M230.72,259.65,257.82,244a4.24,4.24,0,0,1,3.83,0l18.54,10.7a1.65,1.65,0,0,1,.66.65c.28-.53.07-1.14-.66-1.56l-18.54-10.7a4.24,4.24,0,0,0-3.83,0l-27.1,15.65c-.73.42-.95,1-.67,1.56A1.7,1.7,0,0,1,230.72,259.65Z" transform="translate(-0.7 -1)"/><path class="cls-21" d="M375.05,257l-15.29-90.71,1.23-.52-1.85-1.06h0a1.34,1.34,0,0,0-1.43.1L235.53,235.33a3.43,3.43,0,0,0-1.59,3.1l15.41,91.44a1.16,1.16,0,0,0,.65.93h0l1.81,1,.31-1.69-.1,0,121.45-70.13A3.42,3.42,0,0,0,375.05,257Z" transform="translate(-0.7 -1)"/><path class="cls-22" d="M236.21,237.81l-2-.89a2.71,2.71,0,0,0-.26,1.51l15.41,91.44a1.16,1.16,0,0,0,.65.93h0l1.81,1,.31-1.69-.1,0,6.15-3.55Z" transform="translate(-0.7 -1)"/><path class="cls-23" d="M375.38,261.16,253.19,331.71c-.95.55-1.76.23-1.92-.74l-15.41-91.44a3.44,3.44,0,0,1,1.58-3.1l122.2-70.55c.94-.54,1.75-.23,1.92.75L377,258.06A3.45,3.45,0,0,1,375.38,261.16Z" transform="translate(-0.7 -1)"/><g class="cls-11"><path class="cls-24" d="M596.4,346.94a11,11,0,0,1-5.52-1.48L481.13,282.1a3.19,3.19,0,0,1,0-5.53l68.73-39.68a.66.66,0,0,1,.64,0l114.94,66.36a3.2,3.2,0,0,1,0,5.54l-63.53,36.67A11,11,0,0,1,596.4,346.94ZM550.18,238.18l-.22.12-68.19,39.38a1.88,1.88,0,0,0-1,1.66,1.91,1.91,0,0,0,1,1.66l109.75,63.36h0a10,10,0,0,0,9.75,0l63.53-36.68a1.92,1.92,0,0,0,0-3.32Z" transform="translate(-0.7 -1)"/></g><path class="cls-25" d="M472.89,258.75l6.67,3.49,66.87-38.61a4.82,4.82,0,0,1,4.36.18L666.12,290.4c1.11-.62,6.14-3,6.14-3l-2.44,6.36h0a1.46,1.46,0,0,1-.69.76L598.7,335.13a4.9,4.9,0,0,1-4.37-.18l-118-68.14a2.12,2.12,0,0,1-1-1.05h0Z" transform="translate(-0.7 -1)"/><path class="cls-26" d="M473.92,259.85l121,69.83a5,5,0,0,0,4.47.19l72.18-41.67c1.14-.67,1-1.82-.32-2.59l-121-69.83a5,5,0,0,0-4.47-.19L473.6,257.27C472.46,257.93,472.6,259.08,473.92,259.85Z" transform="translate(-0.7 -1)"/><path class="cls-27" d="M473.92,259.15l121,69.83a5,5,0,0,0,4.47.19l72.18-41.67a1.56,1.56,0,0,0,.7-.78,1.23,1.23,0,0,1-.7,1.48l-72.18,41.67a5,5,0,0,1-4.47-.19l-121-69.83c-.89-.52-1.23-1.2-1-1.8A2.15,2.15,0,0,0,473.92,259.15Z" transform="translate(-0.7 -1)"/><path class="cls-16" d="M631.36,314.58v-1.33c0-.13-.08-.18-.17-.13l-4.68,2.7a.43.43,0,0,0-.17.33v1.32c0,.13.08.19.17.13l4.68-2.7A.41.41,0,0,0,631.36,314.58Z" transform="translate(-0.7 -1)"/><path class="cls-16" d="M624.36,318.61v-1.32c0-.13-.07-.19-.17-.13l-4.68,2.7a.41.41,0,0,0-.17.33v1.32c0,.13.08.19.17.13l4.68-2.7A.39.39,0,0,0,624.36,318.61Z" transform="translate(-0.7 -1)"/><path class="cls-28" d="M630.83,297.67l-100.51-58a2.14,2.14,0,0,0-2.16,0l-35.8,20.71a.77.77,0,0,0,0,1.33l100.47,58a2.19,2.19,0,0,0,2.16,0L630.83,299A.77.77,0,0,0,630.83,297.67Z" transform="translate(-0.7 -1)"/><path class="cls-29" d="M630.83,299l-.36.2L530.32,241.39a2.14,2.14,0,0,0-2.16,0l-35.44,20.5-.36-.21a.77.77,0,0,1,0-1.33l35.8-20.71a2.14,2.14,0,0,1,2.16,0l100.51,58A.77.77,0,0,1,630.83,299Z" transform="translate(-0.7 -1)"/><polygon class="cls-16" points="524.75 243.88 617.34 297.34 621.92 295.5 528.63 241.64 524.75 243.88"/><polygon class="cls-4" points="515.23 249.38 597.13 296.66 601.01 294.42 519.12 247.14 515.23 249.38"/><polygon class="cls-16" points="509.04 252.96 605.45 308.63 609.34 306.38 512.92 250.72 509.04 252.96"/><polygon class="cls-16" points="502.84 256.54 599.25 312.2 603.14 309.96 506.72 254.29 502.84 256.54"/><polygon class="cls-4" points="496.64 260.12 593.06 315.78 596.94 313.54 500.52 257.87 496.64 260.12"/><polygon class="cls-16" points="617.34 297.34 621.22 299.58 625.1 297.34 621.22 295.1 617.34 297.34"/><polygon class="cls-16" points="592.42 293.94 611.7 305.07 615.58 302.83 596.16 291.62 592.42 293.94"/><path class="cls-30" d="M595.05,271.66,568,256a1.17,1.17,0,0,1,0-2.22l18.53-10.7a4.26,4.26,0,0,1,3.84,0l27.1,15.65a1.17,1.17,0,0,1,0,2.21l-18.53,10.7A4.26,4.26,0,0,1,595.05,271.66Z" transform="translate(-0.7 -1)"/><path class="cls-31" d="M617.42,259.65,590.32,244a4.26,4.26,0,0,0-3.84,0L568,254.71a1.68,1.68,0,0,0-.67.65c-.28-.53-.06-1.14.67-1.56l18.53-10.7a4.26,4.26,0,0,1,3.84,0l27.1,15.65c.73.42.94,1,.66,1.56A1.6,1.6,0,0,0,617.42,259.65Z" transform="translate(-0.7 -1)"/><path class="cls-32" d="M473.08,257l15.29-90.71-1.23-.52,1.85-1.06h0a1.33,1.33,0,0,1,1.42.1l122.2,70.55a3.45,3.45,0,0,1,1.58,3.1l-15.41,91.44a1.15,1.15,0,0,1-.64.93h0l-1.81,1-.31-1.69.11,0L474.67,260.06A3.47,3.47,0,0,1,473.08,257Z" transform="translate(-0.7 -1)"/><path class="cls-33" d="M611.93,237.81l2-.89a2.79,2.79,0,0,1,.25,1.51l-15.41,91.44a1.15,1.15,0,0,1-.64.93h0l-1.81,1-.31-1.69.11,0L590,326.64Z" transform="translate(-0.7 -1)"/><path class="cls-34" d="M472.75,261.16,595,331.71c.94.55,1.75.23,1.92-.74l15.41-91.44a3.47,3.47,0,0,0-1.59-3.1L488.5,165.88c-.95-.54-1.76-.23-1.92.75l-15.41,91.43A3.44,3.44,0,0,0,472.75,261.16Z" transform="translate(-0.7 -1)"/><polygon class="cls-35" points="423.37 367.81 309.59 302.12 423.36 236.44 537.14 302.13 423.37 367.81"/><polygon class="cls-16" points="423.37 349.88 340.65 302.12 423.36 254.37 506.07 302.13 423.37 349.88"/><polygon class="cls-5" points="423.36 257.61 503.27 303.74 506.07 302.13 423.36 254.37 340.65 302.12 343.45 303.74 423.36 257.61"/><polygon class="cls-36" points="537.14 302.13 537.14 339.36 423.37 405.05 423.37 367.81 537.14 302.13"/><polygon class="cls-4" points="309.59 302.12 309.59 339.36 423.37 405.05 423.37 367.81 309.59 302.12"/><g class="cls-37"><polygon class="cls-38" points="317.29 318.85 317.29 330.58 415.66 387.37 415.66 375.64 317.29 318.85"/></g><polygon class="cls-5" points="423.37 365.68 311.43 301.06 309.59 302.12 423.37 367.81 537.14 302.13 535.29 301.06 423.37 365.68"/><polygon class="cls-39" points="520.08 328.22 520.08 334.88 440.43 380.87 440.43 374.2 520.08 328.22"/><polygon class="cls-4" points="309.59 302.12 309.59 339.36 423.37 405.05 423.37 367.81 309.59 302.12"/><polygon class="cls-40" points="390.15 365.84 369.55 353.94 369.55 356.4 390.15 368.29 390.15 365.84"/><polygon class="cls-41" points="366.58 352.25 361 349.03 360.99 351.48 366.57 354.71 366.58 352.25"/><polygon class="cls-42" points="340.43 337.15 329 330.56 329 333.02 340.42 339.61 340.43 337.15"/><polygon class="cls-43" points="350.85 343.17 342.59 338.4 342.59 340.86 350.85 345.63 350.85 343.17"/><polygon class="cls-44" points="358.59 347.64 353.01 344.42 353.01 346.88 358.59 350.1 358.59 347.64"/><polygon class="cls-45" points="423.48 270.77 419.87 268.68 423.48 266.6 427.09 268.68 423.48 270.77"/><polygon class="cls-46" points="430.71 274.94 427.09 272.85 430.71 270.77 434.32 272.85 430.71 274.94"/><polygon class="cls-47" points="437.93 279.11 434.32 277.03 437.93 274.94 441.55 277.03 437.93 279.11"/><polygon class="cls-48" points="445.16 283.28 441.55 281.2 445.16 279.11 448.77 281.2 445.16 283.28"/><polygon class="cls-49" points="452.38 287.45 448.77 285.37 452.38 283.28 456 285.37 452.38 287.45"/><polygon class="cls-50" points="459.61 291.63 456 289.54 459.61 287.45 463.22 289.54 459.61 291.63"/><polygon class="cls-51" points="466.84 295.8 463.22 293.71 466.84 291.63 470.45 293.71 466.84 295.8"/><polygon class="cls-52" points="474.06 299.97 470.45 297.88 474.06 295.8 477.68 297.88 474.06 299.97"/><polygon class="cls-53" points="481.29 304.14 477.68 302.06 481.29 299.97 484.9 302.06 481.29 304.14"/><polygon class="cls-54" points="416.23 274.96 412.61 272.87 416.23 270.79 419.84 272.87 416.23 274.96"/><polygon class="cls-55" points="423.45 279.13 419.84 277.04 423.45 274.96 427.06 277.04 423.45 279.13"/><polygon class="cls-56" points="430.68 283.3 427.06 281.21 430.68 279.13 434.29 281.21 430.68 283.3"/><polygon class="cls-57" points="437.9 287.47 434.29 285.39 437.9 283.3 441.52 285.39 437.9 287.47"/><polygon class="cls-58" points="445.13 291.64 441.52 289.56 445.13 287.47 448.74 289.56 445.13 291.64"/><polygon class="cls-59" points="452.36 295.82 448.74 293.73 452.36 291.64 455.97 293.73 452.36 295.82"/><polygon class="cls-60" points="459.58 299.99 455.97 297.9 459.58 295.82 463.19 297.9 459.58 299.99"/><polygon class="cls-61" points="466.81 304.16 463.19 302.07 466.81 299.99 470.42 302.07 466.81 304.16"/><polygon class="cls-62" points="474.03 308.33 470.42 306.25 474.03 304.16 477.65 306.25 474.03 308.33"/><polygon class="cls-63" points="408.97 279.14 405.36 277.06 408.97 274.97 412.58 277.06 408.97 279.14"/><polygon class="cls-64" points="416.2 283.32 412.58 281.23 416.2 279.14 419.81 281.23 416.2 283.32"/><polygon class="cls-65" points="423.42 287.49 419.81 285.4 423.42 283.32 427.04 285.4 423.42 287.49"/><polygon class="cls-66" points="430.65 291.66 427.04 289.57 430.65 287.49 434.26 289.57 430.65 291.66"/><polygon class="cls-67" points="437.87 295.83 434.26 293.75 437.87 291.66 441.49 293.75 437.87 295.83"/><polygon class="cls-68" points="445.1 300 441.49 297.92 445.1 295.83 448.71 297.92 445.1 300"/><polygon class="cls-69" points="452.33 304.18 448.71 302.09 452.33 300 455.94 302.09 452.33 304.18"/><polygon class="cls-70" points="459.55 308.35 455.94 306.26 459.55 304.18 463.17 306.26 459.55 308.35"/><polygon class="cls-71" points="466.78 312.52 463.17 310.43 466.78 308.35 470.39 310.43 466.78 312.52"/><polygon class="cls-72" points="401.71 283.33 398.1 281.25 401.71 279.16 405.33 281.25 401.71 283.33"/><polygon class="cls-73" points="408.94 287.51 405.33 285.42 408.94 283.33 412.55 285.42 408.94 287.51"/><polygon class="cls-74" points="416.17 291.68 412.55 289.59 416.17 287.51 419.78 289.59 416.17 291.68"/><polygon class="cls-75" points="423.39 295.85 419.78 293.76 423.39 291.68 427.01 293.76 423.39 295.85"/><polygon class="cls-76" points="430.62 300.02 427.01 297.94 430.62 295.85 434.23 297.94 430.62 300.02"/><polygon class="cls-77" points="437.85 304.19 434.23 302.11 437.85 300.02 441.46 302.11 437.85 304.19"/><polygon class="cls-78" points="445.07 308.37 441.46 306.28 445.07 304.19 448.68 306.28 445.07 308.37"/><polygon class="cls-79" points="452.3 312.54 448.68 310.45 452.3 308.37 455.91 310.45 452.3 312.54"/><polygon class="cls-80" points="459.52 316.71 455.91 314.62 459.52 312.54 463.13 314.62 459.52 316.71"/><polygon class="cls-81" points="394.46 287.52 390.85 285.44 394.46 283.35 398.07 285.44 394.46 287.52"/><polygon class="cls-82" points="401.69 291.69 398.07 289.61 401.69 287.52 405.3 289.61 401.69 291.69"/><polygon class="cls-83" points="408.91 295.87 405.3 293.78 408.91 291.69 412.52 293.78 408.91 295.87"/><polygon class="cls-84" points="416.14 300.04 412.52 297.95 416.14 295.87 419.75 297.95 416.14 300.04"/><polygon class="cls-85" points="423.36 304.21 419.75 302.13 423.36 300.04 426.98 302.13 423.36 304.21"/><polygon class="cls-86" points="430.59 308.38 426.98 306.3 430.59 304.21 434.2 306.3 430.59 308.38"/><polygon class="cls-87" points="437.82 312.55 434.2 310.47 437.82 308.38 441.43 310.47 437.82 312.55"/><polygon class="cls-88" points="445.04 316.73 441.43 314.64 445.04 312.55 448.65 314.64 445.04 316.73"/><polygon class="cls-89" points="452.27 320.9 448.65 318.81 452.27 316.73 455.88 318.81 452.27 320.9"/><polygon class="cls-90" points="387.2 291.71 383.59 289.63 387.2 287.54 390.82 289.63 387.2 291.71"/><polygon class="cls-91" points="394.43 295.88 390.82 293.8 394.43 291.71 398.04 293.8 394.43 295.88"/><polygon class="cls-92" points="401.66 300.06 398.04 297.97 401.66 295.88 405.27 297.97 401.66 300.06"/><polygon class="cls-93" points="408.88 304.23 405.27 302.14 408.88 300.06 412.5 302.14 408.88 304.23"/><polygon class="cls-94" points="416.11 308.4 412.5 306.31 416.11 304.23 419.72 306.31 416.11 308.4"/><polygon class="cls-95" points="423.33 312.57 419.72 310.49 423.33 308.4 426.95 310.49 423.33 312.57"/><polygon class="cls-96" points="430.56 316.74 426.95 314.66 430.56 312.57 434.17 314.66 430.56 316.74"/><polygon class="cls-97" points="437.79 320.92 434.17 318.83 437.79 316.74 441.4 318.83 437.79 320.92"/><polygon class="cls-98" points="445.01 325.09 441.4 323 445.01 320.92 448.63 323 445.01 325.09"/><polygon class="cls-99" points="379.95 295.9 376.34 293.81 379.95 291.73 383.56 293.81 379.95 295.9"/><polygon class="cls-100" points="387.18 300.07 383.56 297.99 387.18 295.9 390.79 297.99 387.18 300.07"/><polygon class="cls-101" points="394.4 304.24 390.79 302.16 394.4 300.07 398.01 302.16 394.4 304.24"/><polygon class="cls-102" points="401.63 308.42 398.01 306.33 401.63 304.24 405.24 306.33 401.63 308.42"/><polygon class="cls-103" points="408.85 312.59 405.24 310.5 408.85 308.42 412.47 310.5 408.85 312.59"/><polygon class="cls-104" points="416.08 316.76 412.47 314.67 416.08 312.59 419.69 314.67 416.08 316.76"/><polygon class="cls-105" points="423.31 320.93 419.69 318.85 423.31 316.76 426.92 318.85 423.31 320.93"/><polygon class="cls-106" points="430.53 325.1 426.92 323.02 430.53 320.93 434.14 323.02 430.53 325.1"/><polygon class="cls-107" points="437.76 329.27 434.14 327.19 437.76 325.1 441.37 327.19 437.76 329.27"/><polygon class="cls-108" points="372.69 300.09 369.08 298 372.69 295.92 376.31 298 372.69 300.09"/><polygon class="cls-109" points="379.92 304.26 376.31 302.18 379.92 300.09 383.53 302.18 379.92 304.26"/><polygon class="cls-110" points="387.15 308.43 383.53 306.35 387.15 304.26 390.76 306.35 387.15 308.43"/><polygon class="cls-111" points="394.37 312.61 390.76 310.52 394.37 308.43 397.99 310.52 394.37 312.61"/><polygon class="cls-112" points="401.6 316.78 397.99 314.69 401.6 312.61 405.21 314.69 401.6 316.78"/><polygon class="cls-113" points="408.82 320.95 405.21 318.86 408.82 316.78 412.44 318.86 408.82 320.95"/><polygon class="cls-114" points="416.05 325.12 412.44 323.03 416.05 320.95 419.66 323.04 416.05 325.12"/><polygon class="cls-115" points="423.28 329.29 419.66 327.21 423.28 325.12 426.89 327.21 423.28 329.29"/><polygon class="cls-116" points="430.5 333.46 426.89 331.38 430.5 329.29 434.12 331.38 430.5 333.46"/><polygon class="cls-117" points="365.44 304.28 361.83 302.19 365.44 300.11 369.05 302.19 365.44 304.28"/><polygon class="cls-118" points="372.67 308.45 369.05 306.36 372.67 304.28 376.28 306.36 372.67 308.45"/><polygon class="cls-119" points="379.89 312.62 376.28 310.54 379.89 308.45 383.5 310.54 379.89 312.62"/><polygon class="cls-120" points="387.12 316.79 383.5 314.71 387.12 312.62 390.73 314.71 387.12 316.79"/><polygon class="cls-121" points="394.34 320.96 390.73 318.88 394.34 316.79 397.96 318.88 394.34 320.96"/><polygon class="cls-122" points="401.57 325.14 397.96 323.05 401.57 320.96 405.18 323.05 401.57 325.14"/><polygon class="cls-123" points="408.8 329.31 405.18 327.22 408.8 325.14 412.41 327.22 408.8 329.31"/><polygon class="cls-124" points="416.02 333.48 412.41 331.39 416.02 329.31 419.63 331.39 416.02 333.48"/><polygon class="cls-125" points="423.25 337.65 419.63 335.57 423.25 333.48 426.86 335.57 423.25 337.65"/><polygon class="cls-126" points="423.37 303.34 309.59 237.65 423.36 171.96 537.14 237.66 423.37 303.34"/><polygon class="cls-127" points="423.37 285.41 340.65 237.65 423.36 189.9 506.07 237.65 423.37 285.41"/><polygon class="cls-5" points="423.36 193.13 503.27 239.27 506.07 237.65 423.36 189.9 340.65 237.65 343.45 239.27 423.36 193.13"/><polygon class="cls-128" points="537.14 237.66 537.14 274.89 423.37 340.58 423.37 303.34 537.14 237.66"/><polygon class="cls-4" points="309.59 237.65 309.59 274.89 423.37 340.58 423.37 303.34 309.59 237.65"/><g class="cls-37"><polygon class="cls-38" points="317.29 254.38 317.29 266.11 415.66 322.9 415.66 311.17 317.29 254.38"/></g><polygon class="cls-5" points="423.37 301.21 311.43 236.59 309.59 237.65 423.37 303.34 537.14 237.66 535.29 236.59 423.37 301.21"/><polygon class="cls-39" points="520.08 263.75 520.08 270.41 440.43 316.39 440.43 309.73 520.08 263.75"/><polygon class="cls-4" points="309.59 237.65 309.59 274.89 423.37 340.58 423.37 303.34 309.59 237.65"/><polygon class="cls-129" points="390.15 301.37 369.55 289.47 369.55 291.93 390.15 303.82 390.15 301.37"/><polygon class="cls-130" points="366.58 287.78 361 284.56 360.99 287.01 366.57 290.24 366.58 287.78"/><polygon class="cls-131" points="340.43 272.68 329 266.09 329 268.55 340.42 275.14 340.43 272.68"/><polygon class="cls-132" points="350.85 278.7 342.59 273.93 342.59 276.39 350.85 281.16 350.85 278.7"/><polygon class="cls-133" points="358.59 283.18 353.01 279.95 353.01 282.41 358.59 285.63 358.59 283.18"/><polygon class="cls-134" points="423.48 206.3 419.87 204.21 423.48 202.13 427.09 204.21 423.48 206.3"/><polygon class="cls-135" points="430.71 210.47 427.09 208.38 430.71 206.3 434.32 208.38 430.71 210.47"/><polygon class="cls-136" points="437.93 214.64 434.32 212.56 437.93 210.47 441.55 212.56 437.93 214.64"/><polygon class="cls-137" points="445.16 218.81 441.55 216.73 445.16 214.64 448.77 216.73 445.16 218.81"/><polygon class="cls-138" points="452.38 222.99 448.77 220.9 452.38 218.81 456 220.9 452.38 222.99"/><polygon class="cls-139" points="459.61 227.16 456 225.07 459.61 222.99 463.22 225.07 459.61 227.16"/><polygon class="cls-140" points="466.84 231.33 463.22 229.24 466.84 227.16 470.45 229.24 466.84 231.33"/><polygon class="cls-141" points="474.06 235.5 470.45 233.41 474.06 231.33 477.68 233.41 474.06 235.5"/><polygon class="cls-142" points="481.29 239.67 477.68 237.59 481.29 235.5 484.9 237.59 481.29 239.67"/><polygon class="cls-143" points="416.23 210.49 412.61 208.4 416.23 206.31 419.84 208.4 416.23 210.49"/><polygon class="cls-144" points="423.45 214.66 419.84 212.57 423.45 210.49 427.06 212.57 423.45 214.66"/><polygon class="cls-145" points="430.68 218.83 427.06 216.74 430.68 214.66 434.29 216.74 430.68 218.83"/><polygon class="cls-39" points="437.9 223 434.29 220.92 437.9 218.83 441.52 220.92 437.9 223"/><polygon class="cls-146" points="445.13 227.17 441.52 225.09 445.13 223 448.74 225.09 445.13 227.17"/><polygon class="cls-147" points="452.36 231.34 448.74 229.26 452.36 227.17 455.97 229.26 452.36 231.34"/><polygon class="cls-39" points="459.58 235.52 455.97 233.43 459.58 231.34 463.19 233.43 459.58 235.52"/><polygon class="cls-148" points="466.81 239.69 463.19 237.6 466.81 235.52 470.42 237.6 466.81 239.69"/><polygon class="cls-39" points="474.03 243.86 470.42 241.78 474.03 239.69 477.65 241.78 474.03 243.86"/><polygon class="cls-149" points="408.97 214.68 405.36 212.59 408.97 210.5 412.58 212.59 408.97 214.68"/><polygon class="cls-39" points="416.2 218.85 412.58 216.76 416.2 214.68 419.81 216.76 416.2 218.85"/><polygon class="cls-150" points="423.42 223.02 419.81 220.93 423.42 218.85 427.04 220.93 423.42 223.02"/><polygon class="cls-151" points="430.65 227.19 427.04 225.1 430.65 223.02 434.26 225.1 430.65 227.19"/><polygon class="cls-152" points="437.87 231.36 434.26 229.28 437.87 227.19 441.49 229.28 437.87 231.36"/><polygon class="cls-153" points="445.1 235.53 441.49 233.45 445.1 231.36 448.71 233.45 445.1 235.53"/><polygon class="cls-154" points="452.33 239.71 448.71 237.62 452.33 235.53 455.94 237.62 452.33 239.71"/><polygon class="cls-155" points="459.55 243.88 455.94 241.79 459.55 239.71 463.17 241.79 459.55 243.88"/><polygon class="cls-156" points="466.78 248.05 463.17 245.96 466.78 243.88 470.39 245.96 466.78 248.05"/><polygon class="cls-157" points="401.71 218.86 398.1 216.78 401.71 214.69 405.33 216.78 401.71 218.86"/><polygon class="cls-158" points="408.94 223.03 405.33 220.95 408.94 218.86 412.55 220.95 408.94 223.03"/><polygon class="cls-159" points="416.17 227.21 412.55 225.12 416.17 223.03 419.78 225.12 416.17 227.21"/><polygon class="cls-160" points="423.39 231.38 419.78 229.29 423.39 227.21 427.01 229.29 423.39 231.38"/><polygon class="cls-161" points="430.62 235.55 427.01 233.47 430.62 231.38 434.23 233.47 430.62 235.55"/><polygon class="cls-39" points="437.85 239.72 434.23 237.64 437.85 235.55 441.46 237.64 437.85 239.72"/><polygon class="cls-162" points="445.07 243.9 441.46 241.81 445.07 239.72 448.68 241.81 445.07 243.9"/><polygon class="cls-163" points="452.3 248.07 448.68 245.98 452.3 243.9 455.91 245.98 452.3 248.07"/><polygon class="cls-164" points="459.52 252.24 455.91 250.15 459.52 248.07 463.13 250.15 459.52 252.24"/><polygon class="cls-39" points="394.46 223.05 390.85 220.97 394.46 218.88 398.07 220.97 394.46 223.05"/><polygon class="cls-165" points="401.69 227.22 398.07 225.14 401.69 223.05 405.3 225.14 401.69 227.22"/><polygon class="cls-166" points="408.91 231.4 405.3 229.31 408.91 227.22 412.52 229.31 408.91 231.4"/><polygon class="cls-167" points="416.14 235.57 412.52 233.48 416.14 231.4 419.75 233.48 416.14 235.57"/><polygon class="cls-39" points="423.36 239.74 419.75 237.65 423.36 235.57 426.98 237.65 423.36 239.74"/><polygon class="cls-39" points="430.59 243.91 426.98 241.83 430.59 239.74 434.2 241.83 430.59 243.91"/><polygon class="cls-168" points="437.82 248.08 434.2 246 437.82 243.91 441.43 246 437.82 248.08"/><polygon class="cls-169" points="445.04 252.25 441.43 250.17 445.04 248.08 448.65 250.17 445.04 252.25"/><polygon class="cls-170" points="452.27 256.43 448.65 254.34 452.27 252.25 455.88 254.34 452.27 256.43"/><polygon class="cls-171" points="387.2 227.24 383.59 225.16 387.2 223.07 390.82 225.16 387.2 227.24"/><polygon class="cls-172" points="394.43 231.41 390.82 229.33 394.43 227.24 398.04 229.33 394.43 231.41"/><polygon class="cls-173" points="401.66 235.59 398.04 233.5 401.66 231.41 405.27 233.5 401.66 235.59"/><polygon class="cls-39" points="408.88 239.76 405.27 237.67 408.88 235.59 412.5 237.67 408.88 239.76"/><polygon class="cls-174" points="416.11 243.93 412.5 241.84 416.11 239.76 419.72 241.84 416.11 243.93"/><polygon class="cls-175" points="423.33 248.1 419.72 246.01 423.33 243.93 426.95 246.01 423.33 248.1"/><polygon class="cls-176" points="430.56 252.27 426.95 250.19 430.56 248.1 434.17 250.19 430.56 252.27"/><polygon class="cls-39" points="437.79 256.44 434.17 254.36 437.79 252.27 441.4 254.36 437.79 256.44"/><polygon class="cls-177" points="445.01 260.62 441.4 258.53 445.01 256.44 448.63 258.53 445.01 260.62"/><polygon class="cls-178" points="379.95 231.43 376.34 229.34 379.95 227.26 383.56 229.34 379.95 231.43"/><polygon class="cls-179" points="387.18 235.6 383.56 233.52 387.18 231.43 390.79 233.52 387.18 235.6"/><polygon class="cls-180" points="394.4 239.77 390.79 237.69 394.4 235.6 398.01 237.69 394.4 239.77"/><polygon class="cls-181" points="401.63 243.94 398.01 241.86 401.63 239.77 405.24 241.86 401.63 243.94"/><polygon class="cls-182" points="408.85 248.12 405.24 246.03 408.85 243.94 412.47 246.03 408.85 248.12"/><polygon class="cls-183" points="416.08 252.29 412.47 250.2 416.08 248.12 419.69 250.2 416.08 252.29"/><polygon class="cls-184" points="423.31 256.46 419.69 254.38 423.31 252.29 426.92 254.38 423.31 256.46"/><polygon class="cls-185" points="430.53 260.63 426.92 258.55 430.53 256.46 434.14 258.55 430.53 260.63"/><polygon class="cls-186" points="437.76 264.81 434.14 262.72 437.76 260.63 441.37 262.72 437.76 264.81"/><polygon class="cls-187" points="372.69 235.62 369.08 233.53 372.69 231.45 376.31 233.53 372.69 235.62"/><polygon class="cls-188" points="379.92 239.79 376.31 237.7 379.92 235.62 383.53 237.7 379.92 239.79"/><polygon class="cls-189" points="387.15 243.96 383.53 241.88 387.15 239.79 390.76 241.88 387.15 243.96"/><polygon class="cls-190" points="394.37 248.13 390.76 246.05 394.37 243.96 397.99 246.05 394.37 248.13"/><polygon class="cls-191" points="401.6 252.31 397.99 250.22 401.6 248.13 405.21 250.22 401.6 252.31"/><polygon class="cls-192" points="408.82 256.48 405.21 254.39 408.82 252.31 412.44 254.39 408.82 256.48"/><polygon class="cls-193" points="416.05 260.65 412.44 258.56 416.05 256.48 419.66 258.56 416.05 260.65"/><polygon class="cls-194" points="423.28 264.82 419.66 262.74 423.28 260.65 426.89 262.74 423.28 264.82"/><polygon class="cls-195" points="430.5 268.99 426.89 266.91 430.5 264.82 434.12 266.91 430.5 268.99"/><polygon class="cls-196" points="365.44 239.81 361.83 237.72 365.44 235.64 369.05 237.72 365.44 239.81"/><polygon class="cls-197" points="372.67 243.98 369.05 241.89 372.67 239.81 376.28 241.89 372.67 243.98"/><polygon class="cls-39" points="379.89 248.15 376.28 246.06 379.89 243.98 383.5 246.06 379.89 248.15"/><polygon class="cls-198" points="387.12 252.32 383.5 250.24 387.12 248.15 390.73 250.24 387.12 252.32"/><polygon class="cls-199" points="394.34 256.5 390.73 254.41 394.34 252.32 397.96 254.41 394.34 256.5"/><polygon class="cls-200" points="401.57 260.67 397.96 258.58 401.57 256.5 405.18 258.58 401.57 260.67"/><polygon class="cls-201" points="408.8 264.84 405.18 262.75 408.8 260.67 412.41 262.75 408.8 264.84"/><polygon class="cls-39" points="416.02 269.01 412.41 266.92 416.02 264.84 419.63 266.92 416.02 269.01"/><polygon class="cls-202" points="423.25 273.18 419.63 271.1 423.25 269.01 426.86 271.1 423.25 273.18"/><g class="cls-11"><path class="cls-203" d="M546.55,504.76a11.25,11.25,0,0,1-5.61-1.5l-64.65-37.33a3.23,3.23,0,0,1,0-5.6l117-67.54a.6.6,0,0,1,.63,0l70,40.38a3.25,3.25,0,0,1,0,5.61L552.16,503.26A11.25,11.25,0,0,1,546.55,504.76Zm47-110.68L476.92,461.43a2,2,0,0,0,0,3.4l64.66,37.33a10.17,10.17,0,0,0,9.94,0l111.69-64.49a2,2,0,0,0,0-3.4Z" transform="translate(-0.7 -1)"/></g><path class="cls-204" d="M593.73,366.69l-15.56-92.31,1.25-.53-1.88-1.08v0a1.34,1.34,0,0,0-1.45.1L451.74,344.68a3.52,3.52,0,0,0-1.62,3.16l15.69,93.05a1.16,1.16,0,0,0,.65.95h0l1.84,1.06.32-1.72-.11,0,123.6-71.37A3.52,3.52,0,0,0,593.73,366.69Z" transform="translate(-0.7 -1)"/><path class="cls-205" d="M452.43,347.21l-2-.91a2.82,2.82,0,0,0-.27,1.54l15.69,93.05a1.16,1.16,0,0,0,.65.95h0l1.84,1.06.32-1.72-.11,0,6.26-3.62Z" transform="translate(-0.7 -1)"/><path class="cls-16" d="M594.06,371l-124.35,71.8c-1,.55-1.78.23-1.95-.76L452.07,349a3.52,3.52,0,0,1,1.62-3.16L578,274c1-.55,1.79-.23,2,.76l15.68,93.05A3.5,3.5,0,0,1,594.06,371Z" transform="translate(-0.7 -1)"/><polygon class="cls-206" points="575.72 278.94 455.85 348.15 470.71 435.78 590.5 366.62 575.72 278.94"/><path class="cls-207" d="M672.23,415l-6.78,3.54L597.4,379.28a4.92,4.92,0,0,0-4.44.19L475.59,447.23c-1.13-.63-6.25-3.09-6.25-3.09l2.49,6.47h0a1.44,1.44,0,0,0,.69.77l71.67,41.38a4.94,4.94,0,0,0,4.45-.18l120.1-69.35a2.13,2.13,0,0,0,1-1.07h0Z" transform="translate(-0.7 -1)"/><path class="cls-208" d="M671.19,416.14l-123.1,71.07a5.06,5.06,0,0,1-4.55.19L470.09,445c-1.17-.67-1-1.85.33-2.63l123.09-71.07a5.06,5.06,0,0,1,4.55-.18l73.45,42.4C672.68,414.19,672.53,415.36,671.19,416.14Z" transform="translate(-0.7 -1)"/><path class="cls-209" d="M671.19,415.43,548.09,486.5a5.06,5.06,0,0,1-4.55.19l-73.45-42.41a1.51,1.51,0,0,1-.71-.79,1.23,1.23,0,0,0,.71,1.5l73.45,42.41a5.06,5.06,0,0,0,4.55-.19l123.1-71.07c.9-.52,1.25-1.22,1-1.83A2.19,2.19,0,0,1,671.19,415.43Z" transform="translate(-0.7 -1)"/><path class="cls-16" d="M511,471.84v-1.35c0-.13.07-.19.17-.14l4.76,2.75a.43.43,0,0,1,.18.34v1.35c0,.12-.08.18-.18.13l-4.76-2.75A.42.42,0,0,1,511,471.84Z" transform="translate(-0.7 -1)"/><path class="cls-16" d="M518.09,476V474.6c0-.13.07-.19.17-.14l4.76,2.75a.42.42,0,0,1,.17.34v1.35c0,.12-.07.18-.17.13l-4.76-2.75A.42.42,0,0,1,518.09,476Z" transform="translate(-0.7 -1)"/><path class="cls-210" d="M489.24,441,591.53,382a2.21,2.21,0,0,1,2.2,0L630.16,403a.79.79,0,0,1,0,1.36l-102.25,59a2.17,2.17,0,0,1-2.2,0l-36.47-21A.78.78,0,0,1,489.24,441Z" transform="translate(-0.7 -1)"/><path class="cls-211" d="M489.24,442.38l.37.21,101.92-58.85a2.21,2.21,0,0,1,2.2,0l36.06,20.87.37-.21a.79.79,0,0,0,0-1.36L593.73,382a2.21,2.21,0,0,0-2.2,0L489.24,441A.79.79,0,0,0,489.24,442.38Z" transform="translate(-0.7 -1)"/><polygon class="cls-16" points="595.78 386.3 506.92 437.6 502.97 435.32 591.83 384.02 595.78 386.3"/><polygon class="cls-16" points="605.46 391.89 522.12 440.01 518.17 437.73 601.51 389.61 605.46 391.89"/><polygon class="cls-16" points="611.77 395.53 513.65 452.19 509.7 449.9 607.82 393.25 611.77 395.53"/><polygon class="cls-16" points="618.08 399.18 519.96 455.83 516 453.55 614.13 396.89 618.08 399.18"/><polygon class="cls-16" points="624.39 402.82 526.26 459.47 522.31 457.19 620.44 400.54 624.39 402.82"/><polygon class="cls-16" points="501.56 440.7 497.61 442.98 493.65 440.7 497.6 438.42 501.56 440.7"/><polygon class="cls-16" points="515.49 443.84 507.29 448.57 503.34 446.29 511.54 441.56 515.49 443.84"/><path class="cls-212" d="M595.47,455.31l27.58-15.93a1.19,1.19,0,0,0,0-2.25l-18.86-10.89a4.34,4.34,0,0,0-3.91,0L572.7,442.17a1.19,1.19,0,0,0,0,2.25l18.86,10.89A4.34,4.34,0,0,0,595.47,455.31Z" transform="translate(-0.7 -1)"/><path class="cls-213" d="M572.7,443.09l27.58-15.93a4.34,4.34,0,0,1,3.91,0l18.86,10.89a1.71,1.71,0,0,1,.67.67c.29-.55.07-1.16-.67-1.59l-18.86-10.89a4.34,4.34,0,0,0-3.91,0L572.7,442.17c-.74.43-1,1-.68,1.58A1.73,1.73,0,0,1,572.7,443.09Z" transform="translate(-0.7 -1)"/><g class="cls-214"><g class="cls-215"><path class="cls-216" d="M593.63,371.15,470.54,442.21a5,5,0,0,1-4.56.19L392.53,400c-1.17-.67-1-1.85.33-2.62L516,326.3a5.06,5.06,0,0,1,4.55-.19L594,368.52C595.12,369.19,595,370.37,593.63,371.15Z" transform="translate(-0.7 -1)"/><path class="cls-217" d="M470.17,383.89,497.75,368a1.19,1.19,0,0,0,0-2.26l-18.86-10.89a4.32,4.32,0,0,0-3.9,0l-27.58,15.93a1.19,1.19,0,0,0,0,2.25l18.86,10.89A4.32,4.32,0,0,0,470.17,383.89Z" transform="translate(-0.7 -1)"/><path class="cls-218" d="M447.41,371.67,475,355.74a4.32,4.32,0,0,1,3.9,0l18.86,10.89a1.82,1.82,0,0,1,.68.67c.28-.55.07-1.16-.68-1.59l-18.86-10.89a4.32,4.32,0,0,0-3.9,0l-27.58,15.93c-.75.43-1,1-.68,1.58A1.66,1.66,0,0,1,447.41,371.67Z" transform="translate(-0.7 -1)"/><path class="cls-219" d="M435.28,408.77l102.29-59a2.17,2.17,0,0,1,2.2,0l36.43,21.07a.79.79,0,0,1,0,1.36L474,431.18a2.17,2.17,0,0,1-2.2,0l-36.48-21.05A.79.79,0,0,1,435.28,408.77Z" transform="translate(-0.7 -1)"/><path class="cls-220" d="M435.28,410.13l.37.22L537.57,351.5a2.21,2.21,0,0,1,2.2,0l36.06,20.86.37-.21a.79.79,0,0,0,0-1.36l-36.43-21.07a2.17,2.17,0,0,0-2.2,0l-102.29,59A.79.79,0,0,0,435.28,410.13Z" transform="translate(-0.7 -1)"/><polygon class="cls-4" points="565.96 368.36 476.85 419.8 480.38 421.84 569.49 370.39 565.96 368.36"/><polygon class="cls-4" points="556.57 362.94 471.88 411.84 475.4 413.87 560.1 364.97 556.57 362.94"/><polygon class="cls-4" points="465.55 415.49 457.64 420.05 461.17 422.09 469.08 417.52 465.55 415.49"/><polygon class="cls-4" points="472.54 422.3 467.03 425.48 470.56 427.51 476.07 424.33 472.54 422.3"/><polygon class="cls-4" points="550.69 359.54 451.76 416.66 455.29 418.7 554.22 361.58 550.69 359.54"/><polygon class="cls-4" points="544.81 356.14 445.87 413.26 449.4 415.3 548.34 358.18 544.81 356.14"/><polygon class="cls-4" points="538.92 352.75 439.99 409.86 443.52 411.9 542.45 354.78 538.92 352.75"/></g></g><polygon class="cls-5" points="500.98 402.37 510.68 396.77 510.96 398.45 501.27 404.06 500.98 402.37"/><polygon class="cls-5" points="512.24 395.87 517.52 392.82 517.81 394.5 512.52 397.56 512.24 395.87"/><polygon class="cls-5" points="525.75 388.07 529.57 385.86 529.85 387.55 526.03 389.76 525.75 388.07"/><polygon class="cls-5" points="522.96 389.68 524.26 388.93 524.55 390.61 523.24 391.37 522.96 389.68"/><polygon class="cls-5" points="519.1 391.91 521.48 390.54 521.76 392.22 519.39 393.6 519.1 391.91"/><polygon class="cls-5" points="508.65 389.49 512.48 387.28 512.76 388.97 508.94 391.18 508.65 389.49"/><polygon class="cls-5" points="499.68 394.68 507.17 390.35 507.46 392.03 499.97 396.36 499.68 394.68"/><polygon class="cls-5" points="510.42 367.39 517.91 363.06 518.2 364.74 510.71 369.07 510.42 367.39"/><polygon class="cls-5" points="506.57 369.61 508.94 368.24 509.23 369.93 506.85 371.3 506.57 369.61"/><polygon class="cls-5" points="511.67 375.09 519.16 370.76 519.45 372.44 511.96 376.77 511.67 375.09"/><polygon class="cls-5" points="507.82 377.32 510.19 375.95 510.48 377.63 508.1 379 507.82 377.32"/><polygon class="cls-5" points="504.89 334.14 490.78 342.29 490.5 340.61 504.61 332.45 504.89 334.14"/><polygon class="cls-5" points="509.87 331.26 506.38 333.28 506.09 331.6 509.58 329.58 509.87 331.26"/><polygon class="cls-5" points="534.66 329.63 520.55 337.78 520.27 336.1 534.38 327.94 534.66 329.63"/><polygon class="cls-5" points="539.64 326.75 536.15 328.77 535.86 327.09 539.35 325.07 539.64 326.75"/><polygon class="cls-5" points="495.25 343.93 491.43 346.14 491.15 344.46 494.97 342.25 495.25 343.93"/><polygon class="cls-5" points="518.51 338.94 514.69 341.15 514.41 339.47 518.23 337.26 518.51 338.94"/><polygon class="cls-5" points="504.23 338.75 496.74 343.07 496.45 341.39 503.94 337.06 504.23 338.75"/><polygon class="cls-5" points="508.08 336.52 505.71 337.89 505.42 336.2 507.8 334.83 508.08 336.52"/><polygon class="cls-5" points="517.12 331.3 509.63 335.63 509.35 333.95 516.84 329.62 517.12 331.3"/><polygon class="cls-5" points="520.98 329.07 518.6 330.44 518.32 328.76 520.69 327.39 520.98 329.07"/><polygon class="cls-5" points="517.87 335.09 514.04 337.3 513.76 335.62 517.58 333.41 517.87 335.09"/><polygon class="cls-5" points="526.84 329.91 519.35 334.24 519.06 332.55 526.55 328.22 526.84 329.91"/><polygon class="cls-5" points="530.69 327.68 528.32 329.05 528.03 327.37 530.41 326 530.69 327.68"/><polygon class="cls-5" points="499.9 345.47 492.08 349.99 491.8 348.3 499.62 343.78 499.9 345.47"/><polygon class="cls-5" points="507.04 341.34 501.38 344.61 501.1 342.93 506.76 339.66 507.04 341.34"/><polygon class="cls-5" points="512.35 338.27 508.52 340.48 508.24 338.8 512.06 336.59 512.35 338.27"/><polygon class="cls-5" points="549.43 321.11 541.6 325.63 541.32 323.95 549.14 319.43 549.43 321.11"/><polygon class="cls-5" points="556.57 316.99 550.91 320.26 550.62 318.57 556.28 315.3 556.57 316.99"/><polygon class="cls-5" points="561.87 313.92 558.05 316.13 557.76 314.45 561.59 312.24 561.87 313.92"/><polygon class="cls-5" points="546.37 371.94 554.19 367.42 554.48 369.11 546.65 373.63 546.37 371.94"/><polygon class="cls-5" points="539.23 376.07 544.89 372.8 545.17 374.48 539.52 377.75 539.23 376.07"/><polygon class="cls-5" points="533.93 379.13 537.75 376.93 538.03 378.61 534.21 380.82 533.93 379.13"/><polygon class="cls-5" points="543.77 377.68 551.6 373.16 551.88 374.84 544.06 379.37 543.77 377.68"/><polygon class="cls-5" points="536.64 381.81 542.29 378.54 542.58 380.22 536.92 383.49 536.64 381.81"/><polygon class="cls-5" points="531.33 384.87 535.15 382.66 535.44 384.35 531.62 386.56 531.33 384.87"/><polygon class="cls-5" points="512.19 370.57 514.83 369.04 515.12 370.72 512.47 372.25 512.19 370.57"/><polygon class="cls-5" points="507.21 373.44 510.71 371.42 510.99 373.11 507.5 375.13 507.21 373.44"/><polygon class="cls-5" points="500.6 349.29 492.78 353.81 492.5 352.13 500.32 347.61 500.6 349.29"/><polygon class="cls-5" points="507.74 345.17 502.08 348.43 501.8 346.75 507.46 343.48 507.74 345.17"/><polygon class="cls-5" points="513.05 342.1 509.22 344.31 508.94 342.62 512.76 340.42 513.05 342.1"/><polygon class="cls-5" points="496.07 356.13 493.43 357.66 493.15 355.98 495.79 354.45 496.07 356.13"/><polygon class="cls-5" points="501.05 353.26 497.55 355.27 497.27 353.59 500.76 351.57 501.05 353.26"/><polygon class="cls-5" points="508.15 349.15 502.53 352.4 502.24 350.72 507.87 347.46 508.15 349.15"/><polygon class="cls-5" points="515.78 381.17 518.42 379.65 518.71 381.33 516.07 382.86 515.78 381.17"/><polygon class="cls-5" points="510.81 384.05 514.3 382.03 514.59 383.71 511.09 385.73 510.81 384.05"/><polygon class="cls-5" points="503.7 388.16 509.33 384.9 509.61 386.59 503.99 389.84 503.7 388.16"/><polygon class="cls-5" points="519.81 374.93 525.43 371.68 525.72 373.36 520.09 376.61 519.81 374.93"/><polygon class="cls-5" points="510.61 379.94 518.19 375.56 518.47 377.25 510.89 381.63 510.61 379.94"/><polygon class="cls-5" points="506.75 382.17 509.12 380.8 509.41 382.49 507.04 383.86 506.75 382.17"/><polygon class="cls-5" points="503.05 384.31 505.43 382.94 505.71 384.62 503.34 385.99 503.05 384.31"/><polygon class="cls-5" points="503.56 362.57 511.05 358.24 511.34 359.93 503.85 364.26 503.56 362.57"/><polygon class="cls-5" points="499.71 364.8 502.08 363.43 502.36 365.11 499.99 366.48 499.71 364.8"/><polygon class="cls-5" points="504.08 358.05 506.72 356.52 507 358.21 504.36 359.73 504.08 358.05"/><polygon class="cls-5" points="513.4 361.13 516.05 359.61 516.33 361.29 513.69 362.82 513.4 361.13"/><polygon class="cls-5" points="517.17 358.96 523.51 355.3 523.79 356.98 517.46 360.64 517.17 358.96"/><polygon class="cls-5" points="524.63 354.65 528.41 352.47 528.69 354.15 524.92 356.33 524.63 354.65"/><polygon class="cls-5" points="499.1 360.92 502.59 358.91 502.88 360.59 499.39 362.61 499.1 360.92"/><polygon class="cls-5" points="498.77 356.97 501.42 355.44 501.7 357.13 499.06 358.66 498.77 356.97"/><polygon class="cls-5" points="493.8 359.85 497.29 357.83 497.58 359.51 494.08 361.53 493.8 359.85"/><polygon class="cls-5" points="509.57 363.35 511.94 361.97 512.23 363.66 509.85 365.03 509.57 363.35"/><polygon class="cls-5" points="505.87 365.48 508.24 364.11 508.53 365.8 506.15 367.17 505.87 365.48"/><polygon class="cls-5" points="524.1 384.82 532.19 380.14 532.47 381.82 524.38 386.5 524.1 384.82"/><polygon class="cls-5" points="515.03 390.06 522.61 385.67 522.9 387.36 515.32 391.74 515.03 390.06"/><polygon class="cls-5" points="511.18 392.28 513.55 390.91 513.83 392.6 511.46 393.97 511.18 392.28"/><polygon class="cls-5" points="507.48 394.42 509.85 393.05 510.13 394.73 507.76 396.11 507.48 394.42"/><polygon class="cls-5" points="505.46 395.59 500.34 398.55 500.62 400.23 505.74 397.27 505.46 395.59"/><g class="cls-221"><path class="cls-222" d="M301.59,505a11.44,11.44,0,0,1-5.72-1.52h0L184.18,439a3.47,3.47,0,0,1,0-6l70.37-40.63.43.25,117,67.54a3.47,3.47,0,0,1,0,6l-64.65,37.32A11.35,11.35,0,0,1,301.59,505Zm-4.86-3a9.9,9.9,0,0,0,9.72,0l64.65-37.33a1.71,1.71,0,0,0,.87-1.5,1.74,1.74,0,0,0-.87-1.51L254.55,394.34l-.11.06L185,434.47a1.74,1.74,0,0,0,0,3Z" transform="translate(-0.7 -1)"/></g><path class="cls-223" d="M254.41,366.69,270,274.38l-1.25-.53,1.88-1.08v0a1.34,1.34,0,0,1,1.45.1L396.4,344.68a3.51,3.51,0,0,1,1.61,3.16l-15.68,93.05a1.15,1.15,0,0,1-.66.95h0l-1.84,1.06-.32-1.72.11,0L256,369.85A3.51,3.51,0,0,1,254.41,366.69Z" transform="translate(-0.7 -1)"/><path class="cls-224" d="M395.71,347.21l2-.91a2.81,2.81,0,0,1,.26,1.54l-15.68,93.05a1.15,1.15,0,0,1-.66.95h0l-1.84,1.06-.32-1.72.11,0-6.26-3.62Z" transform="translate(-0.7 -1)"/><path class="cls-16" d="M254.07,371l124.36,71.8c1,.55,1.78.23,1.95-.76L396.06,349a3.51,3.51,0,0,0-1.61-3.16L270.09,274c-1-.55-1.78-.23-1.95.76l-15.68,93.05A3.51,3.51,0,0,0,254.07,371Z" transform="translate(-0.7 -1)"/><polygon class="cls-225" points="271.01 278.94 390.88 348.15 376.02 435.78 256.23 366.62 271.01 278.94"/><path class="cls-226" d="M175.9,415l6.79,3.54,68.05-39.29a4.92,4.92,0,0,1,4.44.19l117.37,67.76c1.12-.63,6.24-3.09,6.24-3.09l-2.48,6.47h0a1.46,1.46,0,0,1-.7.77l-71.67,41.38a4.92,4.92,0,0,1-4.44-.18l-120.1-69.35a2.13,2.13,0,0,1-1-1.07h0Z" transform="translate(-0.7 -1)"/><path class="cls-227" d="M177,416.14,300,487.21a5.06,5.06,0,0,0,4.55.19L378.05,445c1.16-.67,1-1.85-.33-2.63L254.63,371.29a5.06,5.06,0,0,0-4.55-.18l-73.46,42.4C175.46,414.19,175.6,415.36,177,416.14Z" transform="translate(-0.7 -1)"/><path class="cls-228" d="M177,415.43,300,486.5a5.06,5.06,0,0,0,4.55.19l73.46-42.41a1.51,1.51,0,0,0,.71-.79,1.24,1.24,0,0,1-.71,1.5L304.59,487.4a5.06,5.06,0,0,1-4.55-.19L177,416.14c-.91-.52-1.25-1.22-1-1.83A2.11,2.11,0,0,0,177,415.43Z" transform="translate(-0.7 -1)"/><path class="cls-16" d="M337.17,471.84v-1.35c0-.13-.08-.19-.17-.14l-4.77,2.75a.45.45,0,0,0-.17.34v1.35c0,.12.08.18.17.13l4.77-2.75A.45.45,0,0,0,337.17,471.84Z" transform="translate(-0.7 -1)"/><path class="cls-16" d="M330.05,476V474.6c0-.13-.08-.19-.17-.14l-4.77,2.75a.45.45,0,0,0-.17.34v1.35c0,.12.08.18.17.13l4.77-2.75A.45.45,0,0,0,330.05,476Z" transform="translate(-0.7 -1)"/><path class="cls-229" d="M358.9,441,256.61,382a2.23,2.23,0,0,0-2.21,0L218,403a.79.79,0,0,0,0,1.36l102.24,59a2.17,2.17,0,0,0,2.2,0l36.48-21A.79.79,0,0,0,358.9,441Z" transform="translate(-0.7 -1)"/><path class="cls-230" d="M358.9,442.38l-.37.21L256.61,383.74a2.23,2.23,0,0,0-2.21,0l-36.05,20.87-.37-.21a.79.79,0,0,1,0-1.36L254.4,382a2.23,2.23,0,0,1,2.21,0L358.9,441A.79.79,0,0,1,358.9,442.38Z" transform="translate(-0.7 -1)"/><polygon class="cls-16" points="259.51 391.24 346.09 441.23 349.83 438.82 263.48 388.97 259.51 391.24"/><polygon class="cls-16" points="253.88 399.18 332.5 444.56 335.19 441.56 257.83 396.89 253.88 399.18"/><polygon class="cls-16" points="234.96 395.53 333.08 452.19 337.03 449.9 238.91 393.25 234.96 395.53"/><polygon class="cls-16" points="228.65 399.18 326.77 455.83 330.72 453.55 232.6 396.89 228.65 399.18"/><polygon class="cls-16" points="222.34 402.82 320.46 459.47 324.42 457.19 226.29 400.54 222.34 402.82"/><polygon class="cls-16" points="345.17 440.7 349.12 442.98 353.07 440.7 349.12 438.42 345.17 440.7"/><polygon class="cls-16" points="331.24 443.84 339.44 448.57 343.39 446.29 335.19 441.56 331.24 443.84"/><path class="cls-231" d="M252.67,455.31l-27.58-15.93a1.19,1.19,0,0,1,0-2.25L244,426.24a4.32,4.32,0,0,1,3.9,0l27.58,15.93a1.19,1.19,0,0,1,0,2.25l-18.86,10.89A4.32,4.32,0,0,1,252.67,455.31Z" transform="translate(-0.7 -1)"/><path class="cls-232" d="M275.43,443.09l-27.58-15.93a4.32,4.32,0,0,0-3.9,0l-18.86,10.89a1.82,1.82,0,0,0-.68.67c-.28-.55-.07-1.16.68-1.59L244,426.24a4.32,4.32,0,0,1,3.9,0l27.58,15.93c.75.43,1,1,.68,1.58A1.66,1.66,0,0,0,275.43,443.09Z" transform="translate(-0.7 -1)"/><g class="cls-214"><polygon id="SVGID-3" data-name="SVGID" class="cls-2" points="271.01 278.94 390.88 348.15 376.02 435.78 256.23 366.62 271.01 278.94"/><g class="cls-233"><path class="cls-234" d="M254.51,371.15,377.6,442.21a5,5,0,0,0,4.55.19L455.6,400c1.17-.67,1-1.85-.32-2.62L332.19,326.3a5.08,5.08,0,0,0-4.56-.19l-73.45,42.41C253,369.19,253.16,370.37,254.51,371.15Z" transform="translate(-0.7 -1)"/><path class="cls-235" d="M378,383.89,350.38,368a1.2,1.2,0,0,1,0-2.26l18.87-10.89a4.32,4.32,0,0,1,3.9,0l27.58,15.93a1.19,1.19,0,0,1,0,2.25l-18.86,10.89A4.32,4.32,0,0,1,378,383.89Z" transform="translate(-0.7 -1)"/><path class="cls-236" d="M400.73,371.67l-27.58-15.93a4.32,4.32,0,0,0-3.9,0l-18.87,10.89a1.71,1.71,0,0,0-.67.67c-.29-.55-.07-1.16.67-1.59l18.87-10.89a4.32,4.32,0,0,1,3.9,0l27.58,15.93c.74.43,1,1,.68,1.58A1.73,1.73,0,0,0,400.73,371.67Z" transform="translate(-0.7 -1)"/><path class="cls-219" d="M412.85,408.77l-102.29-59a2.17,2.17,0,0,0-2.2,0l-36.42,21.07a.78.78,0,0,0,0,1.36l102.24,59a2.17,2.17,0,0,0,2.2,0l36.47-21.05A.78.78,0,0,0,412.85,408.77Z" transform="translate(-0.7 -1)"/><path class="cls-237" d="M412.85,410.13l-.36.22L310.56,351.5a2.21,2.21,0,0,0-2.2,0L272.3,372.36l-.36-.21a.78.78,0,0,1,0-1.36l36.42-21.07a2.17,2.17,0,0,1,2.2,0l102.29,59A.78.78,0,0,1,412.85,410.13Z" transform="translate(-0.7 -1)"/><polygon class="cls-4" points="280.76 368.36 369.88 419.8 366.35 421.84 277.24 370.39 280.76 368.36"/><polygon class="cls-4" points="290.15 362.94 374.85 411.84 371.32 413.87 286.62 364.97 290.15 362.94"/><polygon class="cls-4" points="381.18 415.49 389.09 420.05 385.56 422.09 377.65 417.52 381.18 415.49"/><polygon class="cls-4" points="374.19 422.3 379.7 425.48 376.17 427.51 370.66 424.33 374.19 422.3"/><polygon class="cls-4" points="296.04 359.54 394.97 416.66 391.44 418.7 292.51 361.58 296.04 359.54"/><polygon class="cls-4" points="301.92 356.14 400.86 413.26 397.32 415.3 298.39 358.18 301.92 356.14"/><polygon class="cls-4" points="307.8 352.75 406.74 409.86 403.21 411.9 304.27 354.78 307.8 352.75"/></g></g><polygon class="cls-5" points="297.85 311.43 307.55 317.03 307.83 315.35 298.13 309.74 297.85 311.43"/><polygon class="cls-5" points="309.11 317.93 314.39 320.98 314.68 319.3 309.39 316.24 309.11 317.93"/><polygon class="cls-5" points="322.61 325.73 326.44 327.94 326.72 326.25 322.9 324.04 322.61 325.73"/><polygon class="cls-5" points="319.83 324.11 321.13 324.87 321.42 323.19 320.11 322.43 319.83 324.11"/><polygon class="cls-5" points="315.97 321.89 318.34 323.26 318.63 321.57 316.26 320.2 315.97 321.89"/><polygon class="cls-5" points="305.52 324.31 309.35 326.52 309.63 324.83 305.81 322.62 305.52 324.31"/><polygon class="cls-5" points="296.55 319.12 304.04 323.45 304.33 321.77 296.83 317.44 296.55 319.12"/><polygon class="cls-5" points="307.29 346.41 314.78 350.74 315.07 349.06 307.57 344.73 307.29 346.41"/><polygon class="cls-5" points="303.44 344.19 305.81 345.56 306.09 343.87 303.72 342.5 303.44 344.19"/><polygon class="cls-5" points="308.54 338.71 316.03 343.04 316.32 341.35 308.83 337.02 308.54 338.71"/><polygon class="cls-5" points="304.69 336.48 307.06 337.85 307.34 336.17 304.97 334.8 304.69 336.48"/><polygon class="cls-5" points="301.76 379.66 287.65 371.5 287.37 373.19 301.48 381.34 301.76 379.66"/><polygon class="cls-5" points="306.74 382.53 303.24 380.52 302.96 382.2 306.45 384.22 306.74 382.53"/><polygon class="cls-5" points="331.53 384.17 317.42 376.01 317.14 377.7 331.25 385.86 331.53 384.17"/><polygon class="cls-5" points="336.51 387.05 333.01 385.03 332.73 386.71 336.22 388.73 336.51 387.05"/><polygon class="cls-5" points="292.12 369.87 288.3 367.66 288.01 369.34 291.84 371.55 292.12 369.87"/><polygon class="cls-5" points="315.38 374.86 311.56 372.65 311.28 374.33 315.1 376.54 315.38 374.86"/><polygon class="cls-5" points="301.1 375.05 293.6 370.72 293.32 372.41 300.81 376.74 301.1 375.05"/><polygon class="cls-5" points="304.95 377.28 302.58 375.91 302.29 377.59 304.67 378.96 304.95 377.28"/><polygon class="cls-5" points="313.99 382.5 306.5 378.17 306.22 379.85 313.71 384.18 313.99 382.5"/><polygon class="cls-5" points="317.85 384.73 315.47 383.35 315.19 385.04 317.56 386.41 317.85 384.73"/><polygon class="cls-5" points="314.73 378.7 310.91 376.5 310.63 378.18 314.45 380.39 314.73 378.7"/><polygon class="cls-5" points="323.71 383.89 316.21 379.56 315.93 381.25 323.42 385.57 323.71 383.89"/><polygon class="cls-5" points="327.56 386.12 325.19 384.75 324.9 386.43 327.28 387.8 327.56 386.12"/><polygon class="cls-5" points="296.77 368.33 288.95 363.81 288.66 365.49 296.49 370.02 296.77 368.33"/><polygon class="cls-5" points="303.91 372.46 298.25 369.19 297.97 370.87 303.63 374.14 303.91 372.46"/><polygon class="cls-5" points="309.21 375.52 305.39 373.31 305.11 375 308.93 377.21 309.21 375.52"/><polygon class="cls-5" points="346.3 392.69 338.47 388.16 338.19 389.85 346.01 394.37 346.3 392.69"/><polygon class="cls-5" points="353.43 396.81 347.78 393.54 347.49 395.23 353.15 398.5 353.43 396.81"/><polygon class="cls-5" points="358.74 399.88 354.92 397.67 354.63 399.35 358.45 401.56 358.74 399.88"/><polygon class="cls-5" points="343.24 341.86 351.06 346.38 351.35 344.69 343.52 340.17 343.24 341.86"/><polygon class="cls-5" points="336.1 337.73 341.76 341 342.04 339.32 336.38 336.05 336.1 337.73"/><polygon class="cls-5" points="330.8 334.66 334.62 336.87 334.9 335.19 331.08 332.98 330.8 334.66"/><polygon class="cls-5" points="340.64 336.12 348.46 340.64 348.75 338.95 340.93 334.43 340.64 336.12"/><polygon class="cls-5" points="333.5 331.99 339.16 335.26 339.44 333.58 333.79 330.31 333.5 331.99"/><polygon class="cls-5" points="328.2 328.93 332.02 331.13 332.31 329.45 328.48 327.24 328.2 328.93"/><polygon class="cls-5" points="309.06 343.23 311.7 344.76 311.98 343.07 309.34 341.55 309.06 343.23"/><polygon class="cls-5" points="304.08 340.36 307.57 342.38 307.86 340.69 304.37 338.67 304.08 340.36"/><polygon class="cls-5" points="297.47 364.51 289.65 359.99 289.37 361.67 297.19 366.19 297.47 364.51"/><polygon class="cls-5" points="304.61 368.63 298.95 365.36 298.67 367.05 304.33 370.32 304.61 368.63"/><polygon class="cls-5" points="309.92 371.7 306.09 369.49 305.81 371.17 309.63 373.38 309.92 371.7"/><polygon class="cls-5" points="292.94 357.67 290.3 356.14 290.01 357.82 292.66 359.35 292.94 357.67"/><polygon class="cls-5" points="297.91 360.54 294.42 358.52 294.14 360.21 297.63 362.23 297.91 360.54"/><polygon class="cls-5" points="305.02 364.65 299.4 361.4 299.11 363.08 304.74 366.33 305.02 364.65"/><polygon class="cls-5" points="312.65 332.63 315.29 334.15 315.58 332.47 312.94 330.94 312.65 332.63"/><polygon class="cls-5" points="307.68 329.75 311.17 331.77 311.45 330.08 307.96 328.07 307.68 329.75"/><polygon class="cls-5" points="300.57 325.64 306.2 328.89 306.48 327.21 300.85 323.96 300.57 325.64"/><polygon class="cls-5" points="316.68 338.87 322.3 342.12 322.59 340.44 316.96 337.19 316.68 338.87"/><polygon class="cls-5" points="307.47 333.85 315.06 338.24 315.34 336.55 307.76 332.17 307.47 333.85"/><polygon class="cls-5" points="303.62 331.63 305.99 333 306.28 331.31 303.9 329.94 303.62 331.63"/><polygon class="cls-5" points="299.92 329.49 302.29 330.86 302.58 329.18 300.2 327.8 299.92 329.49"/><polygon class="cls-5" points="300.43 351.23 307.92 355.56 308.2 353.87 300.71 349.54 300.43 351.23"/><polygon class="cls-5" points="296.57 349 298.95 350.37 299.23 348.69 296.86 347.31 296.57 349"/><polygon class="cls-5" points="300.94 355.75 303.59 357.28 303.87 355.59 301.23 354.06 300.94 355.75"/><polygon class="cls-5" points="310.27 352.67 312.91 354.19 313.2 352.51 310.56 350.98 310.27 352.67"/><polygon class="cls-5" points="314.04 354.84 320.38 358.5 320.66 356.82 314.32 353.16 314.04 354.84"/><polygon class="cls-5" points="321.5 359.15 325.27 361.33 325.56 359.64 321.79 357.47 321.5 359.15"/><polygon class="cls-5" points="295.97 352.87 299.46 354.89 299.75 353.21 296.25 351.19 295.97 352.87"/><polygon class="cls-5" points="295.64 356.83 298.28 358.35 298.57 356.67 295.93 355.14 295.64 356.83"/><polygon class="cls-5" points="290.67 353.95 294.16 355.97 294.44 354.29 290.95 352.27 290.67 353.95"/><polygon class="cls-5" points="306.44 350.45 308.81 351.82 309.1 350.14 306.72 348.77 306.44 350.45"/><polygon class="cls-5" points="302.74 348.31 305.11 349.69 305.4 348 303.02 346.63 302.74 348.31"/><polygon class="cls-5" points="320.96 328.98 329.06 333.66 329.34 331.98 321.25 327.3 320.96 328.98"/><polygon class="cls-5" points="311.9 323.74 319.48 328.13 319.77 326.44 312.18 322.06 311.9 323.74"/><polygon class="cls-5" points="308.05 321.52 310.42 322.89 310.7 321.2 308.33 319.83 308.05 321.52"/><polygon class="cls-5" points="304.35 319.38 306.72 320.75 307 319.06 304.63 317.69 304.35 319.38"/><polygon class="cls-5" points="302.32 318.21 297.2 315.25 297.49 313.57 302.61 316.52 302.32 318.21"/><polygon class="cls-16" points="250.95 386.3 254.9 388.58 258.85 386.3 254.9 384.02 250.95 386.3"/><polygon class="cls-16" points="241.27 391.89 249.47 396.63 253.42 394.34 245.22 389.61 241.27 391.89"/><ellipse id="Shadow" class="cls-238" cx="423.07" cy="236.92" rx="72.95" ry="32.45" transform="translate(-45.25 107.66) rotate(-13.91)"/><g id="Symbol"><g id="Symbol-2" data-name="Symbol"><ellipse id="Disk" class="cls-16" cx="416.76" cy="186" rx="96.53" ry="51.92" transform="translate(-33.2 104.65) rotate(-13.91)"/><path id="Body_Hat" data-name="Body Hat" class="cls-16" d="M459.7,70.65,373.81,94.93l-44.2,3.86s18.36,25.6,29.67,83.32c0,0,11.7,25.83,56.8,17.76,43.76-7.83,50.15-34.71,50.15-34.71S456.39,110.55,459.7,70.65Z" transform="translate(-0.7 -1)"/><path id="Divide_White" data-name="Divide White" class="cls-5" d="M416.76,188.85s-28.14,6.41-57.29-6.78c.38,1.79.75,11.28,1.11,13.15,0,0,11.67,22.2,56.62,14.12,43.61-7.83,50-32.89,50-32.89s-.36-7.82-.91-11.3C429.52,189.89,416.76,188.85,416.76,188.85Z" transform="translate(-0.7 -1)"/><path id="M_Negative" data-name="M Negative" class="cls-5" d="M406.33,131.73l-17.71-21.41,24.2-5.59Zm-10.72,8.87,12,51.43,24.21-5.58-12-51.43-6.49,27Z" transform="translate(-0.7 -1)"/><g id="Cold_Gradient" data-name="Cold Gradient"><g class="cls-239"><g id="Cold"><polygon id="Cold1" class="cls-240" points="471.11 68.35 465.52 91.46 387.91 130.72 324.4 110.29 328.91 69.64 431.09 32.26 471.11 68.35"/><g id="Cold2"><g class="cls-241"><ellipse id="Cold2-2" data-name="Cold2" class="cls-242" cx="378.03" cy="70.65" rx="63.95" ry="33.09" transform="translate(2.54 155.87) rotate(-23.54)"/></g></g></g></g></g><g id="Hot_Gradient" data-name="Hot Gradient"><g class="cls-243"><g id="Hot"><polygon id="Hot1" class="cls-244" points="348.48 207.62 347.27 158.93 451.53 111.81 486.65 184.22 440.73 222.82 348.48 207.62"/><g id="Hot2"><g class="cls-245"><path id="Hot2-2" data-name="Hot2" class="cls-246" d="M464.39,135.27s-15.26,70.47-115.23,58.42c3-3.61,8.36-37.44,8.36-37.44Z" transform="translate(-0.7 -1)"/></g></g></g></g></g></g></g></g></g></g></svg>