<svg id="Layer_1" data-name="Layer 1" xmlns="http://www.w3.org/2000/svg" xmlns:xlink="http://www.w3.org/1999/xlink" viewBox="0 0 70 70"><defs><style>.cls-1{fill:url(#linear-gradient);}</style><linearGradient id="linear-gradient" x1="-689.49" y1="35" x2="-619.49" y2="35" gradientTransform="matrix(-1, 0, 0, 1, -619.49, 0)" gradientUnits="userSpaceOnUse"><stop offset="0" stop-color="#ec1c24"/><stop offset="0.17" stop-color="#ed2524"/><stop offset="0.44" stop-color="#ef3d23"/><stop offset="0.78" stop-color="#f26521"/><stop offset="1" stop-color="#f48120"/></linearGradient></defs><title>feature-1</title><path class="cls-1" d="M0,58.71v5.64A5.65,5.65,0,0,0,5.65,70h58.7A5.65,5.65,0,0,0,70,64.35V58.71H67.74V21.45a5.65,5.65,0,0,0-5.64-5.64H58.71V0H11.29V15.81H7.9a5.65,5.65,0,0,0-5.64,5.64V58.71ZM58.71,38.39V22.58H61V54.19H9V22.58h2.26V38.39h6l-2.54,6.78h-.06a3.39,3.39,0,1,0,3.38,3.39A3.35,3.35,0,0,0,16.85,46l2.84-7.58Zm-2.26-2.26H20.54l.85-2.27h.06a3.39,3.39,0,0,0,3.39-3.39,3.25,3.25,0,0,0-.14-.89l6.08-4.26A3.32,3.32,0,0,0,35,25.11l4.6,2.56a3.33,3.33,0,0,0,0,.56,3.39,3.39,0,1,0,6.13-2l4.26-6.07a3.32,3.32,0,0,0,.9.13,3.39,3.39,0,1,0-3.39-3.38,3.35,3.35,0,0,0,.64,2L43.8,25a3.32,3.32,0,0,0-.9-.14,3.37,3.37,0,0,0-2.23.86l-4.6-2.56a3.43,3.43,0,0,0,.06-.56,3.39,3.39,0,1,0-6.64.9l-6.08,4.25a3.38,3.38,0,0,0-5.35,2.75,3.36,3.36,0,0,0,1.22,2.58l-1.15,3.07H13.55V11.29h42.9Zm-35-4.52a1.13,1.13,0,1,1,1.13-1.13A1.13,1.13,0,0,1,21.45,31.61ZM32.74,21.45a1.13,1.13,0,1,1-1.13,1.13A1.13,1.13,0,0,1,32.74,21.45ZM44,28.23A1.13,1.13,0,1,1,42.9,27.1,1.12,1.12,0,0,1,44,28.23Zm5.65-11.29a1.13,1.13,0,1,1,1.13,1.12A1.12,1.12,0,0,1,49.68,16.94Zm-35,30.48a1.13,1.13,0,1,1-1.13,1.13A1.14,1.14,0,0,1,14.68,47.42ZM56.45,2.26V9H13.55V2.26Zm9,56.45h-61V21.45A3.39,3.39,0,0,1,7.9,18.06h3.39v2.26H9a2.27,2.27,0,0,0-2.26,2.26V54.19A2.26,2.26,0,0,0,9,56.45H61a2.26,2.26,0,0,0,2.26-2.26V22.58A2.27,2.27,0,0,0,61,20.32H58.71V18.06H62.1a3.39,3.39,0,0,1,3.38,3.39ZM2.26,61H67.74v3.38a3.39,3.39,0,0,1-3.39,3.39H5.65a3.39,3.39,0,0,1-3.39-3.39Zm38.39,4.51H29.35V63.23h11.3Zm-13.55,0H24.84V63.23H27.1Zm18.06,0H42.9V63.23h2.26ZM27.39,6.77H25.13V4.52h2.26Zm-4.52,0H20.61V4.52h2.26Zm-4.51,0H16.1V4.52h2.26ZM58.71,40.65H40.65V51.94H58.71Zm-2.26,9H42.9V42.9H56.45ZM27.1,15.81H15.81V13.55H27.1Zm0,4.51H15.81V18.06H27.1ZM51.94,31.61H49.68v2.26h2.26a2.26,2.26,0,0,0,2.25-2.26V27.1H51.94Zm2.25-6.77H51.94V22.58h2.25ZM20.32,51.94H38.39V40.65H36.13v9H33.87v-9H31.61v9H29.35V42.9H27.1v6.78H24.84V45.16H22.58v4.52H20.32Z" transform="translate(0)"/></svg>