<svg id="Layer_1" data-name="Layer 1" xmlns="http://www.w3.org/2000/svg" xmlns:xlink="http://www.w3.org/1999/xlink" viewBox="0 0 70 70"><defs><style>.cls-1{fill:url(#linear-gradient);}</style><linearGradient id="linear-gradient" y1="35" x2="70" y2="35" gradientUnits="userSpaceOnUse"><stop offset="0" stop-color="#ec1c24"/><stop offset="0.17" stop-color="#ed2524"/><stop offset="0.44" stop-color="#ef3d23"/><stop offset="0.78" stop-color="#f26521"/><stop offset="1" stop-color="#f48120"/></linearGradient></defs><title>feature-2</title><path class="cls-1" d="M42.9,37.26a2.26,2.26,0,0,1,2.26,2.26h2.26A4.52,4.52,0,0,0,44,35.16V32.74H41.77V35H38.39v4.52A4.51,4.51,0,0,0,42.9,44a2.26,2.26,0,0,1,2.26,2.26v2.26H42.9a2.26,2.26,0,0,1-2.25-2.26H38.39a4.52,4.52,0,0,0,3.38,4.36v2.41H44V50.81h3.39V46.29a4.53,4.53,0,0,0-4.52-4.52,2.25,2.25,0,0,1-2.25-2.25V37.26Zm0-13.55A19.2,19.2,0,1,0,62.1,42.9,19.21,19.21,0,0,0,42.9,23.71ZM59.78,44a16.83,16.83,0,0,1-4.15,10l-1.55-1.56-1.6,1.6L54,55.63a16.83,16.83,0,0,1-10,4.15v-2.2H41.77v2.2a16.78,16.78,0,0,1-10-4.15l1.55-1.55-1.59-1.6L30.17,54A16.88,16.88,0,0,1,26,44h2.2V41.77H26a16.83,16.83,0,0,1,4.14-10l1.56,1.55,1.59-1.59-1.55-1.56a16.83,16.83,0,0,1,10-4.14v2.2H44V26a16.88,16.88,0,0,1,10,4.14l-1.56,1.56,1.6,1.59,1.55-1.55a16.78,16.78,0,0,1,4.15,10h-2.2V44ZM70,27.1a11.27,11.27,0,0,0-20.21-6.88c-.41-.12-.83-.22-1.24-.32v-3a2.27,2.27,0,0,0,2.26-2.26V12.42a2.26,2.26,0,0,0-2.26-2.26H37.26A2.26,2.26,0,0,0,35,12.42v2.26a2.26,2.26,0,0,0,2.26,2.26v3c-.42.1-.84.2-1.24.32a11.27,11.27,0,0,0-5-3.69,3.35,3.35,0,0,0,.55-1.85V3.39A3.39,3.39,0,0,0,28.23,0H3.39A3.39,3.39,0,0,0,0,3.39V14.68a3.39,3.39,0,0,0,3.39,3.38h17a11.52,11.52,0,0,0-2.26,2.26H12.66l-.77,3.16a12.07,12.07,0,0,0-1.12.47L8,22.26l-6,6,1.68,2.79c-.17.37-.33.75-.47,1.12L0,33v8.54l3.15.78c.14.37.3.75.47,1.12L1.94,46.21l6,6,2.79-1.68c.37.17.74.33,1.12.47l.77,3.15h8.55L21.49,53A23.77,23.77,0,0,0,29,62L27,64a3.53,3.53,0,0,0,2.49,6A3.51,3.51,0,0,0,32,69l3.55-3.55a23.45,23.45,0,0,0,14.75,0L53.82,69a3.53,3.53,0,0,0,6-2.49,3.59,3.59,0,0,0-1-2.5l-2-1.95a23.65,23.65,0,0,0,8.74-26A11.25,11.25,0,0,0,70,27.1ZM37.26,12.42H48.55v2.26H37.26Zm2.26,4.52h6.77v2.52a21.35,21.35,0,0,0-6.77,0ZM3.39,15.81a1.13,1.13,0,0,1-1.13-1.13V3.39A1.12,1.12,0,0,1,3.39,2.26H28.23a1.12,1.12,0,0,1,1.12,1.13V14.68a1.13,1.13,0,0,1-1.12,1.13ZM27.1,18.06a9,9,0,0,1,6.66,3A23.89,23.89,0,0,0,21,33.76a9,9,0,0,1,6.07-15.7ZM20.22,36a23.72,23.72,0,0,0-1,6.88c0,.65,0,1.28.1,1.91a8.11,8.11,0,0,1-2.35.35,7.9,7.9,0,0,1-.88-15.75A11.25,11.25,0,0,0,20.22,36Zm-.13,13.26-.65,2.66h-5l-.65-2.65-.6-.19a12.47,12.47,0,0,1-1.95-.82L10.67,48,8.33,49.4,4.79,45.87,6.2,43.53,5.91,43a12.5,12.5,0,0,1-.81-2l-.19-.6-2.65-.65v-5l2.65-.66.19-.6a12.8,12.8,0,0,1,.81-1.95L6.2,31,4.79,28.65l3.54-3.54,2.34,1.42.56-.29a11.58,11.58,0,0,1,1.95-.82l.6-.19.65-2.65h2.33a11.16,11.16,0,0,0-1,4.52v.06a10.16,10.16,0,1,0,3.77,19.9c.14.75.31,1.5.51,2.22Zm10.3,18.09a1.27,1.27,0,0,1-1.79-1.79l2.28-2.28a25,25,0,0,0,2.35,1.23Zm26.82-1.79a1.27,1.27,0,0,1-1.79,1.79l-2.84-2.84a25,25,0,0,0,2.35-1.23ZM42.9,64.35A21.45,21.45,0,1,1,64.35,42.9,21.47,21.47,0,0,1,42.9,64.35ZM52,21A9,9,0,1,1,64.78,33.76,23.87,23.87,0,0,0,52,21ZM24.84,4.52H22.58v6.77H20.32V6.77H18.06v4.52H15.81V9H13.55v2.26H11.29V9H9v2.26H6.77V4.52H4.52v9H27.1V11.29H24.84Z" transform="translate(0 0)"/></svg>