<svg id="Layer_1" data-name="Layer 1" xmlns="http://www.w3.org/2000/svg" xmlns:xlink="http://www.w3.org/1999/xlink" viewBox="0 0 70 70"><defs><style>.cls-1{fill:url(#linear-gradient);}</style><linearGradient id="linear-gradient" y1="35" x2="70" y2="35" gradientUnits="userSpaceOnUse"><stop offset="0" stop-color="#ec1c24"/><stop offset="0.17" stop-color="#ed2524"/><stop offset="0.44" stop-color="#ef3d23"/><stop offset="0.78" stop-color="#f26521"/><stop offset="1" stop-color="#f48120"/></linearGradient></defs><title>feature-3</title><path class="cls-1" d="M35,33.87a2.26,2.26,0,0,1-2.26-2.26H30.48A4.52,4.52,0,0,0,33.87,36v2.42h2.26V36.13h3.39V31.61A4.52,4.52,0,0,0,35,27.1a2.26,2.26,0,0,1-2.26-2.26V22.58H35a2.26,2.26,0,0,1,2.26,2.26h2.26a4.52,4.52,0,0,0-3.39-4.36V18.06H33.87v2.26H30.48v4.52A4.52,4.52,0,0,0,35,29.35a2.26,2.26,0,0,1,2.26,2.26v2.26ZM24.84,27.1H27.1v2.25H24.84Zm18.06,0h2.26v2.25H42.9ZM39.8,54.19,35,47.8l-4.8,6.39,4.8,6.4ZM35,51.56l2,2.63-2,2.64-2-2.64Zm18.35,2.63-4.8-6.39-4.8,6.39,4.8,6.4Zm-4.8-2.63,2,2.63-2,2.64-2-2.64Zm-22.3,2.63-4.8-6.39-4.8,6.39,4.8,6.4Zm-4.8-2.63,2,2.63-2,2.64-2-2.64Zm36.13,4.89V45.16H44a19.19,19.19,0,1,0-18,0H12.42V56.45H.59L3.3,63.23.59,70H23.71V63.23H46.29V70H69.41L66.7,63.23l2.71-6.78ZM36.13,45.1V42.85a14.66,14.66,0,0,0,11-6.34l2,1.14A16.9,16.9,0,0,1,36.13,45.1Zm14-9.41-2-1.13a14.56,14.56,0,0,0,0-12.67l1.94-1.12a16.69,16.69,0,0,1,0,14.92ZM33.87,11.35v2.26a14.65,14.65,0,0,0-11,6.33l-2-1.14A16.9,16.9,0,0,1,33.87,11.35Zm-14,9.42,2,1.13a14.54,14.54,0,0,0,0,12.66l-1.94,1.13a16.69,16.69,0,0,1,0-14.92Zm1.12,16.88,2-1.14a14.35,14.35,0,0,0,2.75,3l1.43-1.74a12.41,12.41,0,0,1,14.2-20.27l1.14-2a14.59,14.59,0,0,0-6.3-2V11.35A16.9,16.9,0,0,1,49.06,18.8l-2,1.14a14.35,14.35,0,0,0-2.75-3l-1.43,1.74a12.41,12.41,0,0,1-14.2,20.27l-1.14,1.95a14.74,14.74,0,0,0,6.3,2v2.25A16.94,16.94,0,0,1,20.94,37.65Zm34.38,9.77V61H14.68V47.42ZM3.93,58.71h8.49v3.95l6.77,5.08H3.93l1.8-4.51Zm17.52,7.9-4.51-3.38h4.51Zm31.61-3.38-4.51,3.38V63.23Zm13,4.51H50.81l6.77-5.08V58.71h8.49l-1.8,4.52Zm2.8-63.22a3.39,3.39,0,0,1-3.39-3.39V0H63.23V1.13a3.39,3.39,0,0,1-3.39,3.39H58.71V6.77h1.13a3.39,3.39,0,0,1,3.39,3.39v1.13h2.25V10.16a3.39,3.39,0,0,1,3.39-3.39H70V4.52ZM64.35,6.81a5.32,5.32,0,0,0-1.16-1.16,5.59,5.59,0,0,0,1.16-1.17,5.9,5.9,0,0,0,1.17,1.17A5.59,5.59,0,0,0,64.35,6.81ZM4.52,23.71v1.13H6.77V23.71a3.39,3.39,0,0,1,3.39-3.39h1.13V18.06H10.16a3.39,3.39,0,0,1-3.39-3.38V13.55H4.52v1.13a3.39,3.39,0,0,1-3.39,3.38H0v2.26H1.13A3.39,3.39,0,0,1,4.52,23.71ZM5.65,18a5.55,5.55,0,0,0,1.16,1.16,5.36,5.36,0,0,0-1.16,1.17,5.64,5.64,0,0,0-1.17-1.17A5.85,5.85,0,0,0,5.65,18Zm10.16-7.87v1.13h2.25V10.16a3.39,3.39,0,0,1,3.39-3.39h1.13V4.52H21.45a3.39,3.39,0,0,1-3.39-3.39V0H15.81V1.13a3.39,3.39,0,0,1-3.39,3.39H11.29V6.77h1.13A3.39,3.39,0,0,1,15.81,10.16Zm1.13-5.68A5.85,5.85,0,0,0,18.1,5.65a5.55,5.55,0,0,0-1.16,1.16,5.59,5.59,0,0,0-1.17-1.16A5.9,5.9,0,0,0,16.94,4.48Zm44,17v1.13A3.39,3.39,0,0,1,57.58,26H56.45v2.26h1.13A3.39,3.39,0,0,1,61,31.61v1.13h2.26V31.61a3.39,3.39,0,0,1,3.38-3.38h1.13V26H66.61a3.39,3.39,0,0,1-3.38-3.39V21.45Zm2.29,5.65a5.8,5.8,0,0,0-1.16,1.16,5.6,5.6,0,0,0-1.17-1.16,5.41,5.41,0,0,0,1.17-1.17A5.6,5.6,0,0,0,63.26,27.1ZM46.29,0h2.26V2.26H46.29Zm0,4.52h2.26V6.77H46.29Zm2.26-2.26h2.26V4.52H48.55ZM44,2.26h2.26V4.52H44ZM7.9,31.61h2.26v2.26H7.9Zm0,4.52h2.26v2.26H7.9Zm2.26-2.26h2.26v2.26H10.16Zm-4.51,0H7.9v2.26H5.65ZM2.26,39.52H4.52v2.25H2.26Zm0,4.51H4.52v2.26H2.26Zm2.26-2.26H6.77V44H4.52ZM0,41.77H2.26V44H0ZM54.19,9h2.26v2.26H54.19Zm0,4.52h2.26v2.26H54.19Zm2.26-2.26h2.26v2.26H56.45Zm-4.51,0h2.25v2.26H51.94ZM65.48,39.52h2.26v2.25H65.48Zm0,4.51h2.26v2.26H65.48Zm2.26-2.26H70V44H67.74Zm-4.51,0h2.25V44H63.23Z" transform="translate(0 0)"/></svg>