<svg xmlns="http://www.w3.org/2000/svg" xmlns:xlink="http://www.w3.org/1999/xlink" viewBox="0 0 416.04 471.95"><defs><style>.cls-1{isolation:isolate;}.cls-2{fill:url(#linear-gradient);}.cls-25,.cls-3,.cls-47,.cls-58,.cls-85{fill:#fff;}.cls-24,.cls-3,.cls-51,.cls-52,.cls-53,.cls-61,.cls-62,.cls-63,.cls-65,.cls-70,.cls-71,.cls-72,.cls-78,.cls-79,.cls-8,.cls-80{opacity:0.5;}.cls-4{fill:url(#linear-gradient-2);}.cls-5{fill:url(#linear-gradient-3);}.cls-6{fill:url(#linear-gradient-4);}.cls-7{fill:url(#linear-gradient-5);}.cls-14,.cls-19,.cls-9{opacity:0.11;}.cls-10{fill:url(#Áåçûìÿííûé_ãðàäèåíò_3);}.cls-11{fill:url(#Áåçûìÿííûé_ãðàäèåíò_3-2);}.cls-12{fill:url(#Áåçûìÿííûé_ãðàäèåíò_3-3);}.cls-13{fill:url(#Áåçûìÿííûé_ãðàäèåíò_3-4);}.cls-14{fill:url(#Áåçûìÿííûé_ãðàäèåíò_3-5);}.cls-15{fill:url(#Áåçûìÿííûé_ãðàäèåíò_3-6);}.cls-16{fill:url(#Áåçûìÿííûé_ãðàäèåíò_3-7);}.cls-17{fill:url(#Áåçûìÿííûé_ãðàäèåíò_3-8);}.cls-18{fill:url(#Áåçûìÿííûé_ãðàäèåíò_3-9);}.cls-19{fill:url(#Áåçûìÿííûé_ãðàäèåíò_3-10);}.cls-20{fill:url(#Áåçûìÿííûé_ãðàäèåíò_3-11);}.cls-21{fill:url(#Áåçûìÿííûé_ãðàäèåíò_3-12);}.cls-22{fill:url(#Áåçûìÿííûé_ãðàäèåíò_3-13);}.cls-23{fill:url(#Áåçûìÿííûé_ãðàäèåíò_3-14);}.cls-24{fill:url(#Áåçûìÿííûé_ãðàäèåíò_3-15);}.cls-26{fill:#180d5b;opacity:0.2;}.cls-27{fill:#606060;}.cls-28{fill:#0d1214;}.cls-29{fill:url(#Áåçûìÿííûé_ãðàäèåíò_3-17);}.cls-30{fill:url(#Áåçûìÿííûé_ãðàäèåíò_3-18);}.cls-31{fill:#fcd1c5;}.cls-32{fill:url(#linear-gradient-6);}.cls-33{fill:#aa8383;}.cls-34{fill:#c4ccd6;}.cls-35{fill:#e2b1a6;}.cls-36{fill:#4846a5;}.cls-37{fill:#1b2b3a;}.cls-38{fill:#936d6d;}.cls-39{fill:url(#Áåçûìÿííûé_ãðàäèåíò_3-19);}.cls-40{fill:url(#linear-gradient-7);}.cls-41{fill:url(#Áåçûìÿííûé_ãðàäèåíò_3-20);}.cls-42{fill:#c5c7c9;}.cls-43{fill:url(#Áåçûìÿííûé_ãðàäèåíò_3-21);}.cls-44{fill:url(#linear-gradient-8);}.cls-45{fill:url(#linear-gradient-9);}.cls-46{fill:url(#linear-gradient-10);}.cls-47{mix-blend-mode:lighten;}.cls-48{fill:url(#linear-gradient-11);}.cls-49{fill:url(#linear-gradient-12);}.cls-50{fill:#0f054c;}.cls-51{fill:url(#linear-gradient-13);}.cls-52{fill:url(#linear-gradient-14);}.cls-53{fill:url(#linear-gradient-15);}.cls-54{fill:url(#linear-gradient-16);}.cls-55{fill:#17479d;}.cls-56{fill:url(#linear-gradient-17);}.cls-57{fill:url(#linear-gradient-18);}.cls-58{opacity:0.8;}.cls-59{fill:url(#linear-gradient-19);}.cls-60{fill:url(#linear-gradient-20);}.cls-61{fill:url(#linear-gradient-21);}.cls-62{fill:url(#linear-gradient-22);}.cls-63{fill:url(#linear-gradient-23);}.cls-64{fill:url(#linear-gradient-24);}.cls-65{fill:#ec1c24;}.cls-66{fill:url(#linear-gradient-25);}.cls-67{fill:url(#linear-gradient-26);}.cls-68{fill:url(#linear-gradient-27);}.cls-69{fill:url(#linear-gradient-28);}.cls-70{fill:url(#linear-gradient-29);}.cls-71{fill:url(#linear-gradient-30);}.cls-72{fill:url(#linear-gradient-31);}.cls-73{fill:url(#linear-gradient-32);}.cls-74{fill:url(#linear-gradient-33);}.cls-75{fill:url(#linear-gradient-34);}.cls-76{fill:url(#linear-gradient-35);}.cls-77{fill:url(#linear-gradient-36);}.cls-78{fill:url(#linear-gradient-37);}.cls-79{fill:url(#linear-gradient-38);}.cls-80{fill:url(#linear-gradient-39);}.cls-81{fill:url(#linear-gradient-40);}.cls-82{fill:url(#linear-gradient-41);}.cls-83{fill:url(#linear-gradient-42);}.cls-84{opacity:0.6;}.cls-85{opacity:0.5;}.cls-86{fill:url(#linear-gradient-43);}.cls-87{fill:url(#linear-gradient-44);}.cls-88{fill:url(#linear-gradient-45);}.cls-89{fill:#42e8e0;}.cls-90{fill:url(#linear-gradient-46);}</style><linearGradient id="linear-gradient" x1="380.44" y1="118.26" x2="394.13" y2="94.54" gradientUnits="userSpaceOnUse"><stop offset="0" stop-color="#ec1c24"/><stop offset="0.17" stop-color="#ed2524"/><stop offset="0.44" stop-color="#ef3d23"/><stop offset="0.78" stop-color="#f26521"/><stop offset="1" stop-color="#f48120"/></linearGradient><linearGradient id="linear-gradient-2" x1="345.53" y1="82.06" x2="319.47" y2="97.11" gradientUnits="userSpaceOnUse"><stop offset="0" stop-color="#17479d"/><stop offset="0.15" stop-color="#1d60a9"/><stop offset="0.4" stop-color="#2686ba"/><stop offset="0.63" stop-color="#2ca1c7"/><stop offset="0.84" stop-color="#30b1ce"/><stop offset="1" stop-color="#31b7d1"/></linearGradient><linearGradient id="linear-gradient-3" x1="265.95" y1="41.24" x2="213.73" y2="71.39" xlink:href="#linear-gradient-2"/><linearGradient id="linear-gradient-4" x1="190.09" y1="99.44" x2="227.77" y2="34.18" xlink:href="#linear-gradient"/><linearGradient id="linear-gradient-5" x1="204.49" y1="11.89" x2="154.03" y2="99.28" xlink:href="#linear-gradient-2"/><linearGradient id="Áåçûìÿííûé_ãðàäèåíò_3" x1="142.62" y1="414.43" x2="349.54" y2="414.43" gradientUnits="userSpaceOnUse"><stop offset="0" stop-color="#5761d7"/><stop offset="0.07" stop-color="#5472d8"/><stop offset="0.28" stop-color="#4e9cdb"/><stop offset="0.48" stop-color="#49bddd"/><stop offset="0.67" stop-color="#45d5df"/><stop offset="0.85" stop-color="#43e3e0"/><stop offset="1" stop-color="#42e8e0"/></linearGradient><linearGradient id="Áåçûìÿííûé_ãðàäèåíò_3-2" x1="142.62" y1="398.52" x2="349.54" y2="398.52" xlink:href="#Áåçûìÿííûé_ãðàäèåíò_3"/><linearGradient id="Áåçûìÿííûé_ãðàäèåíò_3-3" x1="142.62" y1="382.6" x2="349.54" y2="382.6" xlink:href="#Áåçûìÿííûé_ãðàäèåíò_3"/><linearGradient id="Áåçûìÿííûé_ãðàäèåíò_3-4" x1="142.62" y1="366.68" x2="349.54" y2="366.68" xlink:href="#Áåçûìÿííûé_ãðàäèåíò_3"/><linearGradient id="Áåçûìÿííûé_ãðàäèåíò_3-5" x1="142.62" y1="390.56" x2="349.54" y2="390.56" xlink:href="#Áåçûìÿííûé_ãðàäèåíò_3"/><linearGradient id="Áåçûìÿííûé_ãðàäèåíò_3-6" x1="142.62" y1="348.58" x2="349.54" y2="348.58" xlink:href="#Áåçûìÿííûé_ãðàäèåíò_3"/><linearGradient id="Áåçûìÿííûé_ãðàäèåíò_3-7" x1="142.62" y1="332.67" x2="349.54" y2="332.67" xlink:href="#Áåçûìÿííûé_ãðàäèåíò_3"/><linearGradient id="Áåçûìÿííûé_ãðàäèåíò_3-8" x1="142.62" y1="316.75" x2="349.54" y2="316.75" xlink:href="#Áåçûìÿííûé_ãðàäèåíò_3"/><linearGradient id="Áåçûìÿííûé_ãðàäèåíò_3-9" x1="142.62" y1="300.83" x2="349.54" y2="300.83" xlink:href="#Áåçûìÿííûé_ãðàäèåíò_3"/><linearGradient id="Áåçûìÿííûé_ãðàäèåíò_3-10" x1="142.62" y1="324.71" x2="349.54" y2="324.71" xlink:href="#Áåçûìÿííûé_ãðàäèåíò_3"/><linearGradient id="Áåçûìÿííûé_ãðàäèåíò_3-11" x1="142.62" y1="282.74" x2="349.54" y2="282.74" xlink:href="#Áåçûìÿííûé_ãðàäèåíò_3"/><linearGradient id="Áåçûìÿííûé_ãðàäèåíò_3-12" x1="142.62" y1="266.82" x2="349.54" y2="266.82" xlink:href="#Áåçûìÿííûé_ãðàäèåíò_3"/><linearGradient id="Áåçûìÿííûé_ãðàäèåíò_3-13" x1="142.62" y1="250.9" x2="349.54" y2="250.9" xlink:href="#Áåçûìÿííûé_ãðàäèåíò_3"/><linearGradient id="Áåçûìÿííûé_ãðàäèåíò_3-14" x1="142.62" y1="234.98" x2="349.54" y2="234.98" xlink:href="#Áåçûìÿííûé_ãðàäèåíò_3"/><linearGradient id="Áåçûìÿííûé_ãðàäèåíò_3-15" x1="142.62" y1="258.86" x2="349.54" y2="258.86" xlink:href="#Áåçûìÿííûé_ãðàäèåíò_3"/><linearGradient id="Áåçûìÿííûé_ãðàäèåíò_3-17" x1="227.36" y1="193.13" x2="236.32" y2="193.13" xlink:href="#Áåçûìÿííûé_ãðàäèåíò_3"/><linearGradient id="Áåçûìÿííûé_ãðàäèåíò_3-18" x1="231.92" y1="173.45" x2="254.35" y2="173.45" xlink:href="#Áåçûìÿííûé_ãðàäèåíò_3"/><linearGradient id="linear-gradient-6" x1="259.44" y1="151.22" x2="220.77" y2="84.24" gradientUnits="userSpaceOnUse"><stop offset="0" stop-color="#17479d"/><stop offset="0.16" stop-color="#1950a1"/><stop offset="0.41" stop-color="#1f68ac"/><stop offset="0.73" stop-color="#2890bf"/><stop offset="1" stop-color="#31b7d1"/></linearGradient><linearGradient id="Áåçûìÿííûé_ãðàäèåíò_3-19" x1="263.56" y1="279.55" x2="278.3" y2="279.55" gradientTransform="matrix(1, -0.09, 0.09, 1, -18.87, -23.93)" xlink:href="#Áåçûìÿííûé_ãðàäèåíò_3"/><linearGradient id="linear-gradient-7" x1="249.58" y1="198.11" x2="293.03" y2="122.86" xlink:href="#linear-gradient-6"/><linearGradient id="Áåçûìÿííûé_ãðàäèåíò_3-20" x1="280.59" y1="164.63" x2="282.67" y2="164.63" gradientTransform="matrix(1, -0.09, 0.09, 1, -18.87, -23.93)" xlink:href="#Áåçûìÿííûé_ãðàäèåíò_3"/><linearGradient id="Áåçûìÿííûé_ãðàäèåíò_3-21" x1="230.69" y1="271.6" x2="259.31" y2="271.6" gradientTransform="matrix(1, -0.09, 0.09, 1, -18.87, -23.93)" xlink:href="#Áåçûìÿííûé_ãðàäèåíò_3"/><linearGradient id="linear-gradient-8" x1="232.21" y1="212.12" x2="262.8" y2="212.12" xlink:href="#linear-gradient-6"/><linearGradient id="linear-gradient-9" x1="246.76" y1="261.25" x2="250.41" y2="261.25" gradientTransform="matrix(1, -0.09, 0.09, 1, -18.87, -23.93)" xlink:href="#linear-gradient-6"/><linearGradient id="linear-gradient-10" x1="239.87" y1="254.34" x2="243.51" y2="254.34" gradientTransform="matrix(1, -0.09, 0.09, 1, -18.87, -23.93)" xlink:href="#linear-gradient-6"/><linearGradient id="linear-gradient-11" x1="47.75" y1="207.24" x2="192.74" y2="207.24" gradientUnits="userSpaceOnUse"><stop offset="0" stop-color="#b6c5ce"/><stop offset="0.35" stop-color="#dceef9"/><stop offset="1" stop-color="#b6c5ce"/></linearGradient><linearGradient id="linear-gradient-12" x1="75.72" y1="187.64" x2="188.87" y2="187.64" gradientUnits="userSpaceOnUse"><stop offset="0" stop-color="#cce0ed"/><stop offset="0.13" stop-color="#d8e7f1"/><stop offset="0.44" stop-color="#eef4f9"/><stop offset="0.73" stop-color="#fbfcfd"/><stop offset="1" stop-color="#fff"/></linearGradient><linearGradient id="linear-gradient-13" x1="88.78" y1="187.65" x2="175.81" y2="187.65" gradientUnits="userSpaceOnUse"><stop offset="0" stop-color="#e72429"/><stop offset="0.2" stop-color="#e72829"/><stop offset="0.42" stop-color="#e93528"/><stop offset="0.63" stop-color="#eb4926"/><stop offset="0.85" stop-color="#ee6623"/><stop offset="1" stop-color="#f17f21"/></linearGradient><linearGradient id="linear-gradient-14" x1="132.3" y1="171.92" x2="175.81" y2="171.92" xlink:href="#linear-gradient-13"/><linearGradient id="linear-gradient-15" x1="88.78" y1="171.92" x2="132.3" y2="171.92" xlink:href="#linear-gradient-13"/><linearGradient id="linear-gradient-16" x1="88.78" y1="181.31" x2="175.81" y2="181.31" xlink:href="#linear-gradient-6"/><linearGradient id="linear-gradient-17" x1="132.3" y1="197.04" x2="175.81" y2="197.04" xlink:href="#linear-gradient-6"/><linearGradient id="linear-gradient-18" x1="88.78" y1="197.04" x2="132.3" y2="197.04" xlink:href="#linear-gradient-6"/><linearGradient id="linear-gradient-19" x1="47.75" y1="355.63" x2="192.74" y2="355.63" xlink:href="#linear-gradient-11"/><linearGradient id="linear-gradient-20" x1="75.72" y1="336.03" x2="188.87" y2="336.03" xlink:href="#linear-gradient-12"/><linearGradient id="linear-gradient-21" x1="88.78" y1="336.04" x2="175.81" y2="336.04" xlink:href="#linear-gradient-13"/><linearGradient id="linear-gradient-22" x1="132.3" y1="320.31" x2="175.81" y2="320.31" xlink:href="#linear-gradient-13"/><linearGradient id="linear-gradient-23" x1="88.78" y1="320.31" x2="132.3" y2="320.31" xlink:href="#linear-gradient-13"/><linearGradient id="linear-gradient-24" x1="88.78" y1="329.7" x2="175.81" y2="329.7" xlink:href="#linear-gradient"/><linearGradient id="linear-gradient-25" x1="132.3" y1="345.43" x2="175.81" y2="345.43" xlink:href="#linear-gradient"/><linearGradient id="linear-gradient-26" x1="88.78" y1="345.43" x2="132.3" y2="345.43" xlink:href="#linear-gradient"/><linearGradient id="linear-gradient-27" x1="274.51" y1="207.24" x2="419.5" y2="207.24" xlink:href="#linear-gradient-11"/><linearGradient id="linear-gradient-28" x1="302.49" y1="187.64" x2="415.63" y2="187.64" xlink:href="#linear-gradient-12"/><linearGradient id="linear-gradient-29" x1="315.55" y1="187.65" x2="402.57" y2="187.65" xlink:href="#linear-gradient-13"/><linearGradient id="linear-gradient-30" x1="359.06" y1="171.92" x2="402.57" y2="171.92" xlink:href="#linear-gradient-13"/><linearGradient id="linear-gradient-31" x1="315.55" y1="171.92" x2="359.06" y2="171.92" xlink:href="#linear-gradient-13"/><linearGradient id="linear-gradient-32" x1="315.55" y1="181.31" x2="402.57" y2="181.31" xlink:href="#linear-gradient"/><linearGradient id="linear-gradient-33" x1="359.06" y1="197.04" x2="402.57" y2="197.04" xlink:href="#linear-gradient"/><linearGradient id="linear-gradient-34" x1="315.55" y1="197.04" x2="359.06" y2="197.04" xlink:href="#linear-gradient"/><linearGradient id="linear-gradient-35" x1="274.51" y1="355.63" x2="419.5" y2="355.63" xlink:href="#linear-gradient-11"/><linearGradient id="linear-gradient-36" x1="302.49" y1="336.03" x2="415.63" y2="336.03" xlink:href="#linear-gradient-12"/><linearGradient id="linear-gradient-37" x1="315.55" y1="336.04" x2="402.57" y2="336.04" xlink:href="#linear-gradient-13"/><linearGradient id="linear-gradient-38" x1="359.06" y1="320.31" x2="402.57" y2="320.31" xlink:href="#linear-gradient-13"/><linearGradient id="linear-gradient-39" x1="315.55" y1="320.31" x2="359.06" y2="320.31" xlink:href="#linear-gradient-13"/><linearGradient id="linear-gradient-40" x1="315.55" y1="329.7" x2="402.57" y2="329.7" xlink:href="#linear-gradient-6"/><linearGradient id="linear-gradient-41" x1="359.06" y1="345.43" x2="402.57" y2="345.43" xlink:href="#linear-gradient-6"/><linearGradient id="linear-gradient-42" x1="315.55" y1="345.43" x2="359.06" y2="345.43" xlink:href="#linear-gradient-6"/><linearGradient id="linear-gradient-43" x1="52.46" y1="100.96" x2="-1.93" y2="132.36" xlink:href="#linear-gradient-2"/><linearGradient id="linear-gradient-44" x1="-3.85" y1="178.97" x2="30.52" y2="119.43" xlink:href="#linear-gradient"/><linearGradient id="linear-gradient-45" x1="-1.53" y1="196.88" x2="1.64" y2="191.38" xlink:href="#linear-gradient"/><linearGradient id="linear-gradient-46" x1="112.05" y1="37.05" x2="64.84" y2="64.31" xlink:href="#linear-gradient-2"/></defs><title>header-object</title><g class="cls-1"><g id="Layer_1" data-name="Layer 1"><g id="Header_Object" data-name="Header Object"><path class="cls-2" d="M381.47,90.75q5.92,1.53,11.63,3.19v28.11q-5.72-1.67-11.63-3.19V90.75Z" transform="translate(-0.98 -1.13)"/><path class="cls-3" d="M354.53,91.92q6.33,1.22,12.48,2.58v20.89q-6.15-1.36-12.48-2.57V91.92Z" transform="translate(-0.98 -1.13)"/><path class="cls-4" d="M325.89,69q6.69.87,13.22,1.89v39.2q-6.53-1-13.22-1.9V69Z" transform="translate(-0.98 -1.13)"/><path class="cls-3" d="M295.78,44.33q7,.51,13.86,1.18v60.87q-6.87-.67-13.86-1.18V44.33Z" transform="translate(-0.98 -1.13)"/><path class="cls-3" d="M264.38,57.4q7.28.12,14.44.41v46.44q-7.17-.3-14.44-.41V57.4Z" transform="translate(-0.98 -1.13)"/><path class="cls-5" d="M232.69,8.79q7.09-.29,14.3-.4v95.45q-7.2.1-14.3.39V8.79Z" transform="translate(-0.98 -1.13)"/><path class="cls-6" d="M202,28.44q6.84-.66,13.8-1.16v77.89q-7,.49-13.8,1.16V28.44Z" transform="translate(-0.98 -1.13)"/><path class="cls-7" d="M172.67,3q6.51-1,13.18-1.88v107q-6.67.87-13.18,1.88V3Z" transform="translate(-0.98 -1.13)"/><g class="cls-8"><g class="cls-9"><path class="cls-10" d="M254.08,357.91a15.88,15.88,0,0,0-15.85,0l-94.49,54.43a2.23,2.23,0,0,0,0,3.87l95.28,55a14,14,0,0,0,14,0l95.42-54.95a2.23,2.23,0,0,0,0-3.87Z" transform="translate(-0.98 -1.13)"/></g><g class="cls-9"><path class="cls-11" d="M254.08,342a15.83,15.83,0,0,0-15.85,0l-94.49,54.42a2.23,2.23,0,0,0,0,3.87l95.28,55a14,14,0,0,0,14,0l95.42-55a2.23,2.23,0,0,0,0-3.86Z" transform="translate(-0.98 -1.13)"/></g><g class="cls-9"><path class="cls-12" d="M254.08,326.08a15.86,15.86,0,0,0-15.85,0L143.74,380.5a2.23,2.23,0,0,0,0,3.86l95.28,55a14,14,0,0,0,14,0l95.42-55a2.23,2.23,0,0,0,0-3.86Z" transform="translate(-0.98 -1.13)"/></g><g class="cls-9"><path class="cls-13" d="M254.08,310.16a15.88,15.88,0,0,0-15.85,0l-94.49,54.43a2.23,2.23,0,0,0,0,3.86l95.28,55a14,14,0,0,0,14,0l95.42-54.95a2.23,2.23,0,0,0,0-3.87Z" transform="translate(-0.98 -1.13)"/></g><path class="cls-14" d="M348.43,364.63l-94.35-54.47a15.88,15.88,0,0,0-15.85,0l-94.49,54.43a2.22,2.22,0,0,0-1.12,1.93v47.75a2.23,2.23,0,0,0,1.12,1.94l95.28,55a14,14,0,0,0,14,0l95.42-54.95a2.21,2.21,0,0,0,1.11-1.93V366.56h0A2.21,2.21,0,0,0,348.43,364.63Z" transform="translate(-0.98 -1.13)"/></g><g class="cls-9"><path class="cls-15" d="M254.08,292.06a15.86,15.86,0,0,0-15.85,0l-94.49,54.42a2.23,2.23,0,0,0,0,3.87l95.28,55a14,14,0,0,0,14,0l95.42-55a2.23,2.23,0,0,0,0-3.86Z" transform="translate(-0.98 -1.13)"/></g><g class="cls-9"><path class="cls-16" d="M254.08,276.15a15.83,15.83,0,0,0-15.85,0l-94.49,54.43a2.23,2.23,0,0,0,0,3.86l95.28,55a14,14,0,0,0,14,0l95.42-55a2.23,2.23,0,0,0,0-3.86Z" transform="translate(-0.98 -1.13)"/></g><g class="cls-9"><path class="cls-17" d="M254.08,260.23a15.86,15.86,0,0,0-15.85,0l-94.49,54.43a2.23,2.23,0,0,0,0,3.86l95.28,55a14,14,0,0,0,14,0l95.42-55a2.23,2.23,0,0,0,0-3.86Z" transform="translate(-0.98 -1.13)"/></g><g class="cls-9"><path class="cls-18" d="M254.08,244.31a15.88,15.88,0,0,0-15.85,0l-94.49,54.43a2.23,2.23,0,0,0,0,3.87l95.28,55a14,14,0,0,0,14,0l95.42-55a2.23,2.23,0,0,0,0-3.87Z" transform="translate(-0.98 -1.13)"/></g><path class="cls-19" d="M348.43,298.78l-94.35-54.47a15.88,15.88,0,0,0-15.85,0l-94.49,54.43a2.22,2.22,0,0,0-1.12,1.93v47.76a2.22,2.22,0,0,0,1.12,1.93l95.28,55a14,14,0,0,0,14,0l95.42-55a2.21,2.21,0,0,0,1.11-1.93V300.71h0A2.21,2.21,0,0,0,348.43,298.78Z" transform="translate(-0.98 -1.13)"/><g class="cls-9"><path class="cls-20" d="M254.08,226.22a15.83,15.83,0,0,0-15.85,0l-94.49,54.42a2.23,2.23,0,0,0,0,3.87l95.28,55a14,14,0,0,0,14,0l95.42-55a2.23,2.23,0,0,0,0-3.86Z" transform="translate(-0.98 -1.13)"/></g><g class="cls-9"><path class="cls-21" d="M254.08,210.3a15.86,15.86,0,0,0-15.85,0l-94.49,54.43a2.23,2.23,0,0,0,0,3.86l95.28,55a14,14,0,0,0,14,0l95.42-55a2.23,2.23,0,0,0,0-3.86Z" transform="translate(-0.98 -1.13)"/></g><g class="cls-9"><path class="cls-22" d="M254.08,194.38a15.88,15.88,0,0,0-15.85,0L143.74,248.8a2.23,2.23,0,0,0,0,3.86l95.28,55a14,14,0,0,0,14,0l95.42-55a2.23,2.23,0,0,0,0-3.87Z" transform="translate(-0.98 -1.13)"/></g><g class="cls-9"><path class="cls-23" d="M254.08,178.46a15.88,15.88,0,0,0-15.85,0l-94.49,54.43a2.23,2.23,0,0,0,0,3.87l95.28,55a14,14,0,0,0,14,0l95.42-54.95a2.23,2.23,0,0,0,0-3.87Z" transform="translate(-0.98 -1.13)"/></g><path class="cls-24" d="M348.43,232.93l-94.35-54.47a15.88,15.88,0,0,0-15.85,0l-94.49,54.43a2.22,2.22,0,0,0-1.12,1.93v47.76a2.22,2.22,0,0,0,1.12,1.93l95.28,55a14,14,0,0,0,14,0l95.42-55a2.21,2.21,0,0,0,1.11-1.93V234.87h0A2.22,2.22,0,0,0,348.43,232.93Z" transform="translate(-0.98 -1.13)"/><g class="cls-9"><path class="cls-23" d="M254.08,178.46a15.88,15.88,0,0,0-15.85,0l-94.49,54.43a2.23,2.23,0,0,0,0,3.87l95.28,55a14,14,0,0,0,14,0l95.42-54.95a2.23,2.23,0,0,0,0-3.87Z" transform="translate(-0.98 -1.13)"/></g><path class="cls-3" d="M348.43,234.6l-95.42,55a14,14,0,0,1-14,0l-95.28-55a2.23,2.23,0,0,1-.83-.84,2.24,2.24,0,0,0,.83,3l95.28,55a14,14,0,0,0,14,0l95.42-54.95a2.24,2.24,0,0,0,.83-3A2.2,2.2,0,0,1,348.43,234.6Z" transform="translate(-0.98 -1.13)"/><polygon class="cls-25" points="152.75 250.29 155.1 251.64 155.1 250.07 152.75 248.71 152.75 250.29"/><polygon class="cls-25" points="152.75 260.93 155.1 262.29 155.1 253.08 152.75 251.72 152.75 260.93"/><polygon class="cls-25" points="152.75 266.02 155.1 267.38 155.1 263.72 152.75 262.36 152.75 266.02"/><polygon class="cls-25" points="152.75 271.29 155.1 272.65 155.1 268.99 152.75 267.64 152.75 271.29"/><polygon class="cls-25" points="149.25 253.35 151.6 254.71 151.6 251.06 149.25 249.7 149.25 253.35"/><polygon class="cls-25" points="149.25 260.34 151.6 261.7 151.6 256.33 149.25 254.97 149.25 260.34"/><polygon class="cls-25" points="149.25 266.77 151.6 268.13 151.6 263.52 149.25 262.17 149.25 266.77"/><polygon class="cls-25" points="152.75 276.57 155.1 277.93 155.1 274.27 152.75 272.91 152.75 276.57"/><polygon class="cls-25" points="149.25 248.26 151.6 249.62 151.6 248.05 149.25 246.69 149.25 248.26"/><polygon class="cls-25" points="151 280.68 155.1 283.04 155.1 281.52 151 279.15 151 280.68"/><ellipse class="cls-26" cx="245.11" cy="233.85" rx="50.73" ry="29.29"/><path class="cls-27" d="M246.35,210.85l.09.45.14-.3s.7,2.36.1,3.54a27.85,27.85,0,0,1-2.72,4.29c-1.26,1.65-3.27,5.08-3.79,5.74a12.89,12.89,0,0,1-7.43,3.62c-3.83.4-4.8-1.79-4.49-3s2.38-4.33,4.63-6.89a34.81,34.81,0,0,0,4-5.87Z" transform="translate(-0.98 -1.13)"/><path class="cls-27" d="M234.84,200.45a17.41,17.41,0,0,1-.14,3.46c-.26,1-5.89,1.33-7.89,1.59a28.71,28.71,0,0,0-6.57,2.22c-1.09.53-8.4,1.3-9.29-1.39s3.66-5,6.75-5.66,8.14-2.26,8.14-2.26Z" transform="translate(-0.98 -1.13)"/><path class="cls-28" d="M254.35,151.8a68.66,68.66,0,0,1-2.1,16.4,64.42,64.42,0,0,0-2,16.16s2.4,10.77.29,18.11-3.91,9.4-3.91,9.4-4.23,5.6-9.77.58c0,0,3.11-10.09,3.48-18.12a54.63,54.63,0,0,1-3.69-11.16s-.8,8.36-1.27,11.74c0,0,.47,5-.85,7s-7.29,2.59-9.19-.9,1.59-1.78.53-17.82c0,0-5.49-6.85-6.29-19.45s-.71-17.59,0-20.05,12.89-11.3,12.89-11.3l6.87,8.77Z" transform="translate(-0.98 -1.13)"/><path class="cls-29" d="M236.32,186.28c-.33-1.16-.63-2.35-.84-3.51,0,0-.8,8.36-1.27,11.74,0,0,.47,5-.85,7-.85,1.3-3.62,2-6,1.4,2.55,1.22,6.16.51,7.15-1,1.32-2,.85-7,.85-7C235.65,192.87,236.05,189,236.32,186.28Z" transform="translate(-0.98 -1.13)"/><path class="cls-30" d="M254.35,151.8l-15-10.66-6.87-8.77-.53.39,6.25,8,15,10.66a68.62,68.62,0,0,1-2.1,16.4,64.47,64.47,0,0,0-2,16.17s2.4,10.76.29,18.11-3.91,9.4-3.91,9.4-2.6,3.41-6.38,2.49c4.4,2,7.53-2.09,7.53-2.09s1.8-2.06,3.91-9.4-.29-18.11-.29-18.11a64.42,64.42,0,0,1,2-16.16A68.66,68.66,0,0,0,254.35,151.8Z" transform="translate(-0.98 -1.13)"/><path class="cls-27" d="M227.25,165.86c-2-2.38-3.09-9.83-3.09-9.83s3.09,6.26,5.31,8.09A15,15,0,0,1,234,172c.4,2.38,2.65,11.21,2.65,11.21s-.8,8.36-1.27,11.74c0,0,.47,5-.85,7a3.06,3.06,0,0,1-1.3,1c0-.09.34-11.07,0-15.73S229.23,168.24,227.25,165.86Z" transform="translate(-0.98 -1.13)"/><path class="cls-28" d="M272.63,101s5.25,10.26,5.78,11,10.35,13.31,11.31,20.55c0,0,.73,2.8-2.65,5.28s-20.44,13.31-21.5,13.47-7.23-2.85-7.5-9.61c0,0,13.37-6.23,16.27-9.35,0,0-5.2-8.74-7.75-11.32a5.93,5.93,0,0,1-1.22-3.23,17.61,17.61,0,0,1,5.71-15.42Z" transform="translate(-0.98 -1.13)"/><path class="cls-28" d="M233.39,77s-8.12,3-10.9,2-9.58-1.91-14.26-4.52-25.09-7.88-28.11-8.07c0,0-.06.12.44.33a3.79,3.79,0,0,1,3.17,2.77,7.5,7.5,0,0,1-1,5.43c-.34.2-.54-.65-2.49-1.54a7.67,7.67,0,0,0-3.16-.85l-.74.94-.45.69s1,2.87,3.58,3.07,19.42,7.21,20.47,7.53,15.16,6.4,17.8,7.35a30,30,0,0,1,4.71,2.16s8.24-5.5,8.5-5.5S233.39,77,233.39,77Z" transform="translate(-0.98 -1.13)"/><path class="cls-31" d="M160,62.93c.34.08,4.6,1.51,4.6,1.51s-1.69.87-1.85,1.63a26.21,26.21,0,0,0,.5,5.34,6.36,6.36,0,0,0,1.29,1c.27.16.93,1.64,1.54,1.45s.79-1,.79-1,.47-.23.62-.33a10.68,10.68,0,0,1,4.18.84,7,7,0,0,0,4.24.7A19.47,19.47,0,0,0,178.49,73a6.73,6.73,0,0,1,1.63.46c.58.3,2.43,1.54,2.7,1.65s4.07-7.33-2.7-8.73a16.5,16.5,0,0,1-4-.83c-1.22-.58-4.65-3.22-5.92-3.28a8.44,8.44,0,0,0-2.56.37s-7.66-2.19-8.29-1.5S159.61,62.85,160,62.93Zm5.54,5.1A2.15,2.15,0,0,0,167,67.1a1,1,0,0,0,1.18-.09c0,.14,1.05.34,1.05.34s.47.39,1.07.83-.2,1.72-.2,1.72a3.92,3.92,0,0,1-1.81-.5,10.86,10.86,0,0,0-1.46-.39A9,9,0,0,1,165.49,68Z" transform="translate(-0.98 -1.13)"/><path class="cls-25" d="M219.56,143.67c.72-2.45,12.89-11.3,12.89-11.3l3.41,4.35,2.93,11.39L254.35,153h0s-.83,7.78-13.5,6.89-14.16-10.73-14.16-10.73-1.4,3.23-7.65,4.07C218.9,148,219.1,145.28,219.56,143.67Z" transform="translate(-0.98 -1.13)"/><path class="cls-32" d="M257.23,83.35l2.14,5.49s10.31,8.92,13.26,12.14c0,0-5.09,9.77-6,20.07a64.69,64.69,0,0,0-6.14,5.61c-1.43,1.77-5,10-6.18,12.66s2.06,10.81,2.06,10.81-4.38,8.1-11.44,7.83-11.86-4.57-12.75-12.23-.64-8.77-.64-8.77-3.17,9.41-8,9.41-12.45-8.16-12.45-8.16-5.15-4.68-4.67-6.79S218.53,111,219.17,108s3.25-13.79,3.25-13.79l11-17.28,6.69.32Z" transform="translate(-0.98 -1.13)"/><path class="cls-27" d="M244.6,156c-6.75-.25-11.4-4.24-12.58-11.29,0,.32.07.64.12,1,.89,7.66,5.7,12,12.75,12.23s11.44-7.83,11.44-7.83-.23-.59-.55-1.5C254.76,150.29,250.68,156.26,244.6,156Z" transform="translate(-0.98 -1.13)"/><path class="cls-25" d="M257.23,83.35A19.06,19.06,0,0,1,256,89.87c-1.3,3.25-5.52,21.55-15.11,27.81L237.19,120V108.37s.07-7.17,1.71-11.71a33.87,33.87,0,0,0,1.58-10.09s2.69-.74,2.69-.69S257.23,83.35,257.23,83.35Z" transform="translate(-0.98 -1.13)"/><path class="cls-31" d="M245.41,91.85s-1.7.69-2.43-.41a8.13,8.13,0,0,1-1.29-4.38s-4.54.22-5.43-2.15.08-3,.22-3.74a18.92,18.92,0,0,1,.89-4.1l.06-.6s-.92-.8-.5-1.63,2.9-3.42,3.15-3.85-.06-3.65.9-5.25a39.14,39.14,0,0,1,2.83-3.81s9.67-7.54,17.27,0-3.85,21.42-3.85,21.42-.92,4.48-3.14,6.26S245.41,91.85,245.41,91.85Z" transform="translate(-0.98 -1.13)"/><path class="cls-33" d="M252.48,73.49a2.51,2.51,0,0,1,.12-.82,4,4,0,0,0-1.55-4.75c-2.91-2.11-8-4-7.87-6.13s8.24-7.34,14.21-4.54,11.57,9.88,7.5,17.38-7.66,8.72-7.66,8.72-1.22-.25-.13-1.5,3.07-4.4,1.43-5.39-4.5,1.15-4.87,1.62a7,7,0,0,0-.43.63.8.8,0,0,1-1,.33l-.14-.07a.81.81,0,0,1-.41-1l.72-1.94a2.8,2.8,0,0,0,.15-.91Z" transform="translate(-0.98 -1.13)"/><path class="cls-34" d="M245.66,94a11.55,11.55,0,0,1,3.42,4.47s-2.3-2.38-3.61-2.85c0,0-2.53,1.18-2.53,2a52.92,52.92,0,0,1-.83,8.1c-.6,2.55-.53,11.53-.53,11.53l-1.6,1.06-.77-3.93.3-8.4L241,98.27s.27-2.89.39-3S245.66,94,245.66,94Z" transform="translate(-0.98 -1.13)"/><path class="cls-28" d="M245.66,94s-2.46-2.61-3.7-2.66a2,2,0,0,0-1.93.77c0,.15-1.19,4.24-1.19,4.24a51.16,51.16,0,0,0-2.08,15.46c.24,8.32.43,8.25.43,8.25l3.05-1.93a38.22,38.22,0,0,1,.84-12.85c1.66-6.89.19-7.92,1-8.63S246,94.81,245.66,94Z" transform="translate(-0.98 -1.13)"/><path class="cls-28" d="M260.45,126.66c-1.43,1.77-5,10-6.1,12.64A4.17,4.17,0,0,0,254,141l-.46.31L252,139.79s1.39-5,3.61-11.17,11-7.57,11-7.57A64.69,64.69,0,0,0,260.45,126.66Z" transform="translate(-0.98 -1.13)"/><path class="cls-31" d="M258.07,141.93s-2.51-3.64-3.3-4.12c0,0,.19,1-1.24,1.66s-8.89,3.53-9.15,3.87,0,.75.5.85a9.86,9.86,0,0,1-2.18.51c-.63,0-1.48.8-1.06,1.48s.78.64.78.64-.18.76.28.93a6.6,6.6,0,0,0,1.57.2s-.22.77.4,1.07a22.62,22.62,0,0,0,3.64.64s2.37-.26,3-.27,3.75.74,5.06.56a39.94,39.94,0,0,0,6.06-2C262.91,147.71,258.07,141.93,258.07,141.93Z" transform="translate(-0.98 -1.13)"/><path class="cls-25" d="M259.86,90.62l-.32,4.92-2.66.83,1.79,1.46s-7.2,16.37-16.39,21.54c0,0,8.77-3.11,17.06-21.39,0,0-.87-1-1.14-1.32l1.85-.82Z" transform="translate(-0.98 -1.13)"/><path class="cls-25" d="M236.36,90.11s-3.26,16.69-.48,29.26c0,0-3.34-6-.32-29.26Z" transform="translate(-0.98 -1.13)"/><path class="cls-35" d="M162.87,65.71a5.87,5.87,0,0,1,1.68-1.27s3.47,1.41,4.06,1.69C168.61,66.13,165.05,65.75,162.87,65.71Z" transform="translate(-0.98 -1.13)"/><path class="cls-35" d="M182.82,75.08c-.14,0-.69-.41-1.28-.78h0c2.31-3.1-.23-7.59-.24-7.6C186.41,68.68,183.08,75.18,182.82,75.08Z" transform="translate(-0.98 -1.13)"/><path class="cls-35" d="M262.47,148a41.83,41.83,0,0,1-4.57,1.61s-1.15-4.51-.89-6,.89-1.87.89-1.87l.17.24S262.91,147.71,262.47,148Z" transform="translate(-0.98 -1.13)"/><path class="cls-36" d="M258.07,141.72a5.28,5.28,0,0,0,1,4.63c1.77,2,2,2.28,2,2.28h2a23.13,23.13,0,0,0,.89-3.27C263.78,145.28,258.07,141.72,258.07,141.72Z" transform="translate(-0.98 -1.13)"/><path class="cls-25" d="M239.21,95h0s-1.94,11.44-1.5,15.64a75.13,75.13,0,0,1,.28,8.74l-.62.54-.18.11s-.19.07-.43-8.25a51.16,51.16,0,0,1,2.08-15.46S239,95.72,239.21,95Z" transform="translate(-0.98 -1.13)"/><path class="cls-27" d="M238.58,213.72a10,10,0,0,1-1.74-1.27s3.11-10.09,3.48-18.12a54.63,54.63,0,0,1-3.69-11.16c.26,1,3.46,6.7,4.9,12.48S238.58,213.72,238.58,213.72Z" transform="translate(-0.98 -1.13)"/><path class="cls-35" d="M252.76,81.5v0Z" transform="translate(-0.98 -1.13)"/><path class="cls-35" d="M252.76,81.5c-.06.29-.89,4.36-2.53,6.27s-3,3.89-3,3.89c-1.06.14-1.8.19-1.8.19s-1.7.69-2.43-.41a8.13,8.13,0,0,1-1.29-4.38s6.12-.64,8.46-2.26A5.89,5.89,0,0,0,252.76,81.5Z" transform="translate(-0.98 -1.13)"/><path class="cls-37" d="M255,137.85s-.33.69-.39.75-.14-.54-.14-.54.27-.56.29-.56S255,137.85,255,137.85Z" transform="translate(-0.98 -1.13)"/><path class="cls-25" d="M237.19,120s-4.27,13.64-5.69,16.94l.09,3.28S237,123.31,237.19,120Z" transform="translate(-0.98 -1.13)"/><path class="cls-25" d="M233.07,124.88a1.4,1.4,0,1,0,1.77-1A1.45,1.45,0,0,0,233.07,124.88Z" transform="translate(-0.98 -1.13)"/><path class="cls-25" d="M230.9,130.77a1.4,1.4,0,1,0,1.78-1A1.45,1.45,0,0,0,230.9,130.77Z" transform="translate(-0.98 -1.13)"/><path class="cls-38" d="M252.37,76a2.8,2.8,0,0,0,.15-.91l0-1.63a2.51,2.51,0,0,1,.12-.82,4.45,4.45,0,0,0,.23-1s6.65,4.85,10.86,5c-3.55,5.67-6.46,6.66-6.46,6.66s-1.22-.25-.13-1.5,3.07-4.4,1.43-5.39-4.5,1.15-4.87,1.62a7,7,0,0,0-.43.63.8.8,0,0,1-1,.33l-.14-.07a.81.81,0,0,1-.41-1Z" transform="translate(-0.98 -1.13)"/><path class="cls-27" d="M265,254.4a34.43,34.43,0,0,1-5.91.86c-2.91.11-10.81,1.7-10.61,4.65s4.32,7.21,9.5,7.84,11.83-.86,15.22-.76a4.74,4.74,0,0,0,4.37-6.66C276.2,257,265,254.4,265,254.4Z" transform="translate(-0.98 -1.13)"/><path class="cls-27" d="M282.39,246.48s1.11,1.78.56,2.87-2,3.82-6.72,1.18-13.8-6.37-13.8-6.37-5.21-2.77-4.93-6,5.08-2.77,5.08-2.77Z" transform="translate(-0.98 -1.13)"/><path class="cls-28" d="M251.68,200.07s2,21.25,6.28,29.3,5.54,23.18,6.45,26,3.72,7,8.15,7.9,5.16-2.14,4.94-3.95-1.45-4.73-1.46-6.69a20.24,20.24,0,0,1,.5-3.76s5.08,1.5,5.85-2.43a11.57,11.57,0,0,1-.48-1.73c-.07-.59.43-14.82.56-16.54a73.09,73.09,0,0,0-2.22-15.6c-1.4-4.54-.93-14.21-.93-14.21l-14.45-2Z" transform="translate(-0.98 -1.13)"/><path class="cls-39" d="M280.25,212.61c-1.39-4.54-.93-14.21-.93-14.21l-1.26-.17c-.06,1.34-.36,9.82.92,14a72.61,72.61,0,0,1,2.19,15.59c-.12,1.72-.64,15.94-.57,16.52a10.43,10.43,0,0,0,.47,1.73c-.77,3.93-5.85,2.44-5.85,2.44a21.74,21.74,0,0,0-.51,3.75c0,2,1.24,4.88,1.46,6.68s-.51,4.83-4.95,3.95c-.14,0-.26-.09-.39-.12a9,9,0,0,0,1.73.55c4.43.88,5.16-2.14,4.94-3.95s-1.45-4.73-1.46-6.69a23.63,23.63,0,0,1,.5-3.93s5.08,1.67,5.85-2.26a11.57,11.57,0,0,1-.48-1.73c-.07-.59.43-14.82.56-16.54A73.09,73.09,0,0,0,280.25,212.61Z" transform="translate(-0.98 -1.13)"/><path class="cls-27" d="M275,199.94a16.4,16.4,0,0,1-1.44,6.11s0,11.29-1.13,17c0,0,1.87,11.49,3,15.11s1,10.74,1,10.74a4.86,4.86,0,0,0,1.41.25c.83,0,.88-14-.39-16.52s-2.22-13.44-1.74-16.78.31-12.82.94-14.5a2.13,2.13,0,0,0-.79-2.56Z" transform="translate(-0.98 -1.13)"/><path class="cls-27" d="M262.88,123.29a10.38,10.38,0,0,0-4,8.28l3.12-.67S261.08,125.09,262.88,123.29Z" transform="translate(-0.98 -1.13)"/><path class="cls-27" d="M264.51,204.57c9.58.3,14.75-3.95,14.75-3.95,0-1.34.06-2.22.06-2.22l-14.45-2-13.19,3.68s.4,4.19,1.22,9.55c2.34.26,4.65-5.51,4.65-5.51l6.57.41S254.94,204.28,264.51,204.57Z" transform="translate(-0.98 -1.13)"/><path class="cls-40" d="M253.53,200.38s20.82,8.5,30.89-7.62a2.78,2.78,0,0,0,.4-1.58l-.13-3.76a4.39,4.39,0,0,1,.2-1.4h0a5.86,5.86,0,0,0,.21-3c-.78-4.2-2.89-15.61-3.38-18.78-.61-3.87,1.44-19.33,4.9-26s-5.34-21.45-5.34-21.45a5.68,5.68,0,0,0-6.35-2.28s4,2.8,1.81,5.76-8.78,5.35-8.78,5.35-12.18,6.32-16.34,14a31.78,31.78,0,0,0-1.56,9.05c-.13,5.11.44,17.38.22,19.08s-.86,13.4-.79,14S253.53,200.38,253.53,200.38Z" transform="translate(-0.98 -1.13)"/><path class="cls-41" d="M276.89,116.62a3,3,0,0,0-.07-2.35,5.86,5.86,0,0,0-1.89.21A7.51,7.51,0,0,1,276.89,116.62Z" transform="translate(-0.98 -1.13)"/><path class="cls-28" d="M259.84,202.12S272.1,169,271.52,157c-.57-11.72-17.9,23.74-17.9,23.74l-.09,19.65A37.53,37.53,0,0,0,259.84,202.12Z" transform="translate(-0.98 -1.13)"/><path class="cls-25" d="M284.55,182.78a4,4,0,0,0-.2,1.39l.13,3.73a2.87,2.87,0,0,1-.4,1.58c-10,16-30.79,7.57-30.79,7.57s-2.85-13-3.75-17.25c0,1-.07,1.75,0,1.88.07.54,4,18.7,4,18.7s20.82,8.5,30.89-7.62a2.78,2.78,0,0,0,.4-1.58l-.13-3.76a4.39,4.39,0,0,1,.2-1.4,5.86,5.86,0,0,0,.21-3c-.08-.43-.18-1-.28-1.54A5.78,5.78,0,0,1,284.55,182.78Z" transform="translate(-0.98 -1.13)"/><path class="cls-42" d="M286.29,135.28c-3.45,6.65-5.5,22-4.9,25.86l.23,1.36c0-5.54,1.93-18.35,5-24.29.95-1.85.93-4.37.43-7A8.6,8.6,0,0,1,286.29,135.28Z" transform="translate(-0.98 -1.13)"/><path class="cls-28" d="M253.22,163a53,53,0,0,0,.74-8.12c0-4.71,1.38-12.52,9.9-11.17,12,1.92,6.89,18.8,5.57,21.74s-6.6,16.34-6.88,17.09S254,199.94,251,204a.74.74,0,0,1-1.09.13c-1.2-1-3.91-3.47-4.27-5-.45-2,1.29-9.21,1.29-9.21s4.69-18,5.08-18.88C252.3,170.34,252.5,167.38,253.22,163Z" transform="translate(-0.98 -1.13)"/><path class="cls-31" d="M263.08,123.67a4.22,4.22,0,0,0-3.16-2.4c-2.21-.23-3.47-.84-3.69-1.66a15.24,15.24,0,0,0-.77-3,23.43,23.43,0,0,1-1-4.27c0-.07-1.67-.58-1.75-1.32s.79-3.37.7-3.57a6.61,6.61,0,0,1-.88-3.08,15.45,15.45,0,0,1,1-4.61c.66-1.54,5.34-10.88,17.53-6.07s2.95,15.2,4.16,21.9c0,0,1.1,1.41-.91,3.81S266.44,122.3,263.08,123.67Z" transform="translate(-0.98 -1.13)"/><path class="cls-35" d="M274.29,119.37c2-2.4.91-3.81.91-3.81a9.06,9.06,0,0,1,0-3l-4.82.92s-7.12-6.33-6.62-2.94-1.21,4-1.21,4l1.46,1.86c.37.48.15,1-.16,1.56-2,3.5-7,2.45-7,2.45a7.12,7.12,0,0,0,3,.84,4.22,4.22,0,0,1,3.16,2.4C266.44,122.3,272.27,121.78,274.29,119.37Z" transform="translate(-0.98 -1.13)"/><path class="cls-33" d="M253,96.18s-.85,2.5.53,3.55,2.63,2,2.63,2V105a2.34,2.34,0,0,0,.38,1.28l1.74,2.68a3.35,3.35,0,0,1,.52,1.75V112a.75.75,0,0,0,.66.74l.45,0a.73.73,0,0,0,.81-.66l.19-1.8s.91-1.45,2.91.28l1.8.73a2,2,0,0,1,1.09,1.14c.5,1.39,1.58,4.12,2.38,4.58,1.09.61,5.31-1.57,5.87-2.53s2-7.39,2.87-10.45.36-10.57-8.72-12.49S254.23,93.46,253,96.18Z" transform="translate(-0.98 -1.13)"/><path class="cls-38" d="M274.93,114.48c.56-1,2-7.39,2.87-10.45a22.24,22.24,0,0,1-8.07,3c-4.56.7-13.59-4.44-13.59-4.44V105a2.34,2.34,0,0,0,.38,1.28l1.74,2.68a3.35,3.35,0,0,1,.52,1.75V112a.75.75,0,0,0,.66.74l.45,0a.73.73,0,0,0,.81-.66l.19-1.8s.91-1.45,2.91.28l2.6,1.06s1.59,4.77,2.67,5.39S274.37,115.44,274.93,114.48Z" transform="translate(-0.98 -1.13)"/><path class="cls-25" d="M275.11,114.78s3.53,2.18,1.77,5.26-14.56,8.62-15.19,9.43c0,0-.51-4.62,1.19-6.18,0,0,9.79-1.91,11.31-4.41S275.11,114.78,275.11,114.78Z" transform="translate(-0.98 -1.13)"/><path class="cls-34" d="M275.11,114.78s.59,1.61-.92,4.1c-1.15,1.89-7,3.44-9.83,4.09h0s1,.59,2.78,3.55c3.93-2,8.71-4.67,9.74-6.48C278.64,117,275.11,114.78,275.11,114.78Z" transform="translate(-0.98 -1.13)"/><path class="cls-25" d="M277.5,124.65s-5.7,3.27-8.48,4.74-5.82,3.45-5.82,3.45l-1.07-1.07-1.28,2.81a38.24,38.24,0,0,0-6.42,4.82,22.33,22.33,0,0,0-3.83,5.73s5.47-7.16,9.77-9.29l1.16-.59.65-2.22,1.06,1.11S275.76,126.59,277.5,124.65Z" transform="translate(-0.98 -1.13)"/><path class="cls-43" d="M262.8,221.33h0a2.87,2.87,0,0,0-.76-1.23L238.6,200.42c-.62-.51-1.21-.12-1.34.89l-2.74,22.91a3.69,3.69,0,0,0,.92,2.9l19.68,17-.68,6.62,5.89-2.71h0a1.44,1.44,0,0,0,.51-1.12L263,223A3.94,3.94,0,0,0,262.8,221.33Z" transform="translate(-0.98 -1.13)"/><path class="cls-44" d="M232.21,202.68l5.55-2.39.17-.08a.77.77,0,0,1,.67.21L262,220.1a2.87,2.87,0,0,1,.76,1.23l-.84.4h0L257.19,224l-20.54-17.57h0Z" transform="translate(-0.98 -1.13)"/><path class="cls-28" d="M229.67,229.69l24,20.88c.65.58,1.28.14,1.38-1l2.33-24.07a3.72,3.72,0,0,0-1-2.9L233,202.86c-.62-.52-1.22-.13-1.34.89l-2.88,23A3.7,3.7,0,0,0,229.67,229.69Z" transform="translate(-0.98 -1.13)"/><path class="cls-27" d="M258,248.19l2.26-24a3.72,3.72,0,0,0-1-2.88l-23.42-19.73a.8.8,0,0,0-.55-.22.71.71,0,0,1,.75.18l23.41,19.72a3.71,3.71,0,0,1,1,2.89l-2.25,24c-.08.77-.37,1.24-.78,1.25C257.74,249.26,257.94,248.82,258,248.19Z" transform="translate(-0.98 -1.13)"/><path class="cls-42" d="M249.42,212.85l1.22-.61a1.17,1.17,0,0,1,.77-.14l.1,0c.12,0,.18.16.16.35l0,.22-3.45,1.73,0-.23a1.07,1.07,0,0,1,.26-.56l.12-.13A2.82,2.82,0,0,1,249.42,212.85Z" transform="translate(-0.98 -1.13)"/><polygon class="cls-42" points="248.88 214.68 247.22 213.28 250.64 211.07 252.28 212.43 248.88 214.68"/><path class="cls-45" d="M251.07,214.24l1.23-.61a1.16,1.16,0,0,1,.76-.14l.1,0c.13,0,.19.16.17.35l0,.22-3.46,1.73,0-.22a1.07,1.07,0,0,1,.26-.56l.11-.13A3,3,0,0,1,251.07,214.24Z" transform="translate(-0.98 -1.13)"/><polygon class="cls-28" points="250.83 213.7 250.94 212.69 250.83 212.74 250.73 213.76 250.83 213.7"/><polygon class="cls-28" points="250.94 212.69 249.23 211.32 249.14 211.37 250.83 212.74 250.94 212.69"/><path class="cls-42" d="M242,206.59l1.23-.61a1.19,1.19,0,0,1,.76-.13l.09,0c.12,0,.19.16.17.34l0,.22-3.44,1.7,0-.22a1.18,1.18,0,0,1,.27-.55l.11-.13A2.91,2.91,0,0,1,242,206.59Z" transform="translate(-0.98 -1.13)"/><polygon class="cls-42" points="241.41 208.38 239.77 207 243.19 204.81 244.8 206.16 241.41 208.38"/><path class="cls-46" d="M243.61,208l1.22-.6a1.22,1.22,0,0,1,.76-.14l.1,0c.12,0,.18.15.16.34l0,.22-3.45,1.71,0-.23a1.07,1.07,0,0,1,.26-.55l.12-.13A3,3,0,0,1,243.61,208Z" transform="translate(-0.98 -1.13)"/><polygon class="cls-28" points="243.35 207.42 243.47 206.42 243.36 206.47 243.25 207.47 243.35 207.42"/><polygon class="cls-28" points="243.47 206.42 241.78 205.07 241.7 205.11 243.36 206.47 243.47 206.42"/><path class="cls-27" d="M252.57,209l-.44,4.27-1.11-.93.44-4.15a2.24,2.24,0,0,0-.67-1.75l-4.77-4c-.43-.36-.82-.16-.89.44l-.46,4.11-1.09-.92.47-4.22c.15-1.31,1-1.75,2-1l5.08,4.24A4.91,4.91,0,0,1,252.57,209Z" transform="translate(-0.98 -1.13)"/><path class="cls-27" d="M244.35,202.19l2-.2,5.69,5.3.24,3.28-.11,2.73-1.27.63,0-3.4-.07-2.33-1.18-1.69s-2.13-1.72-2.15-1.77S244.35,202.19,244.35,202.19Z" transform="translate(-0.98 -1.13)"/><polygon class="cls-27" points="242.43 206.52 243.69 205.9 244.03 202.87 242.82 202.96 242.46 203.03 242.43 206.52"/><path class="cls-27" d="M243.45,201.26l1.36-.67-.36.74-.46.16Z" transform="translate(-0.98 -1.13)"/><path class="cls-42" d="M251.31,209.66l-.45,4.27-1.11-.93.44-4.15a2.23,2.23,0,0,0-.66-1.75l-4.77-4c-.43-.35-.83-.16-.89.44l-.47,4.12-1.09-.93.48-4.21c.15-1.32,1-1.76,2-1l5.08,4.25A4.91,4.91,0,0,1,251.31,209.66Z" transform="translate(-0.98 -1.13)"/><path class="cls-31" d="M246,198.89s-.81,4.17-.58,5.22a7,7,0,0,0,3.43,3.45c1.21.37.72-1.07,1-2a13,13,0,0,0,.22-2.86Z" transform="translate(-0.98 -1.13)"/><path class="cls-35" d="M250,202.73,246,198.89s-.16.85-.32,1.89a10,10,0,0,0,4.26,4.33A17,17,0,0,0,250,202.73Z" transform="translate(-0.98 -1.13)"/><path class="cls-27" d="M269.14,146.37c3.34,10.17-5,26-6.23,30.61s-14,26.26-14,26.27h0l-.12.21a6.89,6.89,0,0,0,.83.57,2.4,2.4,0,0,0,.57.21h0a.73.73,0,0,0,.74-.3c3-4,11.3-20.69,11.56-21.41s5.55-14.12,6.88-17.09C270.49,163.09,274,151.71,269.14,146.37Z" transform="translate(-0.98 -1.13)"/><path class="cls-25" d="M245.67,199.2s1.44,4.5,5,4.92l-1.22-4.92s-3.05-.86-3.14-.87S245.67,199.2,245.67,199.2Z" transform="translate(-0.98 -1.13)"/><path class="cls-47" d="M133.27,244.28a4.85,4.85,0,0,1-2.37-.55L77.63,213a1.85,1.85,0,0,1-1.06-1.6,2.42,2.42,0,0,1,1.42-2L130.54,179a5.87,5.87,0,0,1,5.38-.2l53.27,30.75a1.89,1.89,0,0,1,1.07,1.61,2.47,2.47,0,0,1-1.42,2l-52.56,30.34A6.17,6.17,0,0,1,133.27,244.28Zm-2-1.27a5.18,5.18,0,0,0,4.56-.2l52.56-30.35a1.69,1.69,0,0,0,1-1.26,1.08,1.08,0,0,0-.65-.89l-53.27-30.76a5.16,5.16,0,0,0-4.55.21L78.4,210.1c-.63.37-1,.84-1,1.27a1.12,1.12,0,0,0,.65.88Z" transform="translate(-0.98 -1.13)"/><polygon class="cls-48" points="188.87 187.64 188.87 194.18 132.3 226.84 75.72 194.18 75.72 187.64 188.87 187.64"/><polygon class="cls-49" points="132.3 220.31 75.72 187.64 132.3 154.98 188.87 187.64 132.3 220.31"/><polygon class="cls-25" points="132.3 219.54 76.39 187.26 75.72 187.64 132.3 220.31 188.87 187.64 188.21 187.26 132.3 219.54"/><polygon class="cls-50" points="132.3 212.77 88.78 187.65 132.3 162.53 175.81 187.65 132.3 212.77"/><polygon class="cls-51" points="132.3 212.77 88.78 187.65 132.3 162.53 175.81 187.65 132.3 212.77"/><polygon class="cls-52" points="132.3 156.19 175.81 181.31 175.81 187.65 132.3 162.53 132.3 156.19"/><polygon class="cls-53" points="132.3 162.53 88.78 187.65 88.78 181.31 132.3 156.19 132.3 162.53"/><polygon class="cls-54" points="132.3 206.44 88.78 181.31 132.3 156.19 175.81 181.31 132.3 206.44"/><polygon class="cls-55" points="132.3 191.35 114.91 181.31 132.3 171.28 149.68 181.31 132.3 191.35"/><polygon class="cls-3" points="132.3 172.2 148.88 181.78 149.68 181.31 132.3 171.28 114.91 181.31 115.71 181.78 132.3 172.2"/><polygon class="cls-56" points="132.3 206.44 132.3 212.77 175.81 187.65 175.81 181.31 132.3 206.44"/><polygon class="cls-57" points="88.78 181.31 88.78 187.65 132.3 212.77 132.3 206.44 88.78 181.31"/><polygon class="cls-58" points="132.3 205.75 89.38 180.97 88.78 181.31 132.3 206.44 175.81 181.31 175.21 180.97 132.3 205.75"/><path class="cls-47" d="M133.27,392.67a4.75,4.75,0,0,1-2.37-.56L77.63,361.36a1.86,1.86,0,0,1-1.06-1.61,2.42,2.42,0,0,1,1.42-2l52.55-30.35a5.87,5.87,0,0,1,5.38-.2L189.19,358a1.89,1.89,0,0,1,1.07,1.61,2.44,2.44,0,0,1-1.42,2l-52.56,30.35A6.17,6.17,0,0,1,133.27,392.67Zm-2-1.27a5.15,5.15,0,0,0,4.56-.21l52.56-30.34c.63-.37,1-.84,1-1.27a1.08,1.08,0,0,0-.65-.88l-53.27-30.76a5.16,5.16,0,0,0-4.55.21L78.4,358.49c-.63.37-1,.84-1,1.26a1.12,1.12,0,0,0,.65.89Z" transform="translate(-0.98 -1.13)"/><polygon class="cls-59" points="188.87 336.03 188.87 342.57 132.3 375.23 75.72 342.57 75.72 336.03 188.87 336.03"/><polygon class="cls-60" points="132.3 368.69 75.72 336.03 132.3 303.37 188.87 336.03 132.3 368.69"/><polygon class="cls-25" points="132.3 367.93 76.39 335.65 75.72 336.03 132.3 368.69 188.87 336.03 188.21 335.65 132.3 367.93"/><polygon class="cls-50" points="132.3 361.16 88.78 336.04 132.3 310.92 175.81 336.04 132.3 361.16"/><polygon class="cls-61" points="132.3 361.16 88.78 336.04 132.3 310.92 175.81 336.04 132.3 361.16"/><polygon class="cls-62" points="132.3 304.58 175.81 329.7 175.81 336.04 132.3 310.92 132.3 304.58"/><polygon class="cls-63" points="132.3 310.92 88.78 336.04 88.78 329.7 132.3 304.58 132.3 310.92"/><polygon class="cls-64" points="132.3 354.82 88.78 329.7 132.3 304.58 175.81 329.7 132.3 354.82"/><polygon class="cls-65" points="132.3 339.74 114.91 329.7 132.3 319.67 149.68 329.7 132.3 339.74"/><polygon class="cls-3" points="132.3 320.59 148.88 330.17 149.68 329.7 132.3 319.67 114.91 329.7 115.71 330.17 132.3 320.59"/><polygon class="cls-66" points="132.3 354.82 132.3 361.16 175.81 336.04 175.81 329.7 132.3 354.82"/><polygon class="cls-67" points="88.78 329.7 88.78 336.04 132.3 361.16 132.3 354.82 88.78 329.7"/><polygon class="cls-58" points="132.3 354.13 89.38 329.36 88.78 329.7 132.3 354.82 175.81 329.7 175.21 329.36 132.3 354.13"/><path class="cls-47" d="M360,244.28a4.85,4.85,0,0,1-2.37-.55L304.39,213a1.89,1.89,0,0,1-1.06-1.6,2.44,2.44,0,0,1,1.42-2L357.31,179a5.87,5.87,0,0,1,5.38-.2L416,209.59A1.89,1.89,0,0,1,417,211.2a2.47,2.47,0,0,1-1.42,2L363,243.52A6.17,6.17,0,0,1,360,244.28ZM358.08,243a5.16,5.16,0,0,0,4.55-.2l52.56-30.35a1.7,1.7,0,0,0,1-1.26,1.11,1.11,0,0,0-.66-.89l-53.27-30.76a5.16,5.16,0,0,0-4.55.21L305.16,210.1c-.63.37-1,.84-1,1.27a1.11,1.11,0,0,0,.66.88Z" transform="translate(-0.98 -1.13)"/><polygon class="cls-68" points="415.63 187.64 415.63 194.18 359.06 226.84 302.49 194.18 302.49 187.64 415.63 187.64"/><polygon class="cls-69" points="359.06 220.31 302.49 187.64 359.06 154.98 415.63 187.64 359.06 220.31"/><polygon class="cls-25" points="359.06 219.54 303.15 187.26 302.49 187.64 359.06 220.31 415.63 187.64 414.97 187.26 359.06 219.54"/><polygon class="cls-50" points="359.06 212.77 315.55 187.65 359.06 162.53 402.57 187.65 359.06 212.77"/><polygon class="cls-70" points="359.06 212.77 315.55 187.65 359.06 162.53 402.57 187.65 359.06 212.77"/><polygon class="cls-71" points="359.06 156.19 402.57 181.31 402.57 187.65 359.06 162.53 359.06 156.19"/><polygon class="cls-72" points="359.06 162.53 315.55 187.65 315.55 181.31 359.06 156.19 359.06 162.53"/><polygon class="cls-73" points="359.06 206.44 315.55 181.31 359.06 156.19 402.57 181.31 359.06 206.44"/><polygon class="cls-65" points="359.06 191.35 341.67 181.31 359.06 171.28 376.45 181.31 359.06 191.35"/><polygon class="cls-3" points="359.06 172.2 375.65 181.78 376.45 181.31 359.06 171.28 341.67 181.31 342.47 181.78 359.06 172.2"/><polygon class="cls-74" points="359.06 206.44 359.06 212.77 402.57 187.65 402.57 181.31 359.06 206.44"/><polygon class="cls-75" points="315.55 181.31 315.55 187.65 359.06 212.77 359.06 206.44 315.55 181.31"/><polygon class="cls-58" points="359.06 205.75 316.15 180.97 315.55 181.31 359.06 206.44 402.57 181.31 401.97 180.97 359.06 205.75"/><path class="cls-47" d="M360,392.67a4.75,4.75,0,0,1-2.37-.56l-53.27-30.75a1.89,1.89,0,0,1-1.06-1.61,2.44,2.44,0,0,1,1.42-2l52.56-30.35a5.87,5.87,0,0,1,5.38-.2L416,358a1.89,1.89,0,0,1,1.06,1.61,2.44,2.44,0,0,1-1.42,2L363,391.91A6.17,6.17,0,0,1,360,392.67Zm-1.95-1.27a5.13,5.13,0,0,0,4.55-.21l52.56-30.34c.63-.37,1-.84,1-1.27a1.11,1.11,0,0,0-.66-.88l-53.27-30.76a5.16,5.16,0,0,0-4.55.21l-52.56,30.34c-.63.37-1,.84-1,1.26a1.11,1.11,0,0,0,.66.89Z" transform="translate(-0.98 -1.13)"/><polygon class="cls-76" points="415.63 336.03 415.63 342.57 359.06 375.23 302.49 342.57 302.49 336.03 415.63 336.03"/><polygon class="cls-77" points="359.06 368.69 302.49 336.03 359.06 303.37 415.63 336.03 359.06 368.69"/><polygon class="cls-25" points="359.06 367.93 303.15 335.65 302.49 336.03 359.06 368.69 415.63 336.03 414.97 335.65 359.06 367.93"/><polygon class="cls-50" points="359.06 361.16 315.55 336.04 359.06 310.92 402.57 336.04 359.06 361.16"/><polygon class="cls-78" points="359.06 361.16 315.55 336.04 359.06 310.92 402.57 336.04 359.06 361.16"/><polygon class="cls-79" points="359.06 304.58 402.57 329.7 402.57 336.04 359.06 310.92 359.06 304.58"/><polygon class="cls-80" points="359.06 310.92 315.55 336.04 315.55 329.7 359.06 304.58 359.06 310.92"/><polygon class="cls-81" points="359.06 354.82 315.55 329.7 359.06 304.58 402.57 329.7 359.06 354.82"/><polygon class="cls-55" points="359.06 339.74 341.67 329.7 359.06 319.67 376.45 329.7 359.06 339.74"/><polygon class="cls-3" points="359.06 320.59 375.65 330.17 376.45 329.7 359.06 319.67 341.67 329.7 342.47 330.17 359.06 320.59"/><polygon class="cls-82" points="359.06 354.82 359.06 361.16 402.57 336.04 402.57 329.7 359.06 354.82"/><polygon class="cls-83" points="315.55 329.7 315.55 336.04 359.06 361.16 359.06 354.82 315.55 329.7"/><polygon class="cls-58" points="359.06 354.13 316.15 329.36 315.55 329.7 359.06 354.82 402.57 329.7 401.97 329.36 359.06 354.13"/><g class="cls-84"><path class="cls-85" d="M83.87,27c36.7-11,58.54,30.53,37.1,70.62-18.2,34-62.56,58.59-74.17,22.86-6.82-21-1.17-72.54,33.55-92-9.35,4.84-16.22,11.69-23,22.88,12.81,15.76,13.85,17,24.9,29.76C95.38,50.24,96.45,47.72,106.13,26.8c-7.56-2.63-14.21-2.56-22.26.23ZM81.3,28.09c-.28.13-.56.25-.83.39.27-.14.55-.26.83-.39Zm1.87-.79.61-.24-.61.24Zm-.88.35-.86.38.86-.38Zm0,0,.7-.28-.7.28Z" transform="translate(-0.98 -1.13)"/><path class="cls-86" d="M21.82,66.46q3.22-3.37,6.89-6.64v107q-3.66,3.27-6.89,6.64v-107Z" transform="translate(-0.98 -1.13)"/><path class="cls-87" d="M10.82,118a82.81,82.81,0,0,1,5-7.08v69.39a81.4,81.4,0,0,0-5,7.09V118Z" transform="translate(-0.98 -1.13)"/><path class="cls-25" d="M1,198.71l.11.25.13-7L1,191.56v7.15Zm0,20.71v-107c0-.68,0-1.37,0-2A55.12,55.12,0,0,1,3.54,95.91v107A55.19,55.19,0,0,0,1,217.36c0,.68,0,1.37,0,2.06Z" transform="translate(-0.98 -1.13)"/><polygon class="cls-88" points="0 197.58 0.11 197.83 0.24 190.8 0 190.43 0 197.58 0 197.58"/><path class="cls-89" d="M80.47,28.48l-.12.05.12-.05Zm3.31-1.42.09,0-.09,0Zm-2.35,1-.13.06.13-.06ZM83,27.37h.18l-.18.07Z" transform="translate(-0.98 -1.13)"/><path class="cls-90" d="M82.29,27.65c12-5,20.59-2,23.84-.85C92.45,57,91,60.11,82.29,81.17,68.81,65.49,66.74,63.08,57.39,51.41,60,47,68.08,33.65,82.29,27.65Z" transform="translate(-0.98 -1.13)"/><path class="cls-85" d="M287.31,334.09v-107c-11.82.67-23.89,1-36.14.87C112.07,226.83,1,175.29,1,112.38v107C1,282.32,112.07,333.86,251.17,335c12.25.1,24.32-.2,36.14-.87Z" transform="translate(-0.98 -1.13)"/><path class="cls-25" d="M167.22,290.94c-9.91,2.53-19.27,4.93-77.53-57.75-7.37-7.41-7.37-7.41-45.21,7.67-4.3,1-10.79,2.62-28.68-40.05C10.28,188.2,1.07,198.6,1,198.71v-7.15c3.13-1.78,3.34-1.9,8-3.22a3.57,3.57,0,0,1,2.59.21c1.25.65,2.53,2.13,4.73,6.84,10.31,22,10.31,22,17.73,34,4.38,6.49,4.38,6.49,39.89-7.61,2.43-.65,7.47-2,15.09,4.06,21.39,17.06,38.79,38.4,59.91,55.76,7.92,5.64,12.71,9,109.86-32.81l3.37,5.46c-13.91,6.07-56.26,24.54-95,36.73Z" transform="translate(-0.98 -1.13)"/><polygon class="cls-25" points="67.82 101.68 53.01 112.47 52.49 110.62 67.3 99.83 67.82 101.68"/><polygon class="cls-25" points="73.04 97.88 69.38 100.55 68.86 98.7 72.52 96.03 73.04 97.88"/><polygon class="cls-25" points="100.57 93.12 85.76 103.91 85.24 102.06 100.06 91.27 100.57 93.12"/><polygon class="cls-25" points="58.2 113.77 54.19 116.7 53.67 114.85 57.69 111.92 58.2 113.77"/><polygon class="cls-25" points="83.62 105.44 79.61 108.37 79.09 106.52 83.1 103.59 83.62 105.44"/><polygon class="cls-25" points="67.62 106.91 59.76 112.64 59.24 110.79 67.1 105.06 67.62 106.91"/><polygon class="cls-25" points="71.67 103.97 69.18 105.78 68.66 103.93 71.15 102.12 71.67 103.97"/><polygon class="cls-25" points="81.16 97.06 73.3 102.79 72.78 100.94 80.64 95.22 81.16 97.06"/><polygon class="cls-25" points="85.2 94.12 82.71 95.93 82.2 94.08 84.69 92.27 85.2 94.12"/><polygon class="cls-25" points="82.44 101.22 78.42 104.14 77.91 102.29 81.92 99.37 82.44 101.22"/><polygon class="cls-25" points="91.86 94.36 83.99 100.08 83.48 98.23 91.34 92.51 91.86 94.36"/><polygon class="cls-25" points="63.58 114.94 55.37 120.92 54.85 119.07 63.07 113.09 63.58 114.94"/><polygon class="cls-25" points="71.08 109.48 65.14 113.81 64.62 111.96 70.56 107.63 71.08 109.48"/><polygon class="cls-25" points="76.64 105.43 72.63 108.35 72.11 106.5 76.13 103.58 76.64 105.43"/><polygon class="cls-25" points="64.82 119.13 56.61 125.11 56.09 123.26 64.3 117.28 64.82 119.13"/><polygon class="cls-25" points="72.31 113.67 66.37 118 65.86 116.15 71.79 111.83 72.31 113.67"/><polygon class="cls-25" points="77.88 109.62 73.87 112.54 73.35 110.69 77.36 107.77 77.88 109.62"/></g></g></g></g></svg>