<svg id="Layer_1" data-name="Layer 1" xmlns="http://www.w3.org/2000/svg" xmlns:xlink="http://www.w3.org/1999/xlink" viewBox="0 0 30 30"><defs><style>.cls-1{fill:url(#linear-gradient);}.cls-2{fill:#f1f2f2;}</style><linearGradient id="linear-gradient" y1="15" x2="30" y2="15" gradientUnits="userSpaceOnUse"><stop offset="0" stop-color="#17479d"/><stop offset="0.16" stop-color="#1950a1"/><stop offset="0.41" stop-color="#1f68ac"/><stop offset="0.73" stop-color="#2890bf"/><stop offset="1" stop-color="#31b7d1"/></linearGradient></defs><title>tw-icon</title><circle class="cls-1" cx="15" cy="15" r="15"/><path class="cls-2" d="M24.19,10.78a6.83,6.83,0,0,1-2.06.56,3.58,3.58,0,0,0,1.58-2,7.33,7.33,0,0,1-2.28.87,3.59,3.59,0,0,0-6.11,3.27A10.18,10.18,0,0,1,7.93,9.75,3.58,3.58,0,0,0,9,14.54a3.61,3.61,0,0,1-1.63-.45v.05a3.58,3.58,0,0,0,2.88,3.51,3.28,3.28,0,0,1-.94.13,3.74,3.74,0,0,1-.68-.06A3.6,3.6,0,0,0,12,20.21a7.2,7.2,0,0,1-4.45,1.53,8.11,8.11,0,0,1-.86,0,10.2,10.2,0,0,0,15.7-8.59c0-.16,0-.31,0-.46a7.36,7.36,0,0,0,1.79-1.86Z"/></svg>